<svg xmlns="http://www.w3.org/2000/svg">
<defs>
<font id="AstakhovDishedSerif11.006" horiz-adv-x="1033" >
  <font-face 
    font-family="Astakhov Dished Serif 11.006"
    font-weight="400"
    font-stretch="normal"
    units-per-em="2048"
    panose-1="2 0 5 0 0 0 0 0 0 0"
    ascent="1638"
    descent="-410"
    x-height="1862"
    cap-height="1862"
    bbox="-200.669 -527.276 4477 2338"
    underline-thickness="150"
    underline-position="-142"
    unicode-range="U+001D-U+FFFC"
  />
<missing-glyph horiz-adv-x="1567" 
d="M1547 1862v-1862h-1527v1862h1527zM822 1445c13.333 -50 20 -98.666 20 -145.999v-29c0 -56.667 -6.66699 -107.334 -20 -152.001c2 -20.667 4 -33.334 6 -38.001c13.333 -48.667 44.333 -73 93 -73h50c56.667 12 85 45 85 99c-14 84.667 -21 143.334 -21 176.001
c0 36.667 7 93 21 169c0 70 -38 105 -114 105c-80 0 -120 -37 -120 -111zM524 1512c14 -97.333 21.001 -171.333 21.001 -222v-17c0 -54.667 -7 -126.667 -21 -216c0 -27.333 10.667 -41 32 -41h15c23.333 0 35 19.333 35 58v184h3c0 -4 24.333 -57.333 73 -160
c-2 0 -5 -12.667 -9 -38c4 -29.333 15.667 -44 35 -44h15c18 0 28.667 12.667 32 38v458c0 20.667 -12.667 32.334 -38 35.001h-3c-24.667 0 -38.334 -15.333 -41.001 -46c15.333 -68.667 23 -146.667 23 -234v-44h-3c-58 116.667 -87 187.667 -87 213v53
c0 38.667 -13.667 58 -41 58h-3c-25.333 -2.66699 -38 -14.334 -38 -35.001zM936.001 1480c25.333 -2.66699 38 -11.332 38 -25.999c-14 -68.667 -21 -124.334 -21 -167.001v-11c0 -46.667 7 -101.334 21 -164.001c0 -19.333 -10.667 -29 -32 -29h-9
c-15.333 0 -25 11.667 -29 35c15.333 50.667 23 104.334 23 161.001c0 56 -7.66699 112.333 -23 169c0 17.333 10.667 28 32 32zM121.001 756.003v-6.00195c10 -49.333 16.667 -105.666 20 -168.999c-3.33301 -64.667 -10 -121.334 -20 -170.001c0 -70 35 -105 105 -105h15
c62 0 99 29.333 111 88c-14 82 -21 141.333 -21 178c0 28 -12.667 46.333 -38 55c-10 -9.33301 -16.667 -14 -20 -14c-27.333 -9.33301 -41 -25 -41 -47c0 -20 10.667 -33.667 32 -41l-3 -20v-68c2 -26.667 6 -40 12 -40c0 -8.66699 -10.667 -13.667 -32 -15

<glyph glyph-name=".notdef" horiz-adv-x="1567" 
d="M1547 1862v-1862h-1527v1862h1527zM822 1445c13.333 -50 20 -98.666 20 -145.999v-29c0 -56.667 -6.66699 -107.334 -20 -152.001c2 -20.667 4 -33.334 6 -38.001c13.333 -48.667 44.333 -73 93 -73h50c56.667 12 85 45 85 99c-14 84.667 -21 143.334 -21 176.001
c0 36.667 7 93 21 169c0 70 -38 105 -114 105c-80 0 -120 -37 -120 -111zM524 1512c14 -97.333 21.001 -171.333 21.001 -222v-17c0 -54.667 -7 -126.667 -21 -216c0 -27.333 10.667 -41 32 -41h15c23.333 0 35 19.333 35 58v184h3c0 -4 24.333 -57.333 73 -160
c-2 0 -5 -12.667 -9 -38c4 -29.333 15.667 -44 35 -44h15c18 0 28.667 12.667 32 38v458c0 20.667 -12.667 32.334 -38 35.001h-3c-24.667 0 -38.334 -15.333 -41.001 -46c15.333 -68.667 23 -146.667 23 -234v-44h-3c-58 116.667 -87 187.667 -87 213v53
c0 38.667 -13.667 58 -41 58h-3c-25.333 -2.66699 -38 -14.334 -38 -35.001zM936.001 1480c25.333 -2.66699 38 -11.332 38 -25.999c-14 -68.667 -21 -124.334 -21 -167.001v-11c0 -46.667 7 -101.334 21 -164.001c0 -19.333 -10.667 -29 -32 -29h-9
c-15.333 0 -25 11.667 -29 35c15.333 50.667 23 104.334 23 161.001c0 56 -7.66699 112.333 -23 169c0 17.333 10.667 28 32 32zM121.001 756.003v-6.00195c10 -49.333 16.667 -105.666 20 -168.999c-3.33301 -64.667 -10 -121.334 -20 -170.001c0 -70 35 -105 105 -105h15
c62 0 99 29.333 111 88c-14 82 -21 141.333 -21 178c0 28 -12.667 46.333 -38 55c-10 -9.33301 -16.667 -14 -20 -14c-27.333 -9.33301 -41 -25 -41 -47c0 -20 10.667 -33.667 32 -41l-3 -20v-68c2 -26.667 6 -40 12 -40c0 -8.66699 -10.667 -13.667 -32 -15
c-25.333 1.33301 -38 11 -38 29v339c0 14.667 8.66699 23.334 26 26.001h23c6.66699 0 13.667 -3 21 -9c-15.333 -21.333 -23 -42.666 -23 -63.999c0 -29.333 13.333 -44 40 -44h15c8 0 17.667 6 29 18l-3 15v20c0 13.333 7 31 21 53v11c-18.667 52.667 -55.667 79 -111 79
h-3c-78 0 -117 -33 -117 -99zM422.001 808.001c13.333 -102.667 20 -176.667 20 -222c0 -64 -6.66699 -139.667 -20 -227v-12c4 -21.333 13.667 -32 29 -32h137c27.333 0 41 12.667 41 38v14c0 20 -14.667 30 -44 30c-39.333 -8 -65.333 -12 -78 -12h-3v400
c0 40.667 -13.667 61 -41 61h-3c-23.333 0 -36 -12.667 -38 -38zM606.001 814.001l-0.000976562 -17.001c55.333 -93.333 94.333 -179 117 -257c0 -29.333 -7 -90.666 -21 -183.999c3.33301 -27.333 14 -41 32 -41h12c25.333 0 38 16.333 38 49v252
c2.66699 13.333 15.334 42.333 38.001 87c35.333 59.333 53 95.333 53 108c0 20.667 -13.667 32.334 -41 35.001h-6c-10 0 -20.667 -6.66699 -32 -20c-34.667 -95.333 -54.334 -144 -59.001 -146c0 8 -7.66699 28.333 -23 61c-17.333 70 -39.666 105 -66.999 105
c-27.333 -2.66699 -41 -13.334 -41 -32.001zM930 805c13.333 -82 20 -149.999 20 -203.999v-41c0 -56.667 -6.66699 -123.667 -20 -201c0 -22 7.66699 -36.667 23 -44h18c27.333 0 41 14.667 41 44v184h29c8 0 18.667 0.666992 32 2c52.667 21.333 79 48.666 79 81.999
c-13.333 32.667 -20 55 -20 67c0 23.333 7.66699 44 23 62l-6 29c-17.333 40.667 -50.333 61 -99 61h-85c-20 0 -31.667 -13.667 -35 -41zM1216 808.001c14 -102 20.999 -177.001 20.999 -225.001c0 -53.333 -7 -130 -21 -230c0 -25.333 10.667 -38 32 -38h15
c23.333 0 35 23.333 35 70v158h88c0 -39.333 -7 -100.666 -21 -183.999c2.66699 -29.333 13.334 -44 32.001 -44h12c25.333 0 38 13.667 38 41v441c0 32.667 -11.667 49 -35 49h-12c-19.333 0 -31 -13.667 -35 -41c14 -89.333 21 -151.333 21 -186h-88v160
c0 44.667 -13.667 67 -41 67h-3c-23.333 0 -36 -12.667 -38 -38zM1044 770c13.333 0 25 -2.66699 35 -8c-13.333 -27.333 -20 -46 -20 -56v-20c0 -15.333 6.66699 -33 20 -53v-3c0 -5.33301 -9.66699 -9 -29 -11c-25.333 0 -38 3.66699 -38 11v129c0 6 10.667 9.66699 32 11
z" />
    <glyph glyph-name="NULL" horiz-adv-x="0" 
 />
    <glyph glyph-name="NULL" horiz-adv-x="0" 
 />
    <glyph glyph-name="space" unicode=" " horiz-adv-x="508" 
 />
    <glyph glyph-name="space" unicode="&#xa0;" horiz-adv-x="508" 
 />
    <glyph glyph-name="exclam" unicode="!" horiz-adv-x="565" 
d="M443 1738v-1111c0 -82.667 -54.333 -124 -163 -124c-104.667 0 -158 39.333 -160 118v6c115.333 370.667 115.333 741 0 1111c0 82.667 46.667 124 140 124c122 0 183 -41.333 183 -124zM443 66c0 -44 -53.667 -66.001 -161 -66.001c-108 0 -162 22 -162 66
c37.333 64.667 37.333 128.334 0 191.001c0 44 54 66 162 66c107.333 0 161 -22 161 -66c-37.333 -59.333 -37.333 -123 0 -191z" />
    <glyph glyph-name="quotedbl" unicode="&#x22;" horiz-adv-x="968" 
d="M790 1647v-213.999c0 -81.333 -12 -122 -36 -122c-36 28 -72 28 -108 0c-24 0 -36 40.667 -36 122v214c-38.667 10.667 -58 30 -58 58c34 65.333 34 129.666 0 192.999c0 44.667 49.333 67 148 67s148 -22.333 148 -67c-34 -60 -34 -124.333 0 -193
c0 -28 -19.333 -47.333 -58 -58zM358 1647v-213.999c0 -81.333 -12 -122 -36 -122c-36 28 -72 28 -108 0c-24 0 -36 40.667 -36 122v214c-38.667 10.667 -58 30 -58 58c34 65.333 34 129.666 0 192.999c0 44.667 49.333 67 148 67s148 -22.333 148 -67
c-34 -60 -34 -124.333 0 -193c0 -28 -19.333 -47.333 -58 -58z" />
    <glyph glyph-name="numbersign" unicode="#" horiz-adv-x="1349" 
d="M1241 1650l-105 -427.997c8.66699 2 17.334 3.66699 26.001 5c70 0 105 -21 105 -63c0 -54.667 -35 -82 -105 -82h-60l-63 -257c26.667 4 53.667 8.33301 81 13c70 0 105 -21 105 -63c0 -54.667 -35 -82 -105 -82h-113l-135 -553
c-27.333 -112.667 -87 -157.334 -179 -134.001c-88.667 22.667 -121 87.667 -97 195l2 9c72.667 158 135 319 187 483h-259l-135 -553c-27.333 -112.667 -87 -157.334 -179 -134.001c-88.667 22.667 -121 87.667 -97 195l3 9c72.667 158 135 319 187 483h-120
c-70 0 -105 24.333 -105 73c0 46.667 33 70.667 99 72h6c52 -8.66699 104.333 -16 157 -22c24 88 45.333 176.667 64 266h-179c-70 0 -105 24.333 -105 73c0 46.667 33 70.667 99 72h6c67.333 -11.333 134.666 -20.333 201.999 -27c30 170.667 49.333 344 58 520
c27.333 112.667 80.333 159 159 139c103.333 -26.667 141.333 -96.334 114 -209.001l-113 -462c87.333 -1.33301 174.666 1.33398 261.999 8.00098c30.667 172 50.334 346.667 59.001 524c27.333 112.667 80.333 159 159 139c103.333 -26.667 141.333 -96.334 114 -209.001z
M818 804.003c26 92 48.666 184.667 67.999 278h-265l-69 -281c88.667 -3.33301 177.334 -2.33301 266.001 3z" />
    <glyph glyph-name="dollar" unicode="$" horiz-adv-x="1053" 
d="M667 -60c0 -113.333 -47.3301 -170.001 -141.997 -170.001c-91.333 0 -138 53.667 -140 161v9c4.66699 24 9 48 13 72c-26.667 6.66699 -50.334 15.667 -71.001 27c-111.333 47.333 -180.333 138.666 -207 273.999c72.667 94.667 95 194 67 298
c26.667 51.333 75.334 74.333 146.001 69c83.333 -7.33301 130.333 -47 141 -119c4 -35.333 2 -70 -6 -104c-10.667 -49.333 -33.667 -97.333 -69 -144c0 -32.667 41.667 -49 125 -49c83.333 0.666992 125 43.334 125 128.001c-13.333 71.333 -29.333 143.333 -48 216
c-18.667 60 -110.667 178 -276 354v1c-78.667 71.333 -127.334 155.333 -146.001 252c-2.66699 9.33301 -7.66699 40.666 -15 93.999c-11.333 79.333 -26 154.333 -44 225c-0.666992 211.333 88.333 337 267 377c-0.666992 4 -1.33398 8.33301 -2.00098 13v9
c2 107.333 48.667 161 140 161c94.667 0 142 -56.667 142 -170v-16c20.667 -6 39.667 -13.333 57 -22c111.333 -47.333 180.333 -138.666 207 -273.999c-72.667 -94.667 -95 -194 -67 -298c-26.667 -51.333 -75.334 -74.333 -146.001 -69
c-83.333 7.33301 -130.333 47 -141 119c-4 35.333 -2 70 6 104c10.667 49.333 33.667 97.333 69 144c0 32.667 -41.667 49 -125 49c-83.333 -0.666992 -125 -43.334 -125 -128.001c13.333 -71.333 29.333 -143.333 48 -216c18.667 -60 61 -125.667 127 -197
c65.333 -71.333 114.666 -123.666 147.999 -156.999l1 -1c78.667 -71.333 127.334 -155.333 146.001 -252c2.66699 -9.33301 7.66699 -40.666 15 -93.999c11.333 -79.333 26 -154.333 44 -225c0.666992 -210 -87.333 -335.667 -264 -377v-74z" />
    <glyph glyph-name="percent" unicode="%" horiz-adv-x="1697" 
d="M1570 233c0 -154.667 -79 -232 -237 -232c-158.667 0.666992 -238 78 -238 232c55.333 239.333 55.333 464 0 674c0 154.667 79.333 232 238 232c158 0 237 -77.333 237 -232c-55.333 -210 -55.333 -434.667 0 -674zM1405 907c0 50 -24 75 -72 75h-1
c-48 0 -72 -25 -72 -75c59.333 -210 59.333 -434.667 0 -674c0 -50 24 -75 72 -75c48.667 0 73 25 73 75c-59.333 239.333 -59.333 464 0 674zM600 1069c0 -154.667 -79 -232 -237 -232c-158.667 0.666992 -238 78 -238 232c55.333 239.333 55.333 464 0 674
c0 154.667 79.333 232 238 232c158 0 237 -77.333 237 -232c-55.333 -210 -55.333 -434.667 0 -674zM435 1743c0 50 -24 75 -72 75h-1c-48 0 -72 -25 -72 -75c59.333 -210 59.333 -434.667 0 -674c0 -50 24 -75 72 -75c48.667 0 73 25 73 75
c-59.333 239.333 -59.333 464 0 674zM1169 1650l-369 -1510c-27.333 -112.667 -87 -157.334 -179 -134.001c-88.667 22.667 -121 87.667 -97 195l3 9c220.667 478 343.667 981.333 369 1510c27.333 112.667 80.333 159 159 139
c103.333 -26.667 141.333 -96.334 114 -209.001z" />
    <glyph glyph-name="ampersand" unicode="&#x26;" horiz-adv-x="1183" 
d="M650 819c0 36 -41 54 -123 54h-2c-81.333 0 -122 -18 -122 -54c100.667 -152 100.667 -314 0 -486c0 -36 41 -54 123 -54c82.667 0 124 18 124 54c-100.667 172 -100.667 334 0 486zM403 1286c0 -62.667 25.668 -104.333 77.001 -125
c13.333 -5.33301 28.666 -8.33301 45.999 -9h125c9.33301 89.333 56 134 140 134h1c84 0 130.333 -44.667 139 -134h21c107.333 -2 161 -48.333 161 -139v-1c0 -90.667 -53.667 -137 -161 -139h-19c-94 -188 -94 -341.333 0 -460c0 -264 -115 -401 -345 -411
c-22.667 -0.666992 -44.334 -1 -65.001 -1c-40.667 0 -76 1.66699 -106 5c-198 23.333 -297 159 -297 407c94 118.667 94 227.667 0 327c0 128.667 51.667 219.667 155 273c-103.333 53.333 -155 144.333 -155 273c94 98.667 94 197 0 295c0 255.333 105.667 392 317 410
c28.667 2 58 3 88 3c25.333 0 51.333 -0.666992 78 -2c196.667 -13.333 305.334 -124.333 326.001 -333c0.666992 -108 -45 -162 -137 -162h-1c-92 0 -139 53.667 -141 161l-70 54c-16 2.66699 -33 4 -51 4c-15.333 0 -31.333 -1 -48 -3c-52 -6 -78 -50 -78 -132
c94 -98 94 -196.333 0 -295z" />
    <glyph glyph-name="quotesingle" unicode="'" horiz-adv-x="536" 
d="M358 1647v-213.999c0 -81.333 -12 -122 -36 -122c-36 28 -72 28 -108 0c-24 0 -36 40.667 -36 122v214c-38.667 10.667 -58 30 -58 58c34 65.333 34 129.666 0 192.999c0 44.667 49.333 67 148 67s148 -22.333 148 -67c-34 -60 -34 -124.333 0 -193
c0 -28 -19.333 -47.333 -58 -58z" />
    <glyph glyph-name="parenleft" unicode="(" horiz-adv-x="705" 
d="M512 2110c107.333 -2 161 -38.999 161 -110.999v-2c0 -72 -53.667 -108.667 -161 -110c-73.333 -85.333 -110 -403.833 -110 -955.5s36.667 -869.834 110 -954.501c107.333 -2 161 -39.333 161 -112v-1c0 -72.667 -53.667 -109.667 -161 -111
c-261.333 3.33301 -392 135.333 -392 396c94 522 94 1044 0 1566c0 260 130.667 391.667 392 395z" />
    <glyph glyph-name="parenright" unicode=")" horiz-adv-x="705" 
d="M191 1887c-107.333 1.33301 -161 37.999 -161 109.999v2c0 72 53.667 109 161 111c261.333 -3.33301 392 -135 392 -395c-94 -522 -94 -1044 0 -1566c0 -260.667 -130.667 -392.667 -392 -396c-107.333 1.33301 -161 38.333 -161 111v1c0 72.667 53.667 110 161 112
c73.333 84.667 110 402.834 110 954.501s-36.667 870.167 -110 955.5z" />
    <glyph glyph-name="asterisk" unicode="*" horiz-adv-x="1012" 
d="M534 1662c83.333 88.667 145.667 142.335 187 161.002c22 11.333 42.333 17 61 17c44.667 0 61 -32 49 -96c8 -24 28.667 -45.667 62 -65c0 -54 -33.333 -86 -100 -96c-10.667 -1.33301 -23 -2 -37 -2c-47.333 0 -114.666 8.66699 -201.999 26
c111.333 -52 182 -94.333 212 -127c25.333 -27.333 38 -54 38 -80c0 -34 -29.667 -50 -89 -48c-17.333 -58 -39.333 -87 -66 -87c-36.667 0 -66.667 23.667 -90 71c-20.667 41.333 -37.667 119.666 -51 234.999c-15.333 -122 -34 -202.333 -56 -241
c-23.333 -42.667 -53 -64 -89 -64c-25.333 0 -46.333 28 -63 84c-61.333 -1.33301 -92 14.667 -92 48c0 27.333 14.667 55.666 44 84.999c32.667 32.667 101.667 72.667 207 120c-86.667 -16.667 -153.667 -25 -201 -25c-18 0 -33 1.33301 -45 4
c-62.667 12 -94 44.667 -94 98c33.333 18 53.666 38.333 60.999 61c-13.333 65.333 2.66699 98 48 98c20 0 42.667 -6.66699 68 -20c41.333 -21.333 101 -74.333 179 -159c-58.667 106.667 -90.667 182.334 -96 227.001c-0.666992 8 -1 15.667 -1 23
c0 69.333 42 87.666 126 54.999h4c83.333 33.333 125 17 125 -49c0 -10.667 -1 -22 -3 -34c-8 -46.667 -40 -120 -96 -220z" />
    <glyph glyph-name="plus" unicode="+" horiz-adv-x="1047" 
d="M408 1265c0 81.333 16.001 122.001 48.001 122.001c46 -28 91.667 -28 137 0c32 0 48 -40.667 48 -122v-166h165c81.333 0 122 -16 122 -48c-28 -42.667 -28 -88.334 0 -137.001c0 -32 -40.667 -48 -122 -48h-165v-166c0 -81.333 -16 -122 -48 -122
c-42.667 28 -88.334 28 -137.001 0c-32 0 -48 40.667 -48 122v166h-167c-81.333 0 -122 16 -122 48c28 46 28 91.667 0 137c0 32 40.667 48 122 48h167v166z" />
    <glyph glyph-name="comma" unicode="," horiz-adv-x="591" 
d="M358 -294c-2.66699 -12 -13.332 -21.999 -31.999 -29.999c-22 -4.66699 -43.667 -4.33398 -65 0.999023c-20.667 4.66699 -39.334 14.334 -56.001 29.001c-12.667 15.333 -17.667 29.333 -15 42l63 252c-88.667 4 -133 26.333 -133 67
c37.333 65.333 37.333 129.666 0 192.999c0 44.667 54.667 67 164 67c108.667 0 163 -22.333 163 -67c-37.333 -60 -37.333 -124.333 0 -193z" />
    <glyph glyph-name="hyphen" unicode="-" horiz-adv-x="786" 
d="M172 841c-81.333 0 -122 15.999 -122 47.999c28 46.667 28 93 0 139c0 32 40.667 48 122 48h442c81.333 0 122 -16 122 -48c-28 -43.333 -28 -89.666 0 -138.999c0 -32 -40.667 -48 -122 -48h-442z" />
    <glyph glyph-name="hyphen" unicode="&#xad;" horiz-adv-x="786" 
d="M172 841c-81.333 0 -122 15.999 -122 47.999c28 46.667 28 93 0 139c0 32 40.667 48 122 48h442c81.333 0 122 -16 122 -48c-28 -43.333 -28 -89.666 0 -138.999c0 -32 -40.667 -48 -122 -48h-442z" />
    <glyph glyph-name="period" unicode="." horiz-adv-x="565" 
d="M447 67c0 -44.667 -54.333 -66.999 -163 -66.999c-109.333 0 -164 22.333 -164 67c37.333 65.333 37.333 129.666 0 192.999c0 44.667 54.667 67 164 67c108.667 0 163 -22.333 163 -67c-37.333 -60 -37.333 -124.333 0 -193z" />
    <glyph glyph-name="slash" unicode="/" horiz-adv-x="748" 
d="M712 1650l-369 -1510c-27.333 -112.667 -87 -157.334 -179 -134.001c-88.667 22.667 -121 87.667 -97 195l3 9c220.667 478 343.667 981.333 369 1510c27.333 112.667 80.333 159 159 139c103.333 -26.667 141.333 -96.334 114 -209.001z" />
    <glyph glyph-name="zero" unicode="0" horiz-adv-x="1053" 
d="M649 1501c0 84.667 -41 127 -123 127h-2c-81.333 0 -122 -42.333 -122 -127v-1140c0 -84.667 41 -127 123 -127c82.667 0 124 42.333 124 127v1140zM931 362c0 -262 -135 -393 -405 -393c-270.667 0.666992 -406 131.667 -406 393c94 379.333 94 759.333 0 1140
c0 261.333 135.333 392 406 392c270 0 405 -130.667 405 -392c-94 -380.667 -94 -760.667 0 -1140zM599 1420c0 72.667 -24.333 109 -73 109h-1c-48.667 0 -73 -36.333 -73 -109c60 -326 60 -651.333 0 -976c0 -72.667 24.333 -109 73 -109c49.333 0 74 36.333 74 109
c-60 324.667 -60 650 0 976z" />
    <glyph glyph-name="one" unicode="1" horiz-adv-x="1073" 
d="M771 0l-471 -0.00195312c-113.333 0 -170 53.333 -170 160c0 81.333 56.667 122 170 122c36.667 -7.33301 73.667 -14 111 -20c39.333 223.333 59 446.333 59 669c0 216.667 -18.667 433.334 -56 650.001c-38 6.66699 -76 6.33398 -114 -0.999023
c-113.333 0 -170 40.667 -170 122c0 106.667 56.667 160 170 160h216c106.667 0 160 -56.667 160 -170v-1427h1l94 17c113.333 0 170 -40.667 170 -122c0 -106.667 -56.667 -160 -170 -160z" />
    <glyph glyph-name="two" unicode="2" horiz-adv-x="1190" 
d="M943 492c32.667 0 60.5 -23.999 83.5 -71.999s34.5 -106 34.5 -174s-11.5 -126 -34.5 -174s-50.833 -72 -83.5 -72c-21.333 0 -40.333 10 -57 30c-27.333 -20 -65 -30 -113 -30h-235c-272.667 0 -408.667 120 -408 360c18 70.667 32.667 145.667 44 225
c7.33301 53.333 12.333 84.666 15 93.999c18.667 96.667 67.667 180.667 147 252l1 1c33.333 33.333 82.666 85.666 147.999 156.999c66 71.333 108.333 137 127 197c18.667 72.667 34.667 144.667 48 216c0 84.667 -41.667 127.334 -125 128.001
c-83.333 0 -125 -16.333 -125 -49c35.333 -46.667 58.333 -94.667 69 -144c8 -34 10 -68.667 6 -104c-10.667 -72 -57.667 -111.667 -141 -119c-71.333 -5.33301 -120.333 17.667 -147 69c28 104 5.66699 203.333 -67 298c26.667 135.333 96 226.666 208 273.999
c48.667 26 114.334 39 197.001 39c272.667 0 408.667 -130.333 408 -391c-18 -70.667 -32.667 -145.667 -44 -225c-7.33301 -53.333 -12.333 -84.666 -15 -93.999c-18.667 -96.667 -67.667 -180.667 -147 -252v-1c-165.333 -176 -257.333 -294 -276 -354
c-18.667 -72.667 -34.667 -144.667 -48 -216c0 -64 41.667 -98.333 125 -103c78.667 11.333 157 25 235 41c19.333 0 37.333 -1.33301 54 -4c4 47.333 14.667 89 32 125c23.333 48 51.333 72 84 72z" />
    <glyph glyph-name="three" unicode="3" horiz-adv-x="1073" 
d="M941 360c0.666992 -260.667 -135 -390.998 -407 -390.998c-82.667 0 -148.334 13 -197.001 39c-111.333 47.333 -180.333 138.666 -207 273.999c72.667 94.667 95 194 67 298c26.667 51.333 75.334 74.333 146.001 69c83.333 -7.33301 130.333 -47 141 -119
c4 -35.333 2 -70 -6 -104c-10.667 -49.333 -33.667 -97.333 -69 -144c0 -32.667 41.667 -48.667 125 -48c83.333 0 125 42.333 125 127v513c-110 1.33301 -165 54.666 -165 159.999c0 80 55 120.667 165 122v362c0 84.667 -41.667 127.334 -125 128.001
c-83.333 0 -125 -16.333 -125 -49c35.333 -46.667 58.333 -94.667 69 -144c8 -34 10 -68.667 6 -104c-10.667 -72 -57.667 -111.667 -141 -119c-70.667 -5.33301 -119.334 17.667 -146.001 69c28 104 5.66699 203.333 -67 298c26.667 135.333 95.667 226.666 207 273.999
c48.667 26 114.334 39 197.001 39c272 0 407.667 -130.333 407 -391c-20 -75.333 -35.333 -164.333 -46 -267c-11.333 -108.667 -47.333 -188 -108 -238c60.667 -50.667 94 -141.334 100 -272.001c5.33301 -131.333 23.333 -258.666 54 -381.999z" />
    <glyph glyph-name="four" unicode="4" horiz-adv-x="1073" 
d="M866 118c0 -32.667 -24 -60.5 -72 -83.5s-105.667 -34.5 -173 -34.5h-7c-65.333 0.666992 -121.333 12 -168 34c-48 23.333 -72 51.333 -72 84s24 60.334 72 83.001c10 5.33301 21 10 33 14v241h-251c-117.333 0 -176 53.333 -176 160c0 8 20.667 98.333 62 271l125 520
l79 316c22.667 90.667 67.334 137 134.001 139h187c81.333 0 122 -56.667 122 -170c-50 -253.333 -75 -507 -75 -761c0 -72 2 -143.667 6 -215c44.667 4.66699 94 12 148 22c117.333 0 176 -40.667 176 -122c0 -106.667 -58.667 -160 -176 -160h-125
c10 -79.333 22 -158.666 36 -237.999c15.333 -4.66699 29.666 -10.334 42.999 -17.001c48 -22.667 72 -50.334 72 -83.001zM343 718c42.667 -4 88 -6.33301 136 -7v669c-60 -156 -95 -269.167 -105 -339.5s-20.333 -177.833 -31 -322.5z" />
    <glyph glyph-name="five" unicode="5" horiz-adv-x="1073" 
d="M199 1108c-3.33301 206.667 -26.3301 391.668 -68.9971 555.001l3 43c12 104 69.667 156 173 156h457c117.333 0 176 -53.333 176 -160c0 -81.333 -58.667 -122 -176 -122c-80.667 15.333 -151.667 24.333 -213 27l-42 1c-35.333 0 -67.333 -2 -96 -6v-333
c35.333 4 76.666 6 123.999 6c270 0 405 -121.667 405 -365c-46.667 -80.667 -70 -171 -70 -271c0 -99.333 23.333 -208.333 70 -327c0 -228 -135.667 -342.333 -407 -343c-110 0 -199.833 26.5 -269.5 79.5s-114.5 130.833 -134.5 233.5c52.667 68 79 138.667 79 212
c0 28.667 -4 57.334 -12 86.001c24 46.667 66 70 126 70l19 -1c49.333 -4 85.5 -19 108.5 -45s34.5 -57.333 34.5 -94c0 -26 -6.33301 -58.333 -19 -97s-32 -77.334 -58 -116.001c0 -32.667 42 -51.667 126 -57c83.333 0 125 19 125 57
c-26.667 41.333 -45.834 82.666 -57.501 123.999s-17.5 94 -17.5 158c0 124 25 250.333 75 379c0 38 -41.333 57 -124 57c-28.667 0 -52.334 -2.33301 -71.001 -7c9.33301 -33.333 14 -65.333 14 -96l-2 -33c-10.667 -72 -55.667 -111.667 -135 -119
c-85.333 7.33301 -133 47 -143 119l-2 35z" />
    <glyph glyph-name="six" unicode="6" horiz-adv-x="1073" 
d="M943 312c0 -228.667 -135.334 -343.001 -406.001 -343.001c-50.667 0 -94 6 -130 18c-185.333 38 -277.666 164.333 -276.999 379c42.667 163.333 65.667 348.333 69 555v27c-3.33301 206.667 -26.333 391.667 -69 555c-0.666992 260.667 135.333 391 408 391
c82.667 0 148.334 -13 197.001 -39c112 -47.333 181.333 -138.666 208 -273.999c-72.667 -94.667 -95 -194 -67 -298c-26.667 -51.333 -75.667 -74.333 -147 -69c-83.333 7.33301 -130.333 47 -141 119c-4 35.333 -2 70 6 104c10.667 49.333 33.667 97.333 69 144
c0 32.667 -41.667 48.667 -125 48c-83.333 0 -125 -42.333 -125 -127v-393c35.333 4 76.666 6 123.999 6c270.667 0 406 -121.667 406 -365c-94 -108.667 -94 -254.667 0 -438zM591.999 456.999c-20.667 107.333 2.00098 219.001 68.001 335.001c0 38 -41.333 57 -124 57
c-80 0 -121 -18 -123 -54v-504c0 -38 40.667 -57 122 -57h2c82 0 123 19 123 57c-34.667 53.333 -57.334 108.666 -68.001 165.999z" />
    <glyph glyph-name="seven" unicode="7" horiz-adv-x="1073" 
d="M381 931c0 32.667 23.999 60.3359 71.999 83.0029c38 18.667 82.667 29.667 134 33c38.667 181.333 65.334 365.666 80.001 552.999c-42.667 7.33301 -94.667 9.66602 -156 6.99902s-132.666 -11.667 -213.999 -27c-117.333 0 -176 40.667 -176 122
c0 106.667 58.667 160 176 160h485c117.333 0 176 -53.333 176 -160c0 -12.667 -54.333 -241 -163 -685l6 -3c48 -22.667 72 -50.334 72 -83.001s-24 -60.667 -72 -84c-16.667 -7.33301 -34.334 -13.666 -53.001 -18.999l-152 -617l23 -10c48 -22.667 72 -50.334 72 -83.001
s-24 -60.5 -72 -83.5s-106 -34.5 -174 -34.5s-126 11.5 -174 34.5s-72 50.833 -72 83.5s24 60.334 72 83.001c12 6 24.667 11.333 38 16c90.667 197.333 164.667 399 222 605c-28.667 5.33301 -54.667 13.666 -78 24.999c-48 23.333 -72 51.333 -72 84z" />
    <glyph glyph-name="eight" unicode="8" horiz-adv-x="1073" 
d="M662 1581c0 32.667 -42 49 -126 49h-2c-83.333 0 -125 -16.333 -125 -49c103.333 -137.333 103.333 -284 0 -440c0 -32.667 42 -49 126 -49c84.667 0 127 16.333 127 49c-103.333 156 -103.333 302.667 0 440zM662 720c0 32.667 -42 49 -126 49h-2
c-83.333 0 -125 -16.333 -125 -49c103.333 -137.333 103.333 -284 0 -440c0 -32.667 42 -49 126 -49c84.667 0 127 16.333 127 49c-103.333 156 -103.333 302.667 0 440zM941 362c0 -162.667 -44.001 -273.666 -132.001 -332.999
c-55.333 -37.333 -141.666 -57.333 -258.999 -60h-24c-104 0 -184.667 16 -242 48c-102.667 55.333 -154 170.333 -154 345c94 101.333 94 214.333 0 339c0 122.667 51.667 209.334 155 260.001c-103.333 50.667 -155 137.334 -155 260.001c94 102.667 94 196.334 0 281.001
c0 180 55 297 165 351c76 38 154.333 57 235 57c74.667 0 150.667 -16.333 228 -49c122 -50.667 183 -170.334 183 -359.001c-94 -84.667 -94 -178.334 0 -281.001c0 -122.667 -51.667 -209.334 -155 -260.001c103.333 -50.667 155 -137.334 155 -260.001
c-94 -124.667 -94 -237.667 0 -339z" />
    <glyph glyph-name="nine" unicode="9" horiz-adv-x="1073" 
d="M130 1551c0 228.667 135.334 343.001 406.001 343.001c50.667 0 94 -6 130 -18c185.333 -38 277.666 -164.333 276.999 -379c-42.667 -163.333 -65.667 -348.333 -69 -555v-27c3.33301 -206.667 26.333 -391.667 69 -555c0.666992 -260.667 -135.333 -391 -408 -391
c-82.667 0 -148.334 13 -197.001 39c-112 47.333 -181.333 138.666 -208 273.999c72.667 94.667 95 194 67 298c26.667 51.333 75.667 74.333 147 69c83.333 -7.33301 130.333 -47 141 -119c4 -35.333 2 -70 -6 -104c-10.667 -49.333 -33.667 -97.333 -69 -144
c0 -32.667 41.667 -48.667 125 -48c83.333 0 125 42.333 125 127v393c-35.333 -4 -76.666 -6 -123.999 -6c-270.667 0 -406 121.667 -406 365c94 108.667 94 254.667 0 438zM481.001 1406c20.667 -107.333 -2.00098 -219.001 -68.001 -335.001c0 -38 41.333 -57 124 -57
c80 0 121 18 123 54v504c0 38 -40.667 57 -122 57h-2c-82 0 -123 -19 -123 -57c34.667 -53.333 57.334 -108.666 68.001 -165.999z" />
    <glyph glyph-name="colon" unicode=":" horiz-adv-x="564" 
d="M447 67c0 -44.667 -54.333 -66.999 -163 -66.999c-109.333 0 -164 22.333 -164 67c37.333 65.333 37.333 129.666 0 192.999c0 44.667 54.667 67 164 67c108.667 0 163 -22.333 163 -67c-37.333 -60 -37.333 -124.333 0 -193zM447 1072
c0 -44.667 -54.333 -66.999 -163 -66.999c-109.333 0 -164 22.333 -164 67c37.333 65.333 37.333 129.666 0 192.999c0 44.667 54.667 67 164 67c108.667 0 163 -22.333 163 -67c-37.333 -60 -37.333 -124.333 0 -193z" />
    <glyph glyph-name="semicolon" unicode=";" horiz-adv-x="591" 
d="M358 -294c-2.66699 -12 -13.332 -21.999 -31.999 -29.999c-22 -4.66699 -43.667 -4.33398 -65 0.999023c-20.667 4.66699 -39.334 14.334 -56.001 29.001c-12.667 15.333 -17.667 29.333 -15 42l63 252c-88.667 4 -133 26.333 -133 67
c37.333 65.333 37.333 129.666 0 192.999c0 44.667 54.667 67 164 67c108.667 0 163 -22.333 163 -67c-37.333 -60 -37.333 -124.333 0 -193zM447.002 1072c0 -44.667 -54.333 -66.999 -163 -66.999c-109.333 0 -164 22.333 -164 67c37.333 65.333 37.333 129.666 0 192.999
c0 44.667 54.667 67 164 67c108.667 0 163 -22.333 163 -67c-37.333 -60 -37.333 -124.333 0 -193z" />
    <glyph glyph-name="semicolon" unicode="&#x37e;" horiz-adv-x="591" 
d="M358 -294c-2.66699 -12 -13.332 -21.999 -31.999 -29.999c-22 -4.66699 -43.667 -4.33398 -65 0.999023c-20.667 4.66699 -39.334 14.334 -56.001 29.001c-12.667 15.333 -17.667 29.333 -15 42l63 252c-88.667 4 -133 26.333 -133 67
c37.333 65.333 37.333 129.666 0 192.999c0 44.667 54.667 67 164 67c108.667 0 163 -22.333 163 -67c-37.333 -60 -37.333 -124.333 0 -193zM447.002 1072c0 -44.667 -54.333 -66.999 -163 -66.999c-109.333 0 -164 22.333 -164 67c37.333 65.333 37.333 129.666 0 192.999
c0 44.667 54.667 67 164 67c108.667 0 163 -22.333 163 -67c-37.333 -60 -37.333 -124.333 0 -193z" />
    <glyph glyph-name="less" unicode="&#x3c;" horiz-adv-x="1185" 
d="M333 933c167.333 -14 385.333 -96.333 654 -247c50.667 -31.333 69.334 -93 56.001 -185v-4c-13.333 -90.667 -46 -122.334 -98 -95.001c-240.667 186.667 -488.667 301.667 -744 345c-54 2 -81 63.667 -81 185v2c0 121.333 27 183 81 185
c255.333 43.333 503.333 158 744 344c52 26.667 84.667 -5.33301 98 -96v-3c13.333 -91.333 -5.33398 -152.666 -56.001 -183.999c-268.667 -150.667 -486.667 -233 -654 -247z" />
    <glyph glyph-name="equal" unicode="=" horiz-adv-x="1047" 
d="M242 1029c-81.333 0 -122 13.334 -122 40.001c28 40 28 79.667 0 119c0 26.667 40.667 40 122 40h561c81.333 0 122 -13.333 122 -40c-28 -36.667 -28 -76.334 0 -119.001c0 -26.667 -40.667 -40 -122 -40h-561zM242 633.001c-81.333 0 -122 13.334 -122 40.001
c28 40 28 79.667 0 119c0 26.667 40.667 40 122 40h561c81.333 0 122 -13.333 122 -40c-28 -36.667 -28 -76.334 0 -119.001c0 -26.667 -40.667 -40 -122 -40h-561z" />
    <glyph glyph-name="greater" unicode="&#x3e;" horiz-adv-x="1047" 
d="M181 1180c-50.667 31.333 -69.667 92.666 -57 183.999l1 3c13.333 90.667 46 122.667 98 96c240.667 -186 488.667 -300.667 744 -344c53.333 -2 80 -63.667 80 -185v-2c0 -121.333 -26.667 -183 -80 -185c-255.333 -43.333 -503.333 -158.333 -744 -345
c-52 -27.333 -84.667 4.33398 -98 95.001l-1 4c-12.667 92 6.33301 153.667 57 185c268.667 150.667 486.667 233 654 247c-167.333 14 -385.333 96.333 -654 247z" />
    <glyph glyph-name="question" unicode="?" horiz-adv-x="1053" 
d="M325 931l1.00195 1c33.333 33.333 82.833 85.666 148.5 156.999s107.834 137 126.501 197c18.667 72.667 34.667 144.667 48 216c0 84.667 -41.667 127.334 -125 128.001c-83.333 0 -125 -16.333 -125 -49c35.333 -46.667 58.333 -94.667 69 -144
c8 -34 10 -68.667 6 -104c-10.667 -72 -57.667 -111.667 -141 -119c-70.667 -5.33301 -119.334 17.667 -146.001 69c28 104 5.66699 203.333 -67 298c26.667 135.333 95.667 226.666 207 273.999c48.667 26 114.334 39 197.001 39c272 0 407.667 -130.333 407 -391
c-18 -70.667 -32.667 -145.667 -44 -225c-7.33301 -53.333 -12.333 -84.666 -15 -93.999c-18.667 -96.667 -67.334 -180.667 -146.001 -252v-1c-96.667 -102.667 -168.334 -185.667 -215.001 -249v-1c-2.66699 -107.333 -57.334 -161 -164.001 -161
c-110.667 0 -165.667 57 -165 171c19.333 91.333 67 171.333 143 240zM188.002 257c0 44 53.667 66.001 161 66.001c108 0 162 -22 162 -66c-37.333 -62.667 -37.333 -126.334 0 -191.001c0 -44 -54 -66 -162 -66c-107.333 0 -161 22 -161 66
c37.333 68 37.333 131.667 0 191z" />
    <glyph glyph-name="at" unicode="@" horiz-adv-x="1483" 
d="M626 541c0 -25.333 27 -38 81 -38h1c54 0 81 12.667 81 38v332c-1.33301 23.333 -28.333 35 -81 35c-54.667 0 -82 -12.333 -82 -37c43.333 -76.667 58.333 -150.334 45 -221.001c-7.33301 -37.333 -22.333 -73.666 -45 -108.999zM1164 619
c1.33301 107.333 32.3359 161 93.0029 161h1c60.667 0 91.667 -53.667 93 -161v-41c0 -384.667 -203.333 -577 -610 -577c-407.333 0 -611 188.333 -611 565c94 258 94 511.667 0 761c0 385.333 203.667 578 611 578c406.667 0 610 -188.333 610 -565v-102h-1v-75
c0 -172 -89 -258 -267 -258h-152c4.66699 -116 19.334 -221 44.001 -315c0.666992 -141.333 -60 -224.333 -182 -249c-24 -8 -52.667 -12 -86 -12c-178 0 -267 75.333 -267 226c62 120.667 62 216.667 0 288c0 160 89 240 267 240c31.333 0 58.666 -1.33301 81.999 -4v259
c0 56 -27.333 84 -82 84c-55.333 0 -83 -10.667 -83 -32c23.333 -30.667 38.666 -62.334 45.999 -95.001c5.33301 -22 6.66602 -44.667 3.99902 -68c-7.33301 -47.333 -38.333 -73.666 -93 -78.999c-47.333 -3.33301 -79.666 12 -96.999 46c18.667 68.667 4 134 -44 196
c17.333 89.333 63 149.333 137 180c32 17.333 75.333 26 130 26c179.333 0 268.666 -85.667 267.999 -257c-20.667 -79.333 -34.334 -166 -41.001 -260h149c54 0 81 28 81 84v177c0 260.667 -141 391 -423 391c-282.667 0 -424 -134.667 -424 -404
c94 -249.333 94 -503 0 -761c0 -260.667 141.333 -391 424 -391c282 0 423 134.333 423 403v41z" />
    <glyph glyph-name="A" unicode="A" horiz-adv-x="1255" 
d="M721 118c0 32.667 23.999 60.333 71.999 83c11.333 6 23.333 11 36 15l-36 179h-332l-37 -179c12.667 -4.66699 24.667 -9.66699 36 -15c48 -22.667 72 -50.334 72 -83.001s-24 -60.667 -72 -84c-46 -22 -100.667 -33.333 -164 -34h-16
c-65.333 0.666992 -121.333 12 -168 34c-48 23.333 -72 51.333 -72 84s24 60.334 72 83.001c13.333 6.66699 27.333 12.334 42 17.001c160.667 466.667 261.334 947 302.001 1441c-1.33301 0 -2.33301 0.333008 -3 1c-48 23.333 -72 51.333 -72 84s24 60.334 72 83.001
c47.333 23.333 105 35 173 35h2c67.333 0 125 -11.5 173 -34.5s72 -50.833 72 -83.5s-24 -60.667 -72 -84c-1.33301 -0.666992 -2.66602 -1 -3.99902 -1c40.667 -494 141 -974.333 301 -1441c15.333 -4.66699 29.666 -10.334 42.999 -17.001
c48 -22.667 72 -50.334 72 -83.001s-24 -60.667 -72 -84c-46.667 -22 -102.667 -33.333 -168 -34h-6c-68 0 -126 11.5 -174 34.5s-72 50.833 -72 83.5zM507.999 660.999h238.002c-66.667 180 -106.334 438 -119.001 774c-12.667 -336 -52.334 -594 -119.001 -774z" />
    <glyph glyph-name="B" unicode="B" horiz-adv-x="1145" 
d="M131 1744c0 32.667 24 60.332 72 82.999c37.333 18 80.333 29 129 33c7.33301 1.33301 15.333 2 24 2h311c223.333 0 347.333 -103.667 372 -311v-3c-103.333 -135.333 -104.666 -280.333 -3.99902 -435c-18 -82 -67 -142.667 -147 -182c80 -40 129 -101 147 -183
c-100.667 -154.667 -99.334 -299.667 3.99902 -435v-3c-24.667 -206.667 -148.667 -310 -372 -310h-311c-8.66699 0 -16.667 0.333008 -24 1c-48.667 4.66699 -91.667 15.667 -129 33c-48 23.333 -72 51.333 -72 84s24 60.334 72 83.001c12 6 25 11.333 39 16
c44 237.333 66.333 475.333 67 714c-0.666992 238 -23 476 -67 714c-14 4 -27 9 -39 15c-48 23.333 -72 51.333 -72 84zM761 1548c0 32.667 -41.001 49 -123.001 49h-2c-81.333 0 -122 -16.333 -122 -49v-435c0 -32.667 41 -49 123 -49c82.667 0 124 16.333 124 49
c-66 100.667 -88.667 197.667 -68 291c10.667 49.333 33.334 97.333 68.001 144zM692.999 456.998c-20.667 93.333 2.00098 190.333 68.001 291c0 32.667 -41.333 49 -124 49c-82 0 -123 -16.333 -123 -49v-435c0 -32.667 40.667 -49 122 -49h2c82 0 123 16.333 123 49
c-34.667 46.667 -57.334 94.667 -68.001 144z" />
    <glyph glyph-name="C" unicode="C" horiz-adv-x="1023" 
d="M392 360c0 -84.667 41.667 -127.171 125 -127.504s125 15.834 125 48.501c-35.333 46.667 -58.333 94.667 -69 144c-8 34 -10 68.667 -6 104c10.667 72 57.667 111.667 141 119c70.667 5.33301 119.334 -17.667 146.001 -69c-28 -104 -5.66699 -203.333 67 -298
c-26.667 -135.333 -95.667 -226.666 -207 -273.999c-48.667 -26 -114.334 -39 -197.001 -39c-272 0 -407.667 130.333 -407 391c42.667 163.333 65.667 348.333 69 555v33c-3.33301 206.667 -26.333 391.667 -69 555c-0.666992 260.667 135 391 407 391
c82.667 0 148.334 -13 197.001 -39c111.333 -47.333 180.333 -138.666 207 -273.999c-72.667 -94.667 -95 -194 -67 -298c-26.667 -51.333 -75.334 -74.333 -146.001 -69c-83.333 7.33301 -130.333 47 -141 119c-4 35.333 -2 70 6 104c10.667 49.333 33.667 97.333 69 144
c0 32.667 -41.667 48.834 -125 48.501s-125 -42.833 -125 -127.5v-1141z" />
    <glyph glyph-name="D" unicode="D" horiz-adv-x="1155" 
d="M130 118c0 32.667 24 60.333 72 83c12 6 25 11.333 39 16c88.667 476 88.667 952 0 1428c-14 4 -27 9 -39 15c-48 23.333 -72 51.333 -72 84s24 60.334 72 83.001c36.667 18 79.667 29 129 33c7.33301 1.33301 15 2 23 2h39l275 -1c251.333 0 377 -130.333 377 -391
c-100.667 -358.667 -100.667 -718.334 0 -1079c0 -260 -125.667 -390 -377 -390c-4 0 -10 -0.333008 -18 -1h-295c-8.66699 -0 -16.667 0.333008 -24 1c-48.667 4.66699 -91.667 15.667 -129 33c-48 23.333 -72 51.333 -72 84zM762 1470c0 84.667 -41 126.999 -123 126.999
h-124v-1332h124c82 0 123 42 123 126c-100.667 360.667 -100.667 720.334 0 1079z" />
    <glyph glyph-name="E" unicode="E" horiz-adv-x="1062" 
d="M692 1862c48 0 85.665 -9.66699 112.998 -29l1 1c4 4.66699 8 8.66699 12 12c3.33301 2 6.33301 4 9 6c2.66699 1.33301 5.66699 2.66602 9 3.99902c5.33301 2.66699 10.666 4.33398 15.999 5.00098c1.33301 0.666992 3 1 5 1h5c3.33301 0 6.33301 -0.333008 9 -1
c4 -0.666992 8 -1.66699 12 -3c3.33301 -0.666992 6.33301 -2 9 -4l4 -2c1.33301 -0.666992 2.33301 -1.33398 3 -2.00098l6 -4l2 -2c7.33301 -6 14 -13.667 20 -23c2.66699 -3.33301 5.33398 -7 8.00098 -11c0.666992 -2.66699 1.66699 -5 3 -7c2 -2.66699 4 -6 6 -10
c0 -0.666992 0.333008 -1.66699 1 -3l4 -8l3 -7l10 -27l4 -16c0.666992 -3.33301 1.33398 -6.33301 2.00098 -9l3 -13c3.33301 -16 5.66602 -32.667 6.99902 -50c0 -2.66699 0.333008 -5.66699 1 -9v-10c0.666992 -3.33301 1 -6.66602 1 -9.99902v-15
c0 -12 -0.333008 -23.667 -1 -35s-1.66699 -22.333 -3 -33c-1.33301 -9.33301 -3 -18.333 -5 -27c0 -1.33301 -0.333008 -2.66602 -1 -3.99902c-1.33301 -8.66699 -3.33301 -17 -6 -25l-2 -8c-0.666992 -2.66699 -1.66699 -5.33398 -3 -8.00098l-3 -8l-4 -12
c-2 -4.66699 -4.33301 -9.33398 -7 -14.001c-0.666992 -1.33301 -1 -2.66602 -1 -3.99902c-5.33301 -10.667 -11 -20 -17 -28c-3.33301 -4.66699 -6.66602 -8.66699 -9.99902 -12c-3.33301 -4 -6.66602 -7.33301 -9.99902 -10c-6 -5.33301 -12.333 -9.66602 -19 -12.999
c-3.33301 -1.33301 -6.66602 -2.33301 -9.99902 -3c-0.666992 0 -1.33398 -0.333008 -2.00098 -1c-4.66699 -0.666992 -9.33398 -1 -14.001 -1c-6 0 -11.667 0.666992 -17 2c-1.33301 0 -3 0.333008 -5 1c-12 4.66699 -23.333 13 -34 25c-6 6.66699 -11.667 14.667 -17 24
l-4 6c-2 4.66699 -4.33301 9.33398 -7 14.001c-0.666992 2 -1.66699 4.33301 -3 7c-1.33301 2 -2.33301 4.33301 -3 7c-4 9.33301 -7.33301 18.666 -10 27.999c-5.33301 16 -9.33301 32.667 -12 50l-2 14c-1.33301 7.33301 -2.33301 15 -3 23v12c-16 -2 -33.667 -3 -53 -3
c-93.333 18.667 -186.666 33.667 -279.999 45v-592c76.667 10.667 153.334 23.667 230.001 39c113.333 0 170 -40.667 170 -122c0 -106.667 -56.667 -160 -170 -160h-230v-553c93.333 11.333 186.666 26.333 279.999 45c19.333 0 37 -1.33301 53 -4
c2.66699 54 13.667 101.333 33 142c23.333 48 51.333 72 84 72s60.5 -24 83.5 -72s34.5 -106 34.5 -174s-11.5 -126 -34.5 -174s-50.833 -72 -83.5 -72c-20.667 0 -39.667 9.66699 -57 29c-27.333 -19.333 -65 -29 -113 -29h-422c-91.333 0 -138 53.667 -140 161
c100.667 513.333 100.667 1023.67 0 1531c0 113.333 40.667 170 122 170h440z" />
    <glyph glyph-name="F" unicode="F" horiz-adv-x="1168" 
d="M130 118c0 32.667 23.998 60.333 71.998 83c14 6.66699 29 12.667 45 18c89.333 493.333 85.666 984.333 -11.001 1473c0 113.333 40.667 170 122 170h440c48 0 85.667 -9.66699 113 -29c17.333 19.333 36.333 29 57 29c32.667 0 60.5 -24 83.5 -72s34.5 -106 34.5 -174
s-11.5 -126 -34.5 -174s-50.833 -72 -83.5 -72s-60.667 24 -84 72c-19.333 40 -30.333 87 -33 141c-16 -2 -33.667 -3 -53 -3c-93.333 18.667 -186.666 33.667 -279.999 45v-592c76.667 10.667 153.334 23.667 230.001 39c113.333 0 170 -40.667 170 -122
c0 -106.667 -56.667 -160 -170 -160h-230v-576c10.667 -3.33301 21.334 -7.66602 32.001 -12.999c48 -22.667 72 -50.334 72 -83.001s-24 -60.5 -72 -83.5s-106 -34.5 -174 -34.5s-126 11.5 -174 34.5s-72 50.833 -72 83.5z" />
    <glyph glyph-name="G" unicode="G" 
d="M517 -32c-272 0 -407.667 130.336 -407 391.003c42.667 163.333 65.667 348.333 69 555v33c-3.33301 206.667 -26.333 391.667 -69 555c-0.666992 260.667 135 391 407 391c82.667 0 148.334 -13 197.001 -39c111.333 -47.333 180.333 -138.666 207 -273.999
c-72.667 -94.667 -95 -194 -67 -298c-26.667 -51.333 -75.334 -74.333 -146.001 -69c-83.333 7.33301 -130.333 47 -141 119c-4 35.333 -2 70 6 104c10.667 49.333 33.667 97.333 69 144c0 32.667 -41.667 49 -125 49c-83.333 -0.666992 -125 -43.334 -125 -128.001v-1141
c0 -84.667 41.667 -127.334 125 -128.001c83.333 0 125 16.333 125 49c-35.333 46.667 -47.333 159 -36 337c0 41.333 2.33301 82.333 7 123c-71.333 15.333 -107 61.666 -107 138.999c0 76 35 122 105 138c33.333 11.333 66 34.666 98 69.999h2
c90 -26.667 136.333 -95.334 139 -206.001c-2 -16.667 -3 -35.667 -3 -57c0 -98 24.667 -279.333 74 -544c-26.667 -135.333 -95.667 -226.666 -207 -273.999c-72 -25.333 -137.667 -38.333 -197 -39z" />
    <glyph glyph-name="H" unicode="H" horiz-adv-x="1283" 
d="M130 1744c0 32.667 24 60.4971 72 83.4971s106 34.5 174 34.5s126 -11.5 174 -34.5s72 -50.833 72 -83.5s-24 -60.667 -72 -84c-10.667 -4.66699 -21.334 -9 -32.001 -13v-583h320c-6.66699 192.667 -28 385.667 -64 579c-15.333 4.66699 -29.666 10.334 -42.999 17.001
c-48 23.333 -72 51.333 -72 84s24 60.5 72 83.5s106 34.5 174 34.5h7c64.667 -0.666992 120.334 -12.334 167.001 -35.001c48 -22.667 72 -50.334 72 -83.001s-24 -60.667 -72 -84c-10.667 -4.66699 -21.334 -9 -32.001 -13v-1433
c10.667 -3.33301 21.334 -7.66602 32.001 -12.999c48 -22.667 72 -50.334 72 -83.001s-24 -60.5 -72 -83.5s-106 -34.5 -174 -34.5h-7c-65.333 0.666992 -121 12 -167 34c-48 23.333 -72 51.333 -72 84s24 60.334 72 83.001c13.333 6.66699 27.666 12.334 42.999 17.001
c36 193.333 57.333 386.666 64 579.999h-320v-584c10.667 -3.33301 21.334 -7.66602 32.001 -12.999c48 -22.667 72 -50.334 72 -83.001s-24 -60.667 -72 -84c-46.667 -22 -102.334 -33.333 -167.001 -34h-14c-65.333 0.666992 -121 12 -167 34
c-48 23.333 -72 51.333 -72 84s24 60.334 72 83.001c13.333 6.66699 27.666 12.334 42.999 17.001c88 475.333 88 950.333 0 1425c-15.333 4.66699 -29.666 10.334 -42.999 17.001c-48 23.333 -72 51.333 -72 84z" />
    <glyph glyph-name="I" unicode="I" horiz-adv-x="758" 
d="M130 118c0 32.667 24.001 60.3311 72.001 82.998c13.333 6.66699 27.666 12.334 42.999 17.001c88 475.333 88 950.333 0 1425c-15.333 4.66699 -29.666 10.334 -42.999 17.001c-48 23.333 -72 51.333 -72 84s24 60.334 72 83.001
c39.333 19.333 85.333 30.666 138 33.999c5.33301 0.666992 11.333 1 18 1h18c68 0 126 -11.5 174 -34.5s72 -50.833 72 -83.5s-24 -60.667 -72 -84c-10.667 -4.66699 -21.334 -9 -32.001 -13v-1433c10.667 -3.33301 21.334 -7.66602 32.001 -12.999
c48 -22.667 72 -50.334 72 -83.001s-24 -60.667 -72 -84c-46.667 -22 -102.334 -33.333 -167.001 -34h-14c-65.333 0.666992 -121 12 -167 34c-48 23.333 -72 51.333 -72 84z" />
    <glyph glyph-name="J" unicode="J" horiz-adv-x="1080" 
d="M456 1744c0 32.667 24.001 60.501 72.001 83.501s106 34.5 174 34.5s126 -11.5 174 -34.5s72 -50.833 72 -83.5s-24 -60.667 -72 -84c-14 -6.66699 -29 -12.334 -45 -17.001c-89.333 -436.667 -86 -904 10 -1402c-21.333 -59.333 -39 -101 -53 -125
c-64.667 -98.667 -181.334 -148 -350.001 -148c-83.333 0 -149.666 13 -198.999 39c-112 47.333 -181.667 137.666 -209 270.999v3c44 56.667 69.667 115 77 175c2 16.667 2.33301 33.334 1 50.001c30 58.667 82.667 81 158 67c74 -13.333 114.667 -52.333 122 -117
c-2 -10.667 -4.33301 -21 -7 -31c-10.667 -49.333 -33.667 -97.333 -69 -144c0 -32.667 41.333 -48.667 124 -48c84.667 0 127 42.333 127 127v1286c-12.667 4 -24.334 8.66699 -35.001 14c-48 23.333 -72 51.333 -72 84z" />
    <glyph glyph-name="K" unicode="K" horiz-adv-x="1269" 
d="M732 118c0 32.667 24 60.3281 72 82.9951c0.666992 0.666992 1.66699 1.33398 3 2.00098c-54.667 172.667 -120 339.334 -196 500.001l-93 -180v-309c10.667 -3.33301 21.334 -7.66602 32.001 -12.999c48 -22.667 72 -50.334 72 -83.001s-24 -60.5 -72 -83.5
s-106 -34.5 -174 -34.5s-126 11.5 -174 34.5s-72 50.833 -72 83.5s24 60.334 72 83.001c13.333 6.66699 27.666 12.334 42.999 17.001c88 475.333 88 950.333 0 1425c-15.333 4.66699 -29.666 10.334 -42.999 17.001c-48 23.333 -72 51.333 -72 84s24 60.334 72 83.001
c39.333 19.333 85.333 30.666 138 33.999c5.33301 0.666992 11.333 1 18 1h18c68 0 126 -11.5 174 -34.5s72 -50.833 72 -83.5s-24 -60.667 -72 -84c-10.667 -4.66699 -21.334 -9 -32.001 -13v-671c117.333 216 213.666 443.667 288.999 683
c-1.33301 0 -2.33301 0.333008 -3 1c-48 23.333 -72 51.333 -72 84s24 60.334 72 83.001c42 20.667 92.333 32 151 34c6.66699 0.666992 13.334 1 20.001 1h3c68 0 126 -11.5 174 -34.5s72 -50.833 72 -83.5s-24 -60.667 -72 -84c-18 -8.66699 -37.333 -15.667 -58 -21
l-6 -12l-359 -696l359 -696c2 -4.66699 4 -9 6 -13c20.667 -5.33301 40 -12.333 58 -21c48 -22.667 72 -50.334 72 -83.001s-24 -60.5 -72 -83.5s-106 -34.5 -174 -34.5h-3c-6.66699 -0.666992 -13.667 -0.666992 -21 0c-58 2.66699 -108 14 -150 34
c-48 23.333 -72 51.333 -72 84z" />
    <glyph glyph-name="L" unicode="L" horiz-adv-x="1127" 
d="M130 1744c0 32.667 24.001 60.334 72.001 83.001c46 22 101.333 33.667 166 35h8c68 0 126 -11.5 174 -34.5s72 -50.833 72 -83.5s-24 -60.667 -72 -84c-10.667 -4.66699 -21.667 -9 -33 -13v-1410c93.333 11.333 186.666 26.333 279.999 45c19.333 0 37 -1.33301 53 -4
c2.66699 54 13.667 101.333 33 142c23.333 48 51.333 72 84 72s60.5 -24 83.5 -72s34.5 -106 34.5 -174s-11.5 -126 -34.5 -174s-50.833 -72 -83.5 -72c-20.667 0 -39.667 9.66699 -57 29c-27.333 -19.333 -65 -29 -113 -29h-440c-81.333 0 -122 56.667 -122 170
c97.333 491.333 100.333 982.666 9 1474c-14.667 4.66699 -28.667 10 -42 16c-48 23.333 -72 51.333 -72 84z" />
    <glyph glyph-name="M" unicode="M" horiz-adv-x="1630" 
d="M1568 118c0 -32.667 -24.001 -60.6709 -72.001 -84.0039c-46.667 -22 -103 -33.333 -169 -34h-14c-64 0.666992 -119 12 -165 34c-48 23.333 -72 51.333 -72 84s24 60.334 72 83.001c12.667 6.66699 26.334 12.334 41.001 17.001c70.667 380.667 84.667 761.334 42 1142
c-112.667 -384 -184.334 -767 -215.001 -1149c-2 -107.333 -57.333 -161 -166 -161h-2c-108.667 0 -164 53.667 -166 161c-26 320.667 -80.667 642.334 -164 965.001v-962c10.667 -3.33301 21.334 -7.66602 32.001 -12.999c48 -22.667 72 -50.334 72 -83.001
s-24 -60.5 -72 -83.5s-106 -34.5 -174 -34.5h-7c-65.333 0.666992 -121 12 -167 34c-48 23.333 -72 51.333 -72 84s24 60.334 72 83.001c13.333 6.66699 27.666 12.334 42.999 17.001c91.333 491.333 88.333 982.666 -9 1474c0 113.333 40.667 170 122 170h150
c56.667 0.666992 96.334 -40 119.001 -122c135.333 -539.333 209.333 -994.666 222 -1366c12.667 371.333 86.667 826.666 222 1366c22 81.333 61.333 122 118 122h113c106.667 0 160 -56.667 160 -170v-1477c12 -4 23.333 -8.66699 34 -14
c48 -22.667 72 -50.334 72 -83.001z" />
    <glyph glyph-name="N" unicode="N" horiz-adv-x="1283" 
d="M130 1744c0 32.667 24.001 60.499 72.001 83.499s106 34.5 174 34.5h6c65.333 -0.666992 121.333 -12.334 168 -35.001c48 -22.667 72 -50.334 72 -83.001s-24 -60.667 -72 -84c-10.667 -4.66699 -21.667 -9 -33 -13v-188c80 -262 186.333 -512 319 -750
c4 74 6 148 6 222c0 238 -22.333 475.667 -67 713c-14.667 4.66699 -28.667 10 -42 16c-48 23.333 -72 51.333 -72 84s24 60.334 72 83.001c47.333 23.333 105 35 173 35h1c68 0 126 -11.5 174 -34.5s72 -50.833 72 -83.5s-24 -60.667 -72 -84
c-10.667 -4.66699 -21.667 -9 -33 -13v-1432c11.333 -4 22.333 -8.66699 33 -14c48 -22.667 72 -50.334 72 -83.001s-24 -60.5 -72 -83.5s-106 -34.5 -174 -34.5s-126 11.5 -174 34.5s-72 50.833 -72 83.5s24 60.334 72 83.001c13.333 6.66699 27.333 12.334 42 17.001
c5.33301 26 10 52 14 78l-272 583v-664c11.333 -4 22.333 -8.66699 33 -14c48 -22.667 72 -50.334 72 -83.001s-24 -60.667 -72 -84c-46.667 -22 -102.667 -33.333 -168 -34h-14c-64.667 0.666992 -120 12 -166 34c-48 23.333 -72 51.333 -72 84s24 60.334 72 83.001
c13.333 6.66699 27.333 12.334 42 17.001c44.667 238 67 475.667 67 713c0 148.667 -8.66699 297 -26 445l-1 2l1 1c-10.667 88 -24.334 176.333 -41.001 265c-14.667 4.66699 -28.667 10 -42 16c-48 23.333 -72 51.333 -72 84z" />
    <glyph glyph-name="O" unicode="O" 
d="M921 361c0 -262 -135 -393 -405 -393c-270.667 0.666992 -406 131.667 -406 393c94 380 94 760 0 1140c0 261.333 135.333 392 406 392c270 0 405 -130.667 405 -392c-94 -380 -94 -760 0 -1140zM639 1501c0 84.667 -41 127 -123 127h-2
c-81.333 0 -122 -42.333 -122 -127c100.667 -380 100.667 -760 0 -1140c0 -84.667 41 -127 123 -127c82.667 0 124 42.333 124 127c-100.667 380 -100.667 760 0 1140z" />
    <glyph glyph-name="P" unicode="P" horiz-adv-x="1105" 
d="M130 118c0 32.667 23.998 60.333 71.998 83c13.333 6.66699 27.666 12.334 42.999 17.001c91.333 491.333 88.333 982.666 -9 1474v9c2 107.333 48.667 161 140 161h7l259 -1c157.333 0 265.333 -51.333 324 -154c26.667 -41.333 43.667 -93 51 -155v-3
c-103.333 -135.333 -104.666 -280.333 -3.99902 -435c-21.333 -149.333 -109.666 -248 -264.999 -296c-43.333 -13.333 -106.333 -20 -189 -20h-41v-584c10.667 -3.33301 21.334 -7.66602 32.001 -12.999c48 -22.667 72 -50.334 72 -83.001s-24 -60.5 -72 -83.5
s-106 -34.5 -174 -34.5h-18c-6.66699 -0 -12.667 0.333008 -18 1c-52.667 3.33301 -98.667 14.333 -138 33c-48 23.333 -72 51.333 -72 84zM759.998 1549c0 32.667 -41.001 49 -123.001 49h-2c-64.667 0 -103.667 -10.333 -117 -31v-471c12.667 -20.667 52 -31 118 -31
c82.667 0 124 16.333 124 49c-66 100.667 -88.667 197.667 -68 291c10.667 49.333 33.334 97.333 68.001 144z" />
    <glyph glyph-name="Q" unicode="Q" 
d="M921 -103c107.333 -0.666992 161.001 -37.999 161.001 -111.999s-53.667 -111.667 -161 -113c-166.667 0 -281.334 15.667 -344.001 47c-81.333 39.333 -123 119 -125 239c-228 16 -342 146.667 -342 392c100.667 412 100.667 795 0 1149c0 262.667 135 394 405 394
c270.667 0 406 -131.333 406 -394c-100.667 -354 -100.667 -737 0 -1149c0 -234.667 -103 -364.334 -309 -389.001c39.333 -74 142.333 -95.333 309 -64zM639.001 1501c0 84.667 -41 127 -123 127h-2c-81.333 0 -122 -42.333 -122 -127
c100.667 -355.333 100.667 -735.333 0 -1140c0 -84.667 41 -127 123 -127c82.667 0 124 42.333 124 127c-100.667 404.667 -100.667 784.667 0 1140z" />
    <glyph glyph-name="R" unicode="R" horiz-adv-x="1224" 
d="M83 118c0 32.667 23.999 60.333 71.999 83c13.333 6.66699 27.666 12.334 42.999 17.001c91.333 491.333 88.333 982.666 -9 1474v9c2 107.333 48.667 161 140 161l266 -1c157.333 0 265.333 -51.333 324 -154c26.667 -41.333 43.667 -93 51 -155v-3
c-103.333 -135.333 -104.666 -280.333 -3.99902 -435c-18.667 -132 -89.667 -224.333 -213 -277c62.667 -210 143.667 -415 243 -615c20 -5.33301 38.667 -12.333 56 -21c48 -22.667 72 -50.334 72 -83.001s-24 -60.5 -72 -83.5s-106 -34.5 -174 -34.5s-126 11.5 -174 34.5
s-72 50.833 -72 83.5s24 60.334 72 83.001l8 4l-164 593h-77v-584c10.667 -3.33301 21.334 -7.66602 32.001 -12.999c48 -22.667 72 -50.334 72 -83.001s-24 -60.5 -72 -83.5s-106 -34.5 -174 -34.5h-18c-6.66699 -0 -12.667 0.333008 -18 1
c-52.667 3.33301 -98.667 14.333 -138 33c-48 23.333 -72 51.333 -72 84zM712.999 1549c0 32.667 -41.001 49 -123.001 49h-2c-64.667 0 -103.667 -10.333 -117 -31v-471c12.667 -20.667 52 -31 118 -31c82.667 0 124 16.333 124 49c-66 100.667 -88.667 197.667 -68 291
c10.667 49.333 33.334 97.333 68.001 144z" />
    <glyph glyph-name="S" unicode="S" 
d="M862 678c2.66699 -9.33301 7.66602 -40.667 14.999 -94c11.333 -79.333 26 -154.333 44 -225c0.666992 -260.667 -135 -391 -407 -391c-82.667 0 -148.334 13 -197.001 39c-111.333 47.333 -180.333 138.666 -207 273.999c72.667 94.667 95 194 67 298
c26.667 51.333 75.334 74.333 146.001 69c83.333 -7.33301 130.333 -47 141 -119c4 -35.333 2 -70 -6 -104c-10.667 -49.333 -33.667 -97.333 -69 -144c0 -32.667 41.667 -49 125 -49c83.333 0.666992 125 43.334 125 128.001c-13.333 71.333 -29.333 143.333 -48 216
c-18.667 60 -110.667 178 -276 354v1c-78.667 71.333 -127.334 155.333 -146.001 252c-2.66699 9.33301 -7.66699 40.666 -15 93.999c-11.333 79.333 -26 154.333 -44 225c-0.666992 260.667 135 391 407 391c82.667 0 148.334 -13 197.001 -39
c111.333 -47.333 180.333 -138.666 207 -273.999c-72.667 -94.667 -95 -194 -67 -298c-26.667 -51.333 -75.334 -74.333 -146.001 -69c-83.333 7.33301 -130.333 47 -141 119c-4 35.333 -2 70 6 104c10.667 49.333 33.667 97.333 69 144c0 32.667 -41.667 49 -125 49
c-83.333 -0.666992 -125 -43.334 -125 -128.001c13.333 -71.333 29.333 -143.333 48 -216c18.667 -60 60.834 -125.667 126.501 -197s115.167 -123.666 148.5 -156.999l1 -1c78.667 -71.333 127.334 -155.333 146.001 -252z" />
    <glyph glyph-name="T" unicode="T" horiz-adv-x="1149" 
d="M50 1616c0 68 11.4961 125.998 34.4961 173.998s50.833 72 83.5 72c20.667 0 39.334 -9.66699 56.001 -29c27.333 19.333 65.333 29 114 29h471c48 0 85.667 -9.66699 113 -29c17.333 19.333 36.333 29 57 29c32.667 0 60.5 -24 83.5 -72s34.5 -106 34.5 -174
s-11.5 -126 -34.5 -174s-50.833 -72 -83.5 -72s-60.667 24 -84 72c-19.333 40 -30.333 87 -33 141c-16 -2 -33.667 -3 -53 -3l-94 17v-1382c11.333 -4 22.333 -8.66699 33 -14c48 -22.667 72 -50.334 72 -83.001s-24 -60.5 -72 -83.5s-106 -34.5 -174 -34.5h-2
c-67.333 0 -124.666 11.333 -171.999 34c-48 23.333 -72 51.333 -72 84s24 60.334 72 83.001c12.667 6.66699 26.334 12.334 41.001 17.001c86.667 460.667 89.334 921.334 8.00098 1382c-37.333 -6 -74.333 -12.667 -111 -20c-19.333 0 -37 1 -53 3
c-3.33301 -54 -14.666 -101 -33.999 -141c-22.667 -48 -50.334 -72 -83.001 -72s-60.5 24 -83.5 72s-34.5 106 -34.5 174z" />
    <glyph glyph-name="U" unicode="U" horiz-adv-x="1253" 
d="M120 1744c0 32.667 23.9971 60.3291 71.9971 82.9961c46.667 22.667 103 34.334 169 35.001h14c64 -1.33301 119 -13 165 -35c48 -22.667 72 -50.334 72 -83.001s-24 -60.667 -72 -84c-10.667 -4.66699 -21.667 -9 -33 -13v-1287c0 -84 41 -126 123 -126
c82.667 0 127.334 42 134.001 126c60 275.333 80.667 523.333 62 744c-18 197.333 -42 377 -72 539c-15.333 4.66699 -29.666 10.334 -42.999 17.001c-48 23.333 -72 51.333 -72 84s24 60.334 72 83.001c46.667 22.667 103 34.334 169 35.001h14
c64 -1.33301 119 -13 165 -35c48 -22.667 72 -50.334 72 -83.001s-24 -60.667 -72 -84c-10.667 -4.66699 -21.667 -9 -33 -13v-1287c0 -261.333 -132 -392 -396 -392c-261.333 0.666992 -392 131.334 -392 392.001c65.333 275.333 88.333 523.333 69 744
c-18 197.333 -42 377 -72 539c-15.333 4.66699 -29.666 10.334 -42.999 17.001c-48 23.333 -72 51.333 -72 84z" />
    <glyph glyph-name="V" unicode="V" horiz-adv-x="1255" 
d="M967 1862c68 0 126.001 -11.5 174.001 -34.5s72 -50.833 72 -83.5s-24 -60.667 -72 -84c-13.333 -6 -27.666 -11.333 -42.999 -16c-160 -466.667 -260.333 -947 -301 -1441l4 -2c48 -22.667 72 -50.334 72 -83.001s-24 -60.667 -72 -84c-46 -22 -101 -33.333 -165 -34
h-18c-64 0.666992 -119 12 -165 34c-48 23.333 -72 51.333 -72 84s24 60.334 72 83.001c0.666992 0.666992 1.66699 1.33398 3 2.00098c-40.667 494 -141.334 974.333 -302.001 1441c-14.667 4.66699 -28.667 10 -42 16c-48 23.333 -72 51.333 -72 84s24 60.5 72 83.5
s106 34.5 174 34.5h10c63.333 -1.33301 118 -13 164 -35c48 -22.667 72 -50.334 72 -83.001s-24 -60.667 -72 -84c-10.667 -4.66699 -21.334 -9 -32.001 -13c120.667 -496.667 187 -903.334 199 -1220c12 316 78.333 722.667 199 1220c-12 4 -23 8.33301 -33 13
c-48 23.333 -72 51.333 -72 84s24 60.334 72 83.001c45.333 22 100 33.667 164 35h10z" />
    <glyph glyph-name="W" unicode="W" horiz-adv-x="1630" 
d="M130 1744c0 32.667 24 60.3311 72 82.998c46 22.667 101.667 34.334 167 35.001h14c64.667 -0.666992 120.334 -12.334 167.001 -35.001c48 -22.667 72 -50.334 72 -83.001s-24 -60.667 -72 -84c-10.667 -4.66699 -21.334 -9 -32.001 -13v-961
c83.333 322.667 138 644.334 164 965.001c2 107.333 57.333 161 166 161h2c108.667 0 164 -53.667 166 -161c30.667 -382 102.334 -765 215.001 -1149c42.667 380.667 28.667 761.334 -42 1142c-14.667 4.66699 -28.334 10 -41.001 16c-48 23.333 -72 51.333 -72 84
s24 60.5 72 83.5s106 34.5 174 34.5s126 -11.5 174 -34.5s72 -50.833 72 -83.5s-24 -60.667 -72 -84c-10.667 -5.33301 -22 -10 -34 -14v-1476c0 -113.333 -53.333 -170 -160 -170h-113c-56.667 0 -96 40.667 -118 122c-135.333 539.333 -209.333 994.666 -222 1366
c-12.667 -371.333 -86.667 -826.666 -222 -1366c-22.667 -82 -62.334 -122.667 -119.001 -122h-150c-81.333 0 -122 56.667 -122 170c97.333 490.667 100.333 981.667 9 1473c-15.333 4.66699 -29.666 10.334 -42.999 17.001c-48 23.333 -72 51.333 -72 84z" />
    <glyph glyph-name="X" unicode="X" horiz-adv-x="1257" 
d="M286 1862c68 0 125.999 -11.501 173.999 -34.501s72 -50.833 72 -83.5c0 -32 -23.333 -59.667 -70 -83l152 -398l150 398c-46 23.333 -69 51 -69 83c0 32.667 24 60.334 72 83.001c44.667 22 98.334 33.667 161.001 35h13c68 0 126 -11.5 174 -34.5s72 -50.833 72 -83.5
s-24 -60.667 -72 -84c-18.667 -8.66699 -38.334 -15.667 -59.001 -21c-141.333 -227.333 -257 -463.666 -347 -708.999c90 -246 205.667 -481.667 347 -707c20.667 -6 40.334 -13.333 59.001 -22c48 -22.667 72 -50.334 72 -83.001s-24 -60.5 -72 -83.5
s-105.667 -34.5 -173 -34.5h-14c-62.667 1.33301 -116.334 12.666 -161.001 33.999c-48 23.333 -72 51.333 -72 84c0 32 23 59.333 69 82l-150 398l-152 -398c46.667 -22.667 70 -50 70 -82c0 -32.667 -24 -60.667 -72 -84c-45.333 -21.333 -99.333 -32.666 -162 -33.999
h-14c-67.333 -0 -124.666 11.333 -171.999 34c-48 23.333 -72 51.333 -72 84s24 60.334 72 83.001c18 8.66699 37.667 16 59 22c140.667 226 256.334 461.667 347.001 707c-90.667 245.333 -206.334 481.666 -347.001 708.999c-21.333 5.33301 -41 12.333 -59 21
c-48 23.333 -72 51.333 -72 84s24 60.5 72 83.5s106 34.5 174 34.5z" />
    <glyph glyph-name="Y" unicode="Y" horiz-adv-x="1257" 
d="M1187 1744c0 -32.667 -23.998 -60.666 -71.998 -83.999c-18.667 -8.66699 -38.334 -15.667 -59.001 -21c-114 -182.667 -211 -371.334 -291 -566.001v-858c10.667 -4 21.334 -8.66699 32.001 -14c48 -22.667 72 -50.334 72 -83.001s-24 -60.667 -72 -84
c-46.667 -22 -102.334 -33.333 -167.001 -34h-14c-65.333 0.666992 -121 12 -167 34c-48 23.333 -72 51.333 -72 84s24 60.334 72 83.001c13.333 6.66699 27.666 12.334 42.999 17.001c36 194 57.333 388 64 582l-38 130c-90.667 245.333 -206.334 481.666 -347.001 708.999
c-21.333 5.33301 -41 12.333 -59 21c-48 23.333 -72 51.333 -72 84s24 60.5 72 83.5s106 34.5 174 34.5h8c64.667 -1.33301 120 -13 166 -35c48 -22.667 72 -50.334 72 -83.001c0 -32 -23.333 -59.667 -70 -83l152 -398l150 398c-46 23.333 -69 51 -69 83
c0 32.667 24 60.334 72 83.001c44.667 22 98.334 33.667 161.001 35h13c68 0 126 -11.5 174 -34.5s72 -50.833 72 -83.5z" />
    <glyph glyph-name="Z" unicode="Z" horiz-adv-x="1031" 
d="M50 1616c0 68 11.501 126.004 34.501 174.004s50.833 72 83.5 72c20.667 0 39.334 -9.66699 56.001 -29c27.333 19.333 65.333 29 114 29h470c113.333 0 170 -53.333 170 -160c0 -12 -1.33301 -22.667 -4 -32c-0.666992 -20.667 -5.33398 -43.334 -14.001 -68.001
l-209 -590c45.333 -22.667 68 -49.667 68 -81c0 -32.667 -24 -60.667 -72 -84c-19.333 -8.66699 -40 -16 -62 -22l-201 -570c30 -4.66699 71.667 -5.33398 125 -2.00098c38 2 82.333 7.33301 133 16c2.66699 58 14 108.333 34 151c23.333 48 51.333 72 84 72
s60.5 -24 83.5 -72s34.5 -106 34.5 -174c0 -20 -1 -39 -3 -57c2 -8.66699 3 -18.334 3 -29.001c0 -68.667 -23.333 -115.334 -70 -140.001c-14.667 -13.333 -30.667 -20 -48 -20c-6 0 -11.667 0.666992 -17 2c-11.333 -1.33301 -23 -2 -35 -2h-470
c-113.333 -0 -170 53.333 -170 160c0 8.66699 0.666992 17 2 25c1.33301 20 6 42.333 14 67l3 8c108 182.667 200.333 371 277 565c-23.333 5.33301 -45 12.666 -65 21.999c-48 23.333 -72 51.333 -72 84s24 60.334 72 83.001c40.667 20 88.667 31.333 144 34
c58.667 180 104 365 136 555c-35.333 6 -81.333 7.5 -138 4.5s-124.334 -12.167 -203.001 -27.5c-19.333 0 -37 1 -53 3c-3.33301 -54 -14.666 -101 -33.999 -141c-22.667 -48 -50.334 -72 -83.001 -72s-60.5 24 -83.5 72s-34.5 106 -34.5 174z" />
    <glyph glyph-name="bracketleft" unicode="[" horiz-adv-x="821" 
d="M628 2011c107.333 -2 161 -46.333 161 -133v-1c0 -86.667 -53.667 -130.667 -161 -132h-94c-81.333 -0.666992 -122 -43 -122 -127c100.667 -456.667 100.667 -947.334 0 -1472c0 -84.667 41 -127 123 -127h93c107.333 -2 161 -46 161 -132v-2
c0 -86 -53.667 -129.667 -161 -131h-93c-270 0 -405 130.667 -405 392c94 524.667 94 1015.33 0 1472c0 262 135 393 405 393h93z" />
    <glyph glyph-name="backslash" unicode="\" horiz-adv-x="748" 
d="M182 1859c78.667 20 132 -26.335 160 -139.002c25.333 -528.667 148.333 -1032 369 -1510l2 -9c24 -107.333 -8.33301 -172.333 -97 -195c-91.333 -23.333 -151 21.334 -179 134.001l-369 1510c-27.333 112.667 10.667 182.334 114 209.001z" />
    <glyph glyph-name="bracketright" unicode="]" horiz-adv-x="821" 
d="M191 -247c-107.333 1.33301 -161 45 -161 131v2c0 86 53.667 130 161 132h93c82 0 123 42.333 123 127c-100.667 524.667 -100.667 1015.33 0 1472c0 84.667 -41.333 127 -124 127h-92c-107.333 1.33301 -161 45.333 -161 132v1c0 86.667 53.667 131 161 133h93
c270 0 405 -131 405 -393c-94 -456.667 -94 -947.334 0 -1472c0 -261.333 -135 -392 -405 -392h-93z" />
    <glyph glyph-name="asciicircum" unicode="^" horiz-adv-x="1157" 
d="M579 1451l-162.002 -204c-123.333 -50 -210.666 -75 -261.999 -75c-36.667 0 -55 13 -55 39c0 9.33301 2.66699 21 8 35c192.667 221.333 289 450.333 289 687l-1 48l183 -1l181 1l-1 -48c0 -236.667 96.667 -465.667 290 -687c5.33301 -14 8 -25.667 8 -35
c0 -26 -18.333 -39 -55 -39c-51.333 0 -138.666 25 -261.999 75z" />
    <glyph glyph-name="underscore" unicode="_" horiz-adv-x="1032" 
d="M122 -318c-81.333 0 -122 14.668 -122 44.001c28 42 28 83.667 0 125c0 29.333 40.667 44 122 44h788c81.333 0 122 -14.667 122 -44c-28 -38.667 -28 -80.334 0 -125.001c0 -29.333 -40.667 -44 -122 -44h-788z" />
    <glyph glyph-name="grave" unicode="`" horiz-adv-x="756" 
d="M134 2074c-17.333 8 21.333 33.6689 116 77.002c72.667 33.333 117.667 45.666 135 36.999c-11.333 -78.667 66.667 -154.334 234 -227.001c32 -30.667 -51.667 -30.667 -251 0z" />
    <glyph glyph-name="a" unicode="a" horiz-adv-x="1255" 
d="M721 118c0 32.667 23.999 60.333 71.999 83c11.333 6 23.333 11 36 15l-36 179h-332l-37 -179c12.667 -4.66699 24.667 -9.66699 36 -15c48 -22.667 72 -50.334 72 -83.001s-24 -60.667 -72 -84c-46 -22 -100.667 -33.333 -164 -34h-16
c-65.333 0.666992 -121.333 12 -168 34c-48 23.333 -72 51.333 -72 84s24 60.334 72 83.001c13.333 6.66699 27.333 12.334 42 17.001c160.667 466.667 261.334 947 302.001 1441c-1.33301 0 -2.33301 0.333008 -3 1c-48 23.333 -72 51.333 -72 84s24 60.334 72 83.001
c47.333 23.333 105 35 173 35h2c67.333 0 125 -11.5 173 -34.5s72 -50.833 72 -83.5s-24 -60.667 -72 -84c-1.33301 -0.666992 -2.66602 -1 -3.99902 -1c40.667 -494 141 -974.333 301 -1441c15.333 -4.66699 29.666 -10.334 42.999 -17.001
c48 -22.667 72 -50.334 72 -83.001s-24 -60.667 -72 -84c-46.667 -22 -102.667 -33.333 -168 -34h-6c-68 0 -126 11.5 -174 34.5s-72 50.833 -72 83.5zM507.999 660.999h238.002c-66.667 180 -106.334 438 -119.001 774c-12.667 -336 -52.334 -594 -119.001 -774z" />
    <glyph glyph-name="b" unicode="b" horiz-adv-x="1145" 
d="M131 1744c0 32.667 24 60.332 72 82.999c37.333 18 80.333 29 129 33c7.33301 1.33301 15.333 2 24 2h311c223.333 0 347.333 -103.667 372 -311v-3c-103.333 -135.333 -104.666 -280.333 -3.99902 -435c-18 -82 -67 -142.667 -147 -182c80 -40 129 -101 147 -183
c-100.667 -154.667 -99.334 -299.667 3.99902 -435v-3c-24.667 -206.667 -148.667 -310 -372 -310h-311c-8.66699 0 -16.667 0.333008 -24 1c-48.667 4.66699 -91.667 15.667 -129 33c-48 23.333 -72 51.333 -72 84s24 60.334 72 83.001c12 6 25 11.333 39 16
c44 237.333 66.333 475.333 67 714c-0.666992 238 -23 476 -67 714c-14 4 -27 9 -39 15c-48 23.333 -72 51.333 -72 84zM761 1548c0 32.667 -41.001 49 -123.001 49h-2c-81.333 0 -122 -16.333 -122 -49v-435c0 -32.667 41 -49 123 -49c82.667 0 124 16.333 124 49
c-66 100.667 -88.667 197.667 -68 291c10.667 49.333 33.334 97.333 68.001 144zM692.999 456.998c-20.667 93.333 2.00098 190.333 68.001 291c0 32.667 -41.333 49 -124 49c-82 0 -123 -16.333 -123 -49v-435c0 -32.667 40.667 -49 122 -49h2c82 0 123 16.333 123 49
c-34.667 46.667 -57.334 94.667 -68.001 144z" />
    <glyph glyph-name="c" unicode="c" horiz-adv-x="1023" 
d="M392 360c0 -84.667 41.667 -127.171 125 -127.504s125 15.834 125 48.501c-35.333 46.667 -58.333 94.667 -69 144c-8 34 -10 68.667 -6 104c10.667 72 57.667 111.667 141 119c70.667 5.33301 119.334 -17.667 146.001 -69c-28 -104 -5.66699 -203.333 67 -298
c-26.667 -135.333 -95.667 -226.666 -207 -273.999c-48.667 -26 -114.334 -39 -197.001 -39c-272 0 -407.667 130.333 -407 391c42.667 163.333 65.667 348.333 69 555v33c-3.33301 206.667 -26.333 391.667 -69 555c-0.666992 260.667 135 391 407 391
c82.667 0 148.334 -13 197.001 -39c111.333 -47.333 180.333 -138.666 207 -273.999c-72.667 -94.667 -95 -194 -67 -298c-26.667 -51.333 -75.334 -74.333 -146.001 -69c-83.333 7.33301 -130.333 47 -141 119c-4 35.333 -2 70 6 104c10.667 49.333 33.667 97.333 69 144
c0 32.667 -41.667 48.834 -125 48.501s-125 -42.833 -125 -127.5v-1141z" />
    <glyph glyph-name="d" unicode="d" horiz-adv-x="1155" 
d="M130 118c0 32.667 24 60.333 72 83c12 6 25 11.333 39 16c88.667 476 88.667 952 0 1428c-14 4 -27 9 -39 15c-48 23.333 -72 51.333 -72 84s24 60.334 72 83.001c36.667 18 79.667 29 129 33c7.33301 1.33301 15 2 23 2h39l275 -1c251.333 0 377 -130.333 377 -391
c-100.667 -358.667 -100.667 -718.334 0 -1079c0 -260 -125.667 -390 -377 -390c-4 0 -10 -0.333008 -18 -1h-295c-8.66699 -0 -16.667 0.333008 -24 1c-48.667 4.66699 -91.667 15.667 -129 33c-48 23.333 -72 51.333 -72 84zM762 1470c0 84.667 -41 126.999 -123 126.999
h-124v-1332h124c82 0 123 42 123 126c-100.667 360.667 -100.667 720.334 0 1079z" />
    <glyph glyph-name="e" unicode="e" horiz-adv-x="1062" 
d="M692 1862c48 0 85.665 -9.66699 112.998 -29l1 1c4 4.66699 8 8.66699 12 12c3.33301 2 6.33301 4 9 6c2.66699 1.33301 5.66699 2.66602 9 3.99902c5.33301 2.66699 10.666 4.33398 15.999 5.00098c1.33301 0.666992 3 1 5 1h5c3.33301 0 6.33301 -0.333008 9 -1
c4 -0.666992 8 -1.66699 12 -3c3.33301 -0.666992 6.33301 -2 9 -4l4 -2c1.33301 -0.666992 2.33301 -1.33398 3 -2.00098l6 -4l2 -2c7.33301 -6 14 -13.667 20 -23c2.66699 -3.33301 5.33398 -7 8.00098 -11c0.666992 -2.66699 1.66699 -5 3 -7c2 -2.66699 4 -6 6 -10
c0 -0.666992 0.333008 -1.66699 1 -3l4 -8l3 -7l10 -27l4 -16c0.666992 -3.33301 1.33398 -6.33301 2.00098 -9l3 -13c3.33301 -16 5.66602 -32.667 6.99902 -50c0 -2.66699 0.333008 -5.66699 1 -9v-10c0.666992 -3.33301 1 -6.66602 1 -9.99902v-15
c0 -12 -0.333008 -23.667 -1 -35s-1.66699 -22.333 -3 -33c-1.33301 -9.33301 -3 -18.333 -5 -27c0 -1.33301 -0.333008 -2.66602 -1 -3.99902c-1.33301 -8.66699 -3.33301 -17 -6 -25l-2 -8c-0.666992 -2.66699 -1.66699 -5.33398 -3 -8.00098l-3 -8l-4 -12
c-2 -4.66699 -4.33301 -9.33398 -7 -14.001c-0.666992 -1.33301 -1 -2.66602 -1 -3.99902c-5.33301 -10.667 -11 -20 -17 -28c-3.33301 -4.66699 -6.66602 -8.66699 -9.99902 -12c-3.33301 -4 -6.66602 -7.33301 -9.99902 -10c-6 -5.33301 -12.333 -9.66602 -19 -12.999
c-3.33301 -1.33301 -6.66602 -2.33301 -9.99902 -3c-0.666992 0 -1.33398 -0.333008 -2.00098 -1c-4.66699 -0.666992 -9.33398 -1 -14.001 -1c-6 0 -11.667 0.666992 -17 2c-1.33301 0 -3 0.333008 -5 1c-12 4.66699 -23.333 13 -34 25c-6 6.66699 -11.667 14.667 -17 24
l-4 6c-2 4.66699 -4.33301 9.33398 -7 14.001c-0.666992 2 -1.66699 4.33301 -3 7c-1.33301 2 -2.33301 4.33301 -3 7c-4 9.33301 -7.33301 18.666 -10 27.999c-5.33301 16 -9.33301 32.667 -12 50l-2 14c-1.33301 7.33301 -2.33301 15 -3 23v12c-16 -2 -33.667 -3 -53 -3
c-93.333 18.667 -186.666 33.667 -279.999 45v-592c76.667 10.667 153.334 23.667 230.001 39c113.333 0 170 -40.667 170 -122c0 -106.667 -56.667 -160 -170 -160h-230v-553c93.333 11.333 186.666 26.333 279.999 45c19.333 0 37 -1.33301 53 -4
c2.66699 54 13.667 101.333 33 142c23.333 48 51.333 72 84 72s60.5 -24 83.5 -72s34.5 -106 34.5 -174s-11.5 -126 -34.5 -174s-50.833 -72 -83.5 -72c-20.667 0 -39.667 9.66699 -57 29c-27.333 -19.333 -65 -29 -113 -29h-422c-91.333 0 -138 53.667 -140 161
c100.667 513.333 100.667 1023.67 0 1531c0 113.333 40.667 170 122 170h440z" />
    <glyph glyph-name="f" unicode="f" horiz-adv-x="1168" 
d="M130 118c0 32.667 23.998 60.333 71.998 83c14 6.66699 29 12.667 45 18c89.333 493.333 85.666 984.333 -11.001 1473c0 113.333 40.667 170 122 170h440c48 0 85.667 -9.66699 113 -29c17.333 19.333 36.333 29 57 29c32.667 0 60.5 -24 83.5 -72s34.5 -106 34.5 -174
s-11.5 -126 -34.5 -174s-50.833 -72 -83.5 -72s-60.667 24 -84 72c-19.333 40 -30.333 87 -33 141c-16 -2 -33.667 -3 -53 -3c-93.333 18.667 -186.666 33.667 -279.999 45v-592c76.667 10.667 153.334 23.667 230.001 39c113.333 0 170 -40.667 170 -122
c0 -106.667 -56.667 -160 -170 -160h-230v-576c10.667 -3.33301 21.334 -7.66602 32.001 -12.999c48 -22.667 72 -50.334 72 -83.001s-24 -60.5 -72 -83.5s-106 -34.5 -174 -34.5s-126 11.5 -174 34.5s-72 50.833 -72 83.5z" />
    <glyph glyph-name="g" unicode="g" 
d="M517 -32c-272 0 -407.667 130.336 -407 391.003c42.667 163.333 65.667 348.333 69 555v33c-3.33301 206.667 -26.333 391.667 -69 555c-0.666992 260.667 135 391 407 391c82.667 0 148.334 -13 197.001 -39c111.333 -47.333 180.333 -138.666 207 -273.999
c-72.667 -94.667 -95 -194 -67 -298c-26.667 -51.333 -75.334 -74.333 -146.001 -69c-83.333 7.33301 -130.333 47 -141 119c-4 35.333 -2 70 6 104c10.667 49.333 33.667 97.333 69 144c0 32.667 -41.667 49 -125 49c-83.333 -0.666992 -125 -43.334 -125 -128.001v-1141
c0 -84.667 41.667 -127.334 125 -128.001c83.333 0 125 16.333 125 49c-35.333 46.667 -47.333 159 -36 337c0 41.333 2.33301 82.333 7 123c-71.333 15.333 -107 61.666 -107 138.999c0 76 35 122 105 138c33.333 11.333 66 34.666 98 69.999h2
c90 -26.667 136.333 -95.334 139 -206.001c-2 -16.667 -3 -35.667 -3 -57c0 -98 24.667 -279.333 74 -544c-26.667 -135.333 -95.667 -226.666 -207 -273.999c-72 -25.333 -137.667 -38.333 -197 -39z" />
    <glyph glyph-name="h" unicode="h" horiz-adv-x="1283" 
d="M130 1744c0 32.667 24 60.4971 72 83.4971s106 34.5 174 34.5s126 -11.5 174 -34.5s72 -50.833 72 -83.5s-24 -60.667 -72 -84c-10.667 -4.66699 -21.334 -9 -32.001 -13v-583h320c-6.66699 192.667 -28 385.667 -64 579c-15.333 4.66699 -29.666 10.334 -42.999 17.001
c-48 23.333 -72 51.333 -72 84s24 60.5 72 83.5s106 34.5 174 34.5h7c64.667 -0.666992 120.334 -12.334 167.001 -35.001c48 -22.667 72 -50.334 72 -83.001s-24 -60.667 -72 -84c-10.667 -4.66699 -21.334 -9 -32.001 -13v-1433
c10.667 -3.33301 21.334 -7.66602 32.001 -12.999c48 -22.667 72 -50.334 72 -83.001s-24 -60.5 -72 -83.5s-106 -34.5 -174 -34.5h-7c-65.333 0.666992 -121 12 -167 34c-48 23.333 -72 51.333 -72 84s24 60.334 72 83.001c13.333 6.66699 27.666 12.334 42.999 17.001
c36 193.333 57.333 386.666 64 579.999h-320v-584c10.667 -3.33301 21.334 -7.66602 32.001 -12.999c48 -22.667 72 -50.334 72 -83.001s-24 -60.667 -72 -84c-46.667 -22 -102.334 -33.333 -167.001 -34h-14c-65.333 0.666992 -121 12 -167 34
c-48 23.333 -72 51.333 -72 84s24 60.334 72 83.001c13.333 6.66699 27.666 12.334 42.999 17.001c88 475.333 88 950.333 0 1425c-15.333 4.66699 -29.666 10.334 -42.999 17.001c-48 23.333 -72 51.333 -72 84z" />
    <glyph glyph-name="i" unicode="i" horiz-adv-x="758" 
d="M130 118c0 32.667 24.001 60.3311 72.001 82.998c13.333 6.66699 27.666 12.334 42.999 17.001c88 475.333 88 950.333 0 1425c-15.333 4.66699 -29.666 10.334 -42.999 17.001c-48 23.333 -72 51.333 -72 84s24 60.334 72 83.001
c39.333 19.333 85.333 30.666 138 33.999c5.33301 0.666992 11.333 1 18 1h18c68 0 126 -11.5 174 -34.5s72 -50.833 72 -83.5s-24 -60.667 -72 -84c-10.667 -4.66699 -21.334 -9 -32.001 -13v-1433c10.667 -3.33301 21.334 -7.66602 32.001 -12.999
c48 -22.667 72 -50.334 72 -83.001s-24 -60.667 -72 -84c-46.667 -22 -102.334 -33.333 -167.001 -34h-14c-65.333 0.666992 -121 12 -167 34c-48 23.333 -72 51.333 -72 84z" />
    <glyph glyph-name="j" unicode="j" horiz-adv-x="1080" 
d="M456 1744c0 32.667 24.001 60.501 72.001 83.501s106 34.5 174 34.5s126 -11.5 174 -34.5s72 -50.833 72 -83.5s-24 -60.667 -72 -84c-14 -6.66699 -29 -12.334 -45 -17.001c-89.333 -436.667 -86 -904 10 -1402c-21.333 -59.333 -39 -101 -53 -125
c-64.667 -98.667 -181.334 -148 -350.001 -148c-83.333 0 -149.666 13 -198.999 39c-112 47.333 -181.667 137.666 -209 270.999v3c44 56.667 69.667 115 77 175c2 16.667 2.33301 33.334 1 50.001c30 58.667 82.667 81 158 67c74 -13.333 114.667 -52.333 122 -117
c-2 -10.667 -4.33301 -21 -7 -31c-10.667 -49.333 -33.667 -97.333 -69 -144c0 -32.667 41.333 -48.667 124 -48c84.667 0 127 42.333 127 127v1286c-12.667 4 -24.334 8.66699 -35.001 14c-48 23.333 -72 51.333 -72 84z" />
    <glyph glyph-name="k" unicode="k" horiz-adv-x="1269" 
d="M732 118c0 32.667 24 60.3281 72 82.9951c0.666992 0.666992 1.66699 1.33398 3 2.00098c-54.667 172.667 -120 339.334 -196 500.001l-93 -180v-309c10.667 -3.33301 21.334 -7.66602 32.001 -12.999c48 -22.667 72 -50.334 72 -83.001s-24 -60.5 -72 -83.5
s-106 -34.5 -174 -34.5s-126 11.5 -174 34.5s-72 50.833 -72 83.5s24 60.334 72 83.001c13.333 6.66699 27.666 12.334 42.999 17.001c88 475.333 88 950.333 0 1425c-15.333 4.66699 -29.666 10.334 -42.999 17.001c-48 23.333 -72 51.333 -72 84s24 60.334 72 83.001
c39.333 19.333 85.333 30.666 138 33.999c5.33301 0.666992 11.333 1 18 1h18c68 0 126 -11.5 174 -34.5s72 -50.833 72 -83.5s-24 -60.667 -72 -84c-10.667 -4.66699 -21.334 -9 -32.001 -13v-671c117.333 216 213.666 443.667 288.999 683
c-1.33301 0 -2.33301 0.333008 -3 1c-48 23.333 -72 51.333 -72 84s24 60.334 72 83.001c42 20.667 92.333 32 151 34c6.66699 0.666992 13.334 1 20.001 1h3c68 0 126 -11.5 174 -34.5s72 -50.833 72 -83.5s-24 -60.667 -72 -84c-18 -8.66699 -37.333 -15.667 -58 -21
l-6 -12l-359 -696l359 -696c2 -4.66699 4 -9 6 -13c20.667 -5.33301 40 -12.333 58 -21c48 -22.667 72 -50.334 72 -83.001s-24 -60.5 -72 -83.5s-106 -34.5 -174 -34.5h-3c-6.66699 -0.666992 -13.667 -0.666992 -21 0c-58 2.66699 -108 14 -150 34
c-48 23.333 -72 51.333 -72 84z" />
    <glyph glyph-name="l" unicode="l" horiz-adv-x="1127" 
d="M130 1744c0 32.667 24.001 60.334 72.001 83.001c46 22 101.333 33.667 166 35h8c68 0 126 -11.5 174 -34.5s72 -50.833 72 -83.5s-24 -60.667 -72 -84c-10.667 -4.66699 -21.667 -9 -33 -13v-1410c93.333 11.333 186.666 26.333 279.999 45c19.333 0 37 -1.33301 53 -4
c2.66699 54 13.667 101.333 33 142c23.333 48 51.333 72 84 72s60.5 -24 83.5 -72s34.5 -106 34.5 -174s-11.5 -126 -34.5 -174s-50.833 -72 -83.5 -72c-20.667 0 -39.667 9.66699 -57 29c-27.333 -19.333 -65 -29 -113 -29h-440c-81.333 0 -122 56.667 -122 170
c97.333 491.333 100.333 982.666 9 1474c-14.667 4.66699 -28.667 10 -42 16c-48 23.333 -72 51.333 -72 84z" />
    <glyph glyph-name="m" unicode="m" horiz-adv-x="1630" 
d="M1568 118c0 -32.667 -24.001 -60.6709 -72.001 -84.0039c-46.667 -22 -103 -33.333 -169 -34h-14c-64 0.666992 -119 12 -165 34c-48 23.333 -72 51.333 -72 84s24 60.334 72 83.001c12.667 6.66699 26.334 12.334 41.001 17.001c70.667 380.667 84.667 761.334 42 1142
c-112.667 -384 -184.334 -767 -215.001 -1149c-2 -107.333 -57.333 -161 -166 -161h-2c-108.667 0 -164 53.667 -166 161c-26 320.667 -80.667 642.334 -164 965.001v-962c10.667 -3.33301 21.334 -7.66602 32.001 -12.999c48 -22.667 72 -50.334 72 -83.001
s-24 -60.5 -72 -83.5s-106 -34.5 -174 -34.5h-7c-65.333 0.666992 -121 12 -167 34c-48 23.333 -72 51.333 -72 84s24 60.334 72 83.001c13.333 6.66699 27.666 12.334 42.999 17.001c91.333 491.333 88.333 982.666 -9 1474c0 113.333 40.667 170 122 170h150
c56.667 0.666992 96.334 -40 119.001 -122c135.333 -539.333 209.333 -994.666 222 -1366c12.667 371.333 86.667 826.666 222 1366c22 81.333 61.333 122 118 122h113c106.667 0 160 -56.667 160 -170v-1477c12 -4 23.333 -8.66699 34 -14
c48 -22.667 72 -50.334 72 -83.001z" />
    <glyph glyph-name="n" unicode="n" horiz-adv-x="1283" 
d="M130 1744c0 32.667 24.001 60.499 72.001 83.499s106 34.5 174 34.5h6c65.333 -0.666992 121.333 -12.334 168 -35.001c48 -22.667 72 -50.334 72 -83.001s-24 -60.667 -72 -84c-10.667 -4.66699 -21.667 -9 -33 -13v-188c80 -262 186.333 -512 319 -750
c4 74 6 148 6 222c0 238 -22.333 475.667 -67 713c-14.667 4.66699 -28.667 10 -42 16c-48 23.333 -72 51.333 -72 84s24 60.334 72 83.001c47.333 23.333 105 35 173 35h1c68 0 126 -11.5 174 -34.5s72 -50.833 72 -83.5s-24 -60.667 -72 -84
c-10.667 -4.66699 -21.667 -9 -33 -13v-1432c11.333 -4 22.333 -8.66699 33 -14c48 -22.667 72 -50.334 72 -83.001s-24 -60.5 -72 -83.5s-106 -34.5 -174 -34.5s-126 11.5 -174 34.5s-72 50.833 -72 83.5s24 60.334 72 83.001c13.333 6.66699 27.333 12.334 42 17.001
c5.33301 26 10 52 14 78l-272 583v-664c11.333 -4 22.333 -8.66699 33 -14c48 -22.667 72 -50.334 72 -83.001s-24 -60.667 -72 -84c-46.667 -22 -102.667 -33.333 -168 -34h-14c-64.667 0.666992 -120 12 -166 34c-48 23.333 -72 51.333 -72 84s24 60.334 72 83.001
c13.333 6.66699 27.333 12.334 42 17.001c44.667 238 67 475.667 67 713c0 148.667 -8.66699 297 -26 445l-1 2l1 1c-10.667 88 -24.334 176.333 -41.001 265c-14.667 4.66699 -28.667 10 -42 16c-48 23.333 -72 51.333 -72 84z" />
    <glyph glyph-name="o" unicode="o" 
d="M921 361c0 -262 -135 -393 -405 -393c-270.667 0.666992 -406 131.667 -406 393c94 380 94 760 0 1140c0 261.333 135.333 392 406 392c270 0 405 -130.667 405 -392c-94 -380 -94 -760 0 -1140zM639 1501c0 84.667 -41 127 -123 127h-2
c-81.333 0 -122 -42.333 -122 -127c100.667 -380 100.667 -760 0 -1140c0 -84.667 41 -127 123 -127c82.667 0 124 42.333 124 127c-100.667 380 -100.667 760 0 1140z" />
    <glyph glyph-name="p" unicode="p" horiz-adv-x="1105" 
d="M130 118c0 32.667 23.998 60.333 71.998 83c13.333 6.66699 27.666 12.334 42.999 17.001c91.333 491.333 88.333 982.666 -9 1474v9c2 107.333 48.667 161 140 161h7l259 -1c157.333 0 265.333 -51.333 324 -154c26.667 -41.333 43.667 -93 51 -155v-3
c-103.333 -135.333 -104.666 -280.333 -3.99902 -435c-21.333 -149.333 -109.666 -248 -264.999 -296c-43.333 -13.333 -106.333 -20 -189 -20h-41v-584c10.667 -3.33301 21.334 -7.66602 32.001 -12.999c48 -22.667 72 -50.334 72 -83.001s-24 -60.5 -72 -83.5
s-106 -34.5 -174 -34.5h-18c-6.66699 -0 -12.667 0.333008 -18 1c-52.667 3.33301 -98.667 14.333 -138 33c-48 23.333 -72 51.333 -72 84zM759.998 1549c0 32.667 -41.001 49 -123.001 49h-2c-64.667 0 -103.667 -10.333 -117 -31v-471c12.667 -20.667 52 -31 118 -31
c82.667 0 124 16.333 124 49c-66 100.667 -88.667 197.667 -68 291c10.667 49.333 33.334 97.333 68.001 144z" />
    <glyph glyph-name="q" unicode="q" 
d="M921 -103c107.333 -0.666992 161.001 -37.999 161.001 -111.999s-53.667 -111.667 -161 -113c-166.667 0 -281.334 15.667 -344.001 47c-81.333 39.333 -123 119 -125 239c-228 16 -342 146.667 -342 392c100.667 412 100.667 795 0 1149c0 262.667 135 394 405 394
c270.667 0 406 -131.333 406 -394c-100.667 -354 -100.667 -737 0 -1149c0 -234.667 -103 -364.334 -309 -389.001c39.333 -74 142.333 -95.333 309 -64zM639.001 1501c0 84.667 -41 127 -123 127h-2c-81.333 0 -122 -42.333 -122 -127
c100.667 -355.333 100.667 -735.333 0 -1140c0 -84.667 41 -127 123 -127c82.667 0 124 42.333 124 127c-100.667 404.667 -100.667 784.667 0 1140z" />
    <glyph glyph-name="r" unicode="r" horiz-adv-x="1224" 
d="M83 118c0 32.667 23.999 60.333 71.999 83c13.333 6.66699 27.666 12.334 42.999 17.001c91.333 491.333 88.333 982.666 -9 1474v9c2 107.333 48.667 161 140 161l266 -1c157.333 0 265.333 -51.333 324 -154c26.667 -41.333 43.667 -93 51 -155v-3
c-103.333 -135.333 -104.666 -280.333 -3.99902 -435c-18.667 -132 -89.667 -224.333 -213 -277c62.667 -210 143.667 -415 243 -615c20 -5.33301 38.667 -12.333 56 -21c48 -22.667 72 -50.334 72 -83.001s-24 -60.5 -72 -83.5s-106 -34.5 -174 -34.5s-126 11.5 -174 34.5
s-72 50.833 -72 83.5s24 60.334 72 83.001l8 4l-164 593h-77v-584c10.667 -3.33301 21.334 -7.66602 32.001 -12.999c48 -22.667 72 -50.334 72 -83.001s-24 -60.5 -72 -83.5s-106 -34.5 -174 -34.5h-18c-6.66699 -0 -12.667 0.333008 -18 1
c-52.667 3.33301 -98.667 14.333 -138 33c-48 23.333 -72 51.333 -72 84zM712.999 1549c0 32.667 -41.001 49 -123.001 49h-2c-64.667 0 -103.667 -10.333 -117 -31v-471c12.667 -20.667 52 -31 118 -31c82.667 0 124 16.333 124 49c-66 100.667 -88.667 197.667 -68 291
c10.667 49.333 33.334 97.333 68.001 144z" />
    <glyph glyph-name="s" unicode="s" 
d="M862 678c2.66699 -9.33301 7.66602 -40.667 14.999 -94c11.333 -79.333 26 -154.333 44 -225c0.666992 -260.667 -135 -391 -407 -391c-82.667 0 -148.334 13 -197.001 39c-111.333 47.333 -180.333 138.666 -207 273.999c72.667 94.667 95 194 67 298
c26.667 51.333 75.334 74.333 146.001 69c83.333 -7.33301 130.333 -47 141 -119c4 -35.333 2 -70 -6 -104c-10.667 -49.333 -33.667 -97.333 -69 -144c0 -32.667 41.667 -49 125 -49c83.333 0.666992 125 43.334 125 128.001c-13.333 71.333 -29.333 143.333 -48 216
c-18.667 60 -110.667 178 -276 354v1c-78.667 71.333 -127.334 155.333 -146.001 252c-2.66699 9.33301 -7.66699 40.666 -15 93.999c-11.333 79.333 -26 154.333 -44 225c-0.666992 260.667 135 391 407 391c82.667 0 148.334 -13 197.001 -39
c111.333 -47.333 180.333 -138.666 207 -273.999c-72.667 -94.667 -95 -194 -67 -298c-26.667 -51.333 -75.334 -74.333 -146.001 -69c-83.333 7.33301 -130.333 47 -141 119c-4 35.333 -2 70 6 104c10.667 49.333 33.667 97.333 69 144c0 32.667 -41.667 49 -125 49
c-83.333 -0.666992 -125 -43.334 -125 -128.001c13.333 -71.333 29.333 -143.333 48 -216c18.667 -60 60.834 -125.667 126.501 -197s115.167 -123.666 148.5 -156.999l1 -1c78.667 -71.333 127.334 -155.333 146.001 -252z" />
    <glyph glyph-name="t" unicode="t" horiz-adv-x="1149" 
d="M50 1616c0 68 11.4961 125.998 34.4961 173.998s50.833 72 83.5 72c20.667 0 39.334 -9.66699 56.001 -29c27.333 19.333 65.333 29 114 29h471c48 0 85.667 -9.66699 113 -29c17.333 19.333 36.333 29 57 29c32.667 0 60.5 -24 83.5 -72s34.5 -106 34.5 -174
s-11.5 -126 -34.5 -174s-50.833 -72 -83.5 -72s-60.667 24 -84 72c-19.333 40 -30.333 87 -33 141c-16 -2 -33.667 -3 -53 -3l-94 17v-1382c11.333 -4 22.333 -8.66699 33 -14c48 -22.667 72 -50.334 72 -83.001s-24 -60.5 -72 -83.5s-106 -34.5 -174 -34.5h-2
c-67.333 0 -124.666 11.333 -171.999 34c-48 23.333 -72 51.333 -72 84s24 60.334 72 83.001c12.667 6.66699 26.334 12.334 41.001 17.001c86.667 460.667 89.334 921.334 8.00098 1382c-37.333 -6 -74.333 -12.667 -111 -20c-19.333 0 -37 1 -53 3
c-3.33301 -54 -14.666 -101 -33.999 -141c-22.667 -48 -50.334 -72 -83.001 -72s-60.5 24 -83.5 72s-34.5 106 -34.5 174z" />
    <glyph glyph-name="u" unicode="u" horiz-adv-x="1253" 
d="M120 1744c0 32.667 23.9971 60.3291 71.9971 82.9961c46.667 22.667 103 34.334 169 35.001h14c64 -1.33301 119 -13 165 -35c48 -22.667 72 -50.334 72 -83.001s-24 -60.667 -72 -84c-10.667 -4.66699 -21.667 -9 -33 -13v-1287c0 -84 41 -126 123 -126
c82.667 0 127.334 42 134.001 126c60 275.333 80.667 523.333 62 744c-18 197.333 -42 377 -72 539c-15.333 4.66699 -29.666 10.334 -42.999 17.001c-48 23.333 -72 51.333 -72 84s24 60.334 72 83.001c46.667 22.667 103 34.334 169 35.001h14
c64 -1.33301 119 -13 165 -35c48 -22.667 72 -50.334 72 -83.001s-24 -60.667 -72 -84c-10.667 -4.66699 -21.667 -9 -33 -13v-1287c0 -261.333 -132 -392 -396 -392c-261.333 0.666992 -392 131.334 -392 392.001c65.333 275.333 88.333 523.333 69 744
c-18 197.333 -42 377 -72 539c-15.333 4.66699 -29.666 10.334 -42.999 17.001c-48 23.333 -72 51.333 -72 84z" />
    <glyph glyph-name="v" unicode="v" horiz-adv-x="1255" 
d="M967 1862c68 0 126.001 -11.5 174.001 -34.5s72 -50.833 72 -83.5s-24 -60.667 -72 -84c-13.333 -6 -27.666 -11.333 -42.999 -16c-160 -466.667 -260.333 -947 -301 -1441l4 -2c48 -22.667 72 -50.334 72 -83.001s-24 -60.667 -72 -84c-46 -22 -101 -33.333 -165 -34
h-18c-64 0.666992 -119 12 -165 34c-48 23.333 -72 51.333 -72 84s24 60.334 72 83.001c0.666992 0.666992 1.66699 1.33398 3 2.00098c-40.667 494 -141.334 974.333 -302.001 1441c-14.667 4.66699 -28.667 10 -42 16c-48 23.333 -72 51.333 -72 84s24 60.5 72 83.5
s106 34.5 174 34.5h10c63.333 -1.33301 118 -13 164 -35c48 -22.667 72 -50.334 72 -83.001s-24 -60.667 -72 -84c-10.667 -4.66699 -21.334 -9 -32.001 -13c120.667 -496.667 187 -903.334 199 -1220c12 316 78.333 722.667 199 1220c-12 4 -23 8.33301 -33 13
c-48 23.333 -72 51.333 -72 84s24 60.334 72 83.001c45.333 22 100 33.667 164 35h10z" />
    <glyph glyph-name="w" unicode="w" horiz-adv-x="1630" 
d="M130 1744c0 32.667 24 60.3311 72 82.998c46 22.667 101.667 34.334 167 35.001h14c64.667 -0.666992 120.334 -12.334 167.001 -35.001c48 -22.667 72 -50.334 72 -83.001s-24 -60.667 -72 -84c-10.667 -4.66699 -21.334 -9 -32.001 -13v-961
c83.333 322.667 138 644.334 164 965.001c2 107.333 57.333 161 166 161h2c108.667 0 164 -53.667 166 -161c30.667 -382 102.334 -765 215.001 -1149c42.667 380.667 28.667 761.334 -42 1142c-14.667 4.66699 -28.334 10 -41.001 16c-48 23.333 -72 51.333 -72 84
s24 60.5 72 83.5s106 34.5 174 34.5s126 -11.5 174 -34.5s72 -50.833 72 -83.5s-24 -60.667 -72 -84c-10.667 -5.33301 -22 -10 -34 -14v-1476c0 -113.333 -53.333 -170 -160 -170h-113c-56.667 0 -96 40.667 -118 122c-135.333 539.333 -209.333 994.666 -222 1366
c-12.667 -371.333 -86.667 -826.666 -222 -1366c-22.667 -82 -62.334 -122.667 -119.001 -122h-150c-81.333 0 -122 56.667 -122 170c97.333 490.667 100.333 981.667 9 1473c-15.333 4.66699 -29.666 10.334 -42.999 17.001c-48 23.333 -72 51.333 -72 84z" />
    <glyph glyph-name="x" unicode="x" horiz-adv-x="1257" 
d="M286 1862c68 0 125.999 -11.501 173.999 -34.501s72 -50.833 72 -83.5c0 -32 -23.333 -59.667 -70 -83l152 -398l150 398c-46 23.333 -69 51 -69 83c0 32.667 24 60.334 72 83.001c44.667 22 98.334 33.667 161.001 35h13c68 0 126 -11.5 174 -34.5s72 -50.833 72 -83.5
s-24 -60.667 -72 -84c-18.667 -8.66699 -38.334 -15.667 -59.001 -21c-141.333 -227.333 -257 -463.666 -347 -708.999c90 -246 205.667 -481.667 347 -707c20.667 -6 40.334 -13.333 59.001 -22c48 -22.667 72 -50.334 72 -83.001s-24 -60.5 -72 -83.5
s-105.667 -34.5 -173 -34.5h-14c-62.667 1.33301 -116.334 12.666 -161.001 33.999c-48 23.333 -72 51.333 -72 84c0 32 23 59.333 69 82l-150 398l-152 -398c46.667 -22.667 70 -50 70 -82c0 -32.667 -24 -60.667 -72 -84c-45.333 -21.333 -99.333 -32.666 -162 -33.999
h-14c-67.333 -0 -124.666 11.333 -171.999 34c-48 23.333 -72 51.333 -72 84s24 60.334 72 83.001c18 8.66699 37.667 16 59 22c140.667 226 256.334 461.667 347.001 707c-90.667 245.333 -206.334 481.666 -347.001 708.999c-21.333 5.33301 -41 12.333 -59 21
c-48 23.333 -72 51.333 -72 84s24 60.5 72 83.5s106 34.5 174 34.5z" />
    <glyph glyph-name="y" unicode="y" horiz-adv-x="1257" 
d="M1187 1744c0 -32.667 -23.998 -60.666 -71.998 -83.999c-18.667 -8.66699 -38.334 -15.667 -59.001 -21c-114 -182.667 -211 -371.334 -291 -566.001v-858c10.667 -4 21.334 -8.66699 32.001 -14c48 -22.667 72 -50.334 72 -83.001s-24 -60.667 -72 -84
c-46.667 -22 -102.334 -33.333 -167.001 -34h-14c-65.333 0.666992 -121 12 -167 34c-48 23.333 -72 51.333 -72 84s24 60.334 72 83.001c13.333 6.66699 27.666 12.334 42.999 17.001c36 194 57.333 388 64 582l-38 130c-90.667 245.333 -206.334 481.666 -347.001 708.999
c-21.333 5.33301 -41 12.333 -59 21c-48 23.333 -72 51.333 -72 84s24 60.5 72 83.5s106 34.5 174 34.5h8c64.667 -1.33301 120 -13 166 -35c48 -22.667 72 -50.334 72 -83.001c0 -32 -23.333 -59.667 -70 -83l152 -398l150 398c-46 23.333 -69 51 -69 83
c0 32.667 24 60.334 72 83.001c44.667 22 98.334 33.667 161.001 35h13c68 0 126 -11.5 174 -34.5s72 -50.833 72 -83.5z" />
    <glyph glyph-name="z" unicode="z" horiz-adv-x="1031" 
d="M50 1616c0 68 11.501 126.004 34.501 174.004s50.833 72 83.5 72c20.667 0 39.334 -9.66699 56.001 -29c27.333 19.333 65.333 29 114 29h470c113.333 0 170 -53.333 170 -160c0 -12 -1.33301 -22.667 -4 -32c-0.666992 -20.667 -5.33398 -43.334 -14.001 -68.001
l-209 -590c45.333 -22.667 68 -49.667 68 -81c0 -32.667 -24 -60.667 -72 -84c-19.333 -8.66699 -40 -16 -62 -22l-201 -570c30 -4.66699 71.667 -5.33398 125 -2.00098c38 2 82.333 7.33301 133 16c2.66699 58 14 108.333 34 151c23.333 48 51.333 72 84 72
s60.5 -24 83.5 -72s34.5 -106 34.5 -174c0 -20 -1 -39 -3 -57c2 -8.66699 3 -18.334 3 -29.001c0 -68.667 -23.333 -115.334 -70 -140.001c-14.667 -13.333 -30.667 -20 -48 -20c-6 0 -11.667 0.666992 -17 2c-11.333 -1.33301 -23 -2 -35 -2h-470
c-113.333 -0 -170 53.333 -170 160c0 8.66699 0.666992 17 2 25c1.33301 20 6 42.333 14 67l3 8c108 182.667 200.333 371 277 565c-23.333 5.33301 -45 12.666 -65 21.999c-48 23.333 -72 51.333 -72 84s24 60.334 72 83.001c40.667 20 88.667 31.333 144 34
c58.667 180 104 365 136 555c-35.333 6 -81.333 7.5 -138 4.5s-124.334 -12.167 -203.001 -27.5c-19.333 0 -37 1 -53 3c-3.33301 -54 -14.666 -101 -33.999 -141c-22.667 -48 -50.334 -72 -83.001 -72s-60.5 24 -83.5 72s-34.5 106 -34.5 174z" />
    <glyph glyph-name="braceleft" unicode="{" horiz-adv-x="704" 
d="M406 894v-236.998c11.333 -384.667 47 -611.334 107 -680.001c107.333 -2 161 -39.333 161 -112v-1c0 -72.667 -53.667 -109.667 -161 -111c-261.333 3.33301 -392 135.333 -392 396c34.667 192 56.667 384.333 66 577c-31.333 8 -63.333 14.667 -96 20
c-54 2 -81 63.667 -81 185v1c0 121.333 27 183 81 185c32.667 5.33301 64.667 11.666 96 18.999c-9.33301 192.667 -31.333 385.667 -66 579c0 260 130.667 391.667 392 395c107.333 -2 161 -39 161 -111v-2c0 -72 -53.667 -108.667 -161 -110
c-60 -71.333 -95.667 -304.666 -107 -699.999v-213c-61.333 -23.333 -122.333 -37.333 -183 -42c56.667 -4.66699 117.667 -17.334 183 -38.001z" />
    <glyph glyph-name="bar" unicode="|" horiz-adv-x="512" 
d="M422 -97c0 -153.333 -47.333 -230 -142 -230c-91.333 0 -138 72.667 -140 218v12c100.667 686 100.667 1371.67 0 2057c0 153.333 40.667 230 122 230c106.667 0 160 -76.667 160 -230v-2057z" />
    <glyph glyph-name="braceright" unicode="}" horiz-adv-x="704" 
d="M481 932c-60.667 4.66699 -121.667 18.665 -183 41.998v213c-11.333 395.333 -47 628.666 -107 699.999c-107.333 1.33301 -161 38 -161 110v2c0 72 53.667 109 161 111c261.333 -3.33301 392 -135 392 -395c-34.667 -193.333 -56.667 -386.333 -66 -579
c31.333 -7.33301 63.333 -13.666 96 -18.999c54 -2 81 -63.667 81 -185v-1c0 -121.333 -27 -183 -81 -185c-32.667 -5.33301 -64.667 -12 -96 -20c9.33301 -192.667 31.333 -385 66 -577c0 -260.667 -130.667 -392.667 -392 -396c-107.333 1.33301 -161 38.333 -161 111v1
c0 72.667 53.667 110 161 112c60 68.667 95.667 295.334 107 680.001v237c65.333 20.667 126.333 33.334 183 38.001z" />
    <glyph glyph-name="asciitilde" unicode="~" horiz-adv-x="1100" 
d="M499 918c-56.667 30 -90.335 45.668 -101.002 47.001c-27.333 0 -67.666 -36.333 -120.999 -109c-55.333 -55.333 -104.333 -64.666 -147 -27.999c-49.333 43.333 -37.333 107 36 191c54.667 76 125.334 116 212.001 120c57.333 0 131 -23.333 221 -70
c57.333 -30.667 91.333 -46.334 102 -47.001c27.333 0 67.666 36.333 120.999 109c54.667 55.333 103.334 64.666 146.001 27.999c50 -43.333 38 -107 -36 -191c-54 -76 -124.333 -116 -211 -120c-58 0 -132 23.333 -222 70z" />
    <glyph glyph-name="exclamdown" unicode="&#xa1;" horiz-adv-x="565" 
d="M443 1372c0 -44 -53.667 -66.001 -161 -66.001c-108 0 -162 22 -162 66c37.333 62.667 37.333 126.334 0 191.001c0 44 54 66 162 66c107.333 0 161 -22 161 -66c-37.333 -68 -37.333 -131.667 0 -191zM443 -109.001c0 -82.667 -61 -124 -183 -124
c-93.333 0 -140 41.333 -140 124c115.333 370.667 115.333 741 0 1111v6c2 78.667 55.333 118 160 118c108.667 0 163 -41.333 163 -124v-1111z" />
    <glyph glyph-name="cent" unicode="&#xa2;" horiz-adv-x="1073" 
d="M921 1665l-50 -157.999c28 -42.667 48 -93.667 60 -153c-72.667 -94.667 -95 -194 -67 -298c-26.667 -51.333 -75.334 -74.333 -146.001 -69l-12 1l-237 -747c16 -6 35.333 -9 58 -9c83.333 0 125 16.333 125 49c-35.333 46.667 -58.333 94.667 -69 144
c-8 34 -10 68.667 -6 104c10.667 72 57.667 111.667 141 119c70.667 5.33301 119.334 -17.667 146.001 -69c-28 -104 -5.66699 -203.333 67 -298c-26.667 -135.333 -95.667 -226.666 -207 -273.999c-48.667 -26 -114.334 -39 -197.001 -39c-52 0 -99 4.66699 -141 14
l-27 -86c-42 -132 -100.667 -186 -176 -162c-73.333 22.667 -91 96.667 -53 222l3 11l60 130c-49.333 64 -73.666 151.333 -72.999 262c42.667 163.333 65.667 310.666 69 441.999v33c-3.33301 131.333 -26.333 278.666 -69 441.999c-0.666992 260.667 135 391 407 391
c59.333 0 110 -6.66699 152 -20l16 89c42 132 95.333 187.667 160 167c85.333 -26.667 107.333 -106 66 -238zM527 1402c-83.333 0 -124.998 -42.333 -124.998 -127v-659c89.333 252.667 163.666 510 222.999 772c-20.667 9.33301 -53.334 14 -98.001 14z" />
    <glyph glyph-name="sterling" unicode="&#xa3;" horiz-adv-x="1193" 
d="M602 361c0 -64 41.665 -98.332 124.998 -102.999c78.667 11.333 156.667 25 234 41c113.333 0 170 -43 170 -129c0 -113.333 -56.667 -170 -170 -170h-234c-271.333 0 -407 119.667 -407 359c40 152 62.667 323 68 513h-254c-49.333 0 -74 24.333 -74 73
c0 46.667 23.333 70.667 70 72h4c84.667 -20 169.334 -32.333 254.001 -37c-4.66699 193.333 -27.334 367.666 -68.001 522.999c0 260 135.667 390 407 390c110 0 199.833 -26.5 269.5 -79.5s114.5 -130.833 134.5 -233.5c-52.667 -68 -79 -138.667 -79 -212
c0 -28.667 4 -57.334 12 -86.001c-24 -46.667 -66.333 -70 -127 -70l-19 1c-83.333 7.33301 -130.333 47 -141 119l-2 35c0 74 25.667 145 77 213c0 17.333 -10.667 29.833 -32 37.5s-70.666 11.5 -147.999 11.5c-46.667 0 -70 -42.667 -70 -128v-516
c62.667 6.66699 125.334 17.334 188.001 32.001c49.333 0 74 -21 74 -63c0 -54.667 -24.667 -82 -74 -82h-188v-511z" />
    <glyph glyph-name="currency" unicode="&#xa4;" horiz-adv-x="1175" 
d="M587 711c82.667 0 124 18 124 54c-50 86 -75 169 -75 249s25 157.333 75 232c0 36 -41.333 54 -124 54c-82 0 -123 -18 -123 -54c50.667 -74.667 76 -152 76 -232s-25.333 -163 -76 -249c0 -36 41 -54 123 -54zM994 760c34 -39.333 51 -69.334 51 -90.001
c0 -8 -2.33301 -14.333 -7 -19c-57.333 -1.33301 -89.333 -33.333 -96 -96c-4.66699 -4.66699 -11 -7 -19 -7c-24 0 -61 23 -111 69c-60 -12 -134.667 -18 -224 -18s-164 6 -224 18c-50 -46 -87 -69 -111 -69c-8 0 -14.333 2.33301 -19 7c-4 61.333 -36 93.333 -96 96
c-4.66699 4.66699 -7 11 -7 19c0 20.667 16.667 50.334 50 89.001v6c47.333 82 71 163 71 243s-23.667 159.333 -71 238v5c-34 39.333 -51 69 -51 89c0 8 2.33301 14.333 7 19c60.667 5.33301 93 37.666 97 96.999c4.66699 4.66699 11 7 19 7c24 0 60.667 -23 110 -69
c60 12 135 18 225 18s165 -6 225 -18c50 46 86.667 69 110 69c8 0 14.333 -2.33301 19 -7c2.66699 -59.333 34.667 -91.666 96 -96.999c4.66699 -4.66699 7 -11 7 -19c0 -20.667 -17 -51 -51 -91v-3c-46.667 -74.667 -70 -152 -70 -232s23.333 -163 70 -249v-5z" />
    <glyph glyph-name="yen" unicode="&#xa5;" horiz-adv-x="1257" 
d="M377 118c0 32.667 23.998 60.332 71.998 82.999c13.333 6.66699 27.666 12.334 42.999 17.001c27.333 151.333 46.333 302.666 57 453.999h-263c-49.333 0 -74 24.333 -74 73c0 46.667 23.333 70.667 70 72h4c89.333 -21.333 179 -34 269 -38l1 21l-38 130l-15 39h-217
c-49.333 0 -74 24.333 -74 73c0 46.667 23.333 70.667 70 72h4c57.333 -14 114.333 -24.333 171 -31c-80 190.667 -175.333 376 -286 556c-21.333 5.33301 -41 12.333 -59 21c-48 23.333 -72 51.333 -72 84s24 60.5 72 83.5s106 34.5 174 34.5h12
c62.667 -1.33301 116.667 -13 162 -35c48 -22.667 72 -50.334 72 -83.001c0 -32 -23.333 -59.667 -70 -83l152 -398l150 398c-46 23.333 -69 51 -69 83c0 32.667 24 60.334 72 83.001c44.667 22 98.334 33.667 161.001 35h13c68 0 126 -11.5 174 -34.5s72 -50.833 72 -83.5
s-24 -60.667 -72 -84c-18.667 -8.66699 -38.667 -15.667 -60 -21c-111.333 -179.333 -206.666 -364.666 -285.999 -555.999c58 6.66699 115.667 17 173 31c49.333 0 74 -21 74 -63c0 -54.667 -24.667 -82 -74 -82h-177v-183c59.333 6.66699 118.333 17 177 31
c49.333 0 74 -21 74 -63c0 -54.667 -24.667 -82 -74 -82h-177v-458c10.667 -3.33301 21.334 -7.66602 32.001 -12.999c48 -22.667 72 -50.334 72 -83.001s-24 -60.5 -72 -83.5s-106 -34.5 -174 -34.5s-126 11.5 -174 34.5s-72 50.833 -72 83.5z" />
    <glyph glyph-name="brokenbar" unicode="&#xa6;" horiz-adv-x="512" 
d="M140 662c0 81.333 15.668 122 47.001 122c46 -28 91.667 -28 137 0c32 0 48 -40.667 48 -122v-540c0 -81.333 -16 -122 -48 -122c-42.667 28 -88.334 28 -137.001 0c-31.333 0 -47 40.667 -47 122v540zM140.001 1607c0 81.333 15.668 122 47.001 122
c46 -28 91.667 -28 137 0c32 0 48 -40.667 48 -122v-499c0 -81.333 -16 -122 -48 -122c-42.667 28 -88.334 28 -137.001 0c-31.333 0 -47 40.667 -47 122v499z" />
    <glyph glyph-name="section" unicode="&#xa7;" horiz-adv-x="1053" 
d="M738 421c46.667 -36 81.667 -75.0029 105 -117.003c18 -32 32.667 -81 44 -147c11.333 -62 26 -121 44 -177c0 -204.667 -135.667 -307 -407 -307c-110 0 -199.833 20.833 -269.5 62.5s-114.5 102.834 -134.5 183.501c52.667 54 79 109.667 79 167c0 22 -4 44.333 -12 67
c24 36.667 65.667 55 125 55l21 -1c83.333 -5.33301 130.333 -36.333 141 -93l2 -28c0 -58 -25.667 -113.667 -77 -167c0 -26 41.667 -39 125 -39c83.333 0.666992 125 34.334 125 101.001c-14.667 60.667 -29.667 114.334 -45 161.001c-16.667 50 -109.667 146 -279 288
c-58.667 42 -100.667 89.333 -126 142c-12.667 27.333 -24.5 71.333 -35.5 132s-25.5 119.334 -43.5 176.001c0 140.667 64.333 232.667 193 276c-52.667 40 -90.667 84.667 -114 134c-12.667 27.333 -24.5 71.333 -35.5 132s-25.5 119.334 -43.5 176.001
c0 204 135.667 306 407 306c110 0 199.833 -20.833 269.5 -62.5s114.5 -102.834 134.5 -183.501c-52.667 -54 -79 -109.667 -79 -167c0 -22 4 -44.333 12 -67c-24 -36.667 -65.667 -55 -125 -55l-21 1c-83.333 5.33301 -130.333 36.333 -141 93l-2 28
c0 58 25.667 113.667 77 167c0 26 -41.667 39 -125 39c-83.333 -0.666992 -125 -34.334 -125 -101.001c25.333 -107.333 47 -175 65 -203c38 -60 124.333 -141.667 259 -245c52.667 -38 91.667 -80 117 -126c18 -32 32.667 -81 44 -147c11.333 -62 26 -121 44 -177
c0 -140.667 -64.333 -233 -193 -277zM513 978.997c-74 -4.66699 -111 -38.335 -111 -101.002c25.333 -107.333 47 -175 65 -203c14 -22.667 35.333 -48.334 64 -77.001c78.667 2.66699 118 36.334 118 101.001c-14.667 60.667 -29.667 114.334 -45 161.001
c-8.66699 26.667 -39 66.334 -91 119.001z" />
    <glyph glyph-name="dieresis" unicode="&#xa8;" horiz-adv-x="899" 
d="M374 1989c0 -33.333 -40.667 -50.001 -122 -50.001s-122 16.667 -122 50c28 48.667 28 96.667 0 144.001c0 33.333 40.667 50 122 50s122 -16.667 122 -50c-28 -44.667 -28 -92.667 0 -144zM770 1989c0 -33.333 -40.667 -50 -122 -50s-122 16.667 -122 50
c28 48.667 28 96.667 0 144c0 33.333 40.667 50 122 50s122 -16.667 122 -50c-28 -44.667 -28 -92.667 0 -144z" />
    <glyph glyph-name="copyright" unicode="&#xa9;" horiz-adv-x="1463" 
d="M1154 1340c0 260.667 -141 391 -423 391c-282.667 0 -424 -134.667 -424 -404v-761c0 -260.667 141 -391 423 -391c282.667 0 424 134.333 424 403v762zM1341 578c0 -384.667 -203.667 -577 -611 -577c-406.667 0 -610 188.333 -610 565c94 258 94 511.667 0 761
c0 385.333 203.333 578 610 578c407.333 0 611 -188.333 611 -565c-94 -258 -94 -512 0 -762zM650 573c0 -56 27.667 -83.998 83 -83.998c56 -0.666992 84 10 84 32c-23.333 30.667 -38.666 62.667 -45.999 96c-5.33301 22.667 -6.66602 45.667 -3.99902 69
c7.33301 47.333 38.666 73.666 93.999 78.999c47.333 3.33301 79.666 -12 96.999 -46c-18.667 -69.333 -3.66699 -135.333 45 -198c-18 -90 -64 -150.667 -138 -182c-32.667 -17.333 -76.667 -26 -132 -26c-181.333 0 -271.666 86.667 -270.999 260
c28.667 108.667 44 231.667 46 369v21c-2 137.333 -17.333 260.333 -46 369c-0.666992 173.333 89.666 260 270.999 260c55.333 0 99.333 -8.66699 132 -26c74 -31.333 120 -92 138 -182c-48.667 -62.667 -63.667 -128.667 -45 -198
c-17.333 -34 -49.666 -49.333 -96.999 -46c-55.333 5.33301 -86.666 31.666 -93.999 78.999c-2.66699 23.333 -1.33398 46.333 3.99902 69c7.33301 33.333 22.666 65.333 45.999 96c0 22 -28 32.667 -84 32c-55.333 0 -83 -28 -83 -84v-759z" />
    <glyph glyph-name="ordfeminine" unicode="&#xaa;" horiz-adv-x="761" 
d="M439 991c0 18 13.335 33.332 40.002 45.999l21 8l-20 100h-185l-21 -100l20 -8c26.667 -12.667 40 -28 40 -46c0 -18.667 -13.333 -34.334 -40 -47.001c-24.667 -12 -54.334 -18.333 -89.001 -19c-5.33301 -0.666992 -11.333 -0.666992 -18 0c-34 0.666992 -63 7 -87 19
c-26.667 12.667 -40 28.334 -40 47.001c0 18 13.333 33.333 40 46c7.33301 3.33301 15 6.33301 23 9c90 260 146.333 527.667 169 803c-0.666992 0 -1.33398 0.333008 -2.00098 1c-26.667 12.667 -40 28 -40 46c0 18.667 13.333 34.334 40 47.001s59 19 97 19
s70.333 -6.33301 97 -19s40 -28.334 40 -47.001c0 -18 -13.333 -33.333 -40 -46c-0.666992 -0.666992 -1.66699 -1 -3 -1c22.667 -275.333 78.667 -543 168 -803c8.66699 -2.66699 16.667 -5.66699 24 -9c26.667 -12.667 40 -28 40 -46
c0 -18.667 -13.333 -34.334 -40 -47.001c-24 -11.333 -53 -17.666 -87 -18.999c-6 -0.666992 -12 -0.666992 -18 0c-34 0.666992 -63.667 7 -89 19c-26.667 12.667 -40 28.334 -40 47.001zM189.002 520.999c-81.333 0 -122 13.332 -122 39.999c28 38.667 28 77 0 115
c0 26.667 40.667 40 122 40h375c81.333 0 122 -13.333 122 -40c-28 -35.333 -28 -73.666 0 -114.999c0 -26.667 -40.667 -40 -122 -40h-375zM321.002 1293h132c-36.667 100.667 -58.667 244.334 -66 431.001c-7.33301 -186.667 -29.333 -330.334 -66 -431.001z" />
    <glyph glyph-name="guillemotleft" unicode="&#xab;" horiz-adv-x="968" 
d="M790 1647v-213.999c0 -81.333 -12 -122 -36 -122c-36 28 -72 28 -108 0c-24 0 -36 40.667 -36 122v214c-38.667 10.667 -58 30 -58 58c34 65.333 34 129.666 0 192.999c0 44.667 49.333 67 148 67s148 -22.333 148 -67c-34 -60 -34 -124.333 0 -193
c0 -28 -19.333 -47.333 -58 -58zM358 1647v-213.999c0 -81.333 -12 -122 -36 -122c-36 28 -72 28 -108 0c-24 0 -36 40.667 -36 122v214c-38.667 10.667 -58 30 -58 58c34 65.333 34 129.666 0 192.999c0 44.667 49.333 67 148 67s148 -22.333 148 -67
c-34 -60 -34 -124.333 0 -193c0 -28 -19.333 -47.333 -58 -58z" />
    <glyph glyph-name="logicalnot" unicode="&#xac;" horiz-adv-x="1067" 
d="M937 699c0 -80.667 -38 -121 -114 -121c-58 0 -87 40.333 -87 121c13.333 66.667 24 133.334 32 200.001h-517c-80.667 0 -121 33.667 -121 101c0 65.333 38.333 98.666 115 99.999h6c188.667 -72 377 -72 565 0c80.667 0 121 -29 121 -87v-314z" />
    <glyph glyph-name="registered" unicode="&#xae;" horiz-adv-x="1463" 
d="M1341 578c0 -384.667 -203.667 -577 -611 -577c-406.667 0 -610 188.333 -610 565c94 258 94 511.667 0 761c0 385.333 203.333 578 610 578c407.333 0 611 -188.333 611 -565c-94 -258 -94 -512 0 -762zM1154 1340c0 260.667 -141 391 -423 391
c-282.667 0 -424 -134.667 -424 -404v-761c0 -260.667 141 -391 423 -391c282.667 0 424 134.333 424 403v762zM374 412c0 21.333 16.002 39.665 48.002 54.998c8.66699 4 18.334 7.66699 29.001 11c60.667 327.333 58.667 654.666 -6 981.999v6
c1.33301 71.333 32.333 107 93 107l177 -1c104.667 0 176.667 -34 216 -102c17.333 -28 28.666 -62.333 33.999 -103v-2c-69.333 -90.667 -70.333 -187.334 -3 -290.001c-12.667 -88 -60 -149.667 -142 -185c42 -140 96 -276.667 162 -410
c13.333 -3.33301 25.666 -7.66602 36.999 -12.999c32 -15.333 48 -33.666 48 -54.999c0 -22 -16 -40.667 -48 -56s-70.667 -23 -116 -23c-44.667 0 -83 7.66699 -115 23s-48 34 -48 56c0 21.333 16 39.666 48 54.999c1.33301 0.666992 3 1.33398 5 2.00098l-109 395h-52
v-388c7.33301 -2.66699 14.666 -5.66699 21.999 -9c32 -15.333 48 -33.666 48 -54.999c0 -22 -16 -40.667 -48 -56s-70.667 -23 -116 -23h-24c-35.333 2.66699 -66 10.334 -92 23.001c-32 15.333 -48 34 -48 56zM794.002 1365c0 21.333 -27.332 31.999 -81.999 31.999h-2
c-42.667 0 -68.667 -6.66699 -78 -20v-314c8.66699 -14 35 -21 79 -21c55.333 0 83 11 83 33c-44 66.667 -59.333 131.334 -46 194.001c7.33301 32.667 22.666 64.667 45.999 96z" />
    <glyph glyph-name="macron" unicode="&#xaf;" horiz-adv-x="1208" 
d="M122 1752c-81.333 0 -122 14.668 -122 44.001c28 42 28 83.667 0 125c0 29.333 40.667 44 122 44h964c81.333 0 122 -14.667 122 -44c-28 -38.667 -28 -80.334 0 -125.001c0 -29.333 -40.667 -44 -122 -44h-964z" />
    <glyph glyph-name="degree" unicode="&#xb0;" horiz-adv-x="877" 
d="M748 1560c0 -84 -102.667 -126 -308 -126c-206 0 -309 42 -309 126c71.333 130 71.333 251.667 0 365c0 84 103 126 309 126c205.333 0 308 -42 308 -126c-71.333 -113.333 -71.333 -235 0 -365zM533 1925c0 27.333 -31 41 -93 41h-2c-61.333 0 -92 -13.667 -92 -41
c76 -113.333 76 -235 0 -365c0 -27.333 31 -41 93 -41c62.667 0 94 13.667 94 41c-76 130 -76 251.667 0 365z" />
    <glyph glyph-name="plusminus" unicode="&#xb1;" horiz-adv-x="1047" 
d="M241 866c-80.667 0 -120.999 15.668 -120.999 47.001c28 46 28 91.667 0 137c0 31.333 40.333 47 121 47h167v166c0 80.667 15.667 121 47 121c46 -28 91.667 -28 137 0c31.333 0 47 -40.333 47 -121v-166h165c80.667 0 121 -15.667 121 -47
c-28 -42.667 -28 -88.334 0 -137.001c0 -31.333 -40.333 -47 -121 -47h-165v-166c0 -80.667 -15.667 -121 -47 -121c-42.667 28 -88.334 28 -137.001 0c-31.333 0 -47 40.333 -47 121v166h-167zM242.001 160.001c-81.333 0 -122 14.333 -122 43c28 42 28 84 0 126
c0 28.667 40.667 43 122 43h561c81.333 0 122 -14.333 122 -43c-28 -39.333 -28 -81.333 0 -126c0 -28.667 -40.667 -43 -122 -43h-561z" />
    <glyph glyph-name="twosuperior" unicode="&#xb2;" horiz-adv-x="748" 
d="M577 1119c19.333 0 35.6699 -14 49.0029 -42s20 -62 20 -102s-6.66699 -74 -20 -102s-29.666 -42 -48.999 -42c-12.667 0 -24 5.66699 -34 17c-16.667 -11.333 -38.667 -17 -66 -17h-137c-160 0 -239.667 70.333 -239 211c10 41.333 18.333 85.333 25 132
c4.66699 31.333 7.66699 49.666 9 54.999c11.333 56.667 40 105.667 86 147l1 1c19.333 19.333 48.333 50 87 92s63.334 80.333 74.001 115c10.667 42.667 20 85 28 127c0 49.333 -24.333 74.333 -73 75c-48.667 0 -73 -9.66699 -73 -29c20.667 -27.333 34 -55.333 40 -84
c4.66699 -20 6 -40.333 4 -61c-6.66699 -42 -34.334 -65.333 -83.001 -70c-42 -2.66699 -70.667 11 -86 41c16 60.667 3 118.667 -39 174c15.333 79.333 55.666 133 120.999 161c28.667 15.333 67.334 23 116.001 23c160 0 239.667 -76.333 239 -229
c-10.667 -41.333 -19.334 -85.333 -26.001 -132c-4 -31.333 -7 -49.666 -9 -54.999c-10.667 -56.667 -39.334 -106 -86.001 -148v-1c-96.667 -102.667 -150.334 -171.667 -161.001 -207c-11.333 -42.667 -21 -84.667 -29 -126c0 -38 24.667 -58.333 74 -61
c46 6.66699 91.667 14.667 137 24c11.333 0 22 -1 32 -3c2.66699 28 9 52.667 19 74c13.333 28 29.666 42 48.999 42z" />
    <glyph glyph-name="threesuperior" unicode="&#xb3;" horiz-adv-x="679" 
d="M577 1039c0.666992 -154.667 -79 -231.999 -239 -231.999c-48.667 0 -87.334 7.66699 -116.001 23c-65.333 28 -106 82.333 -122 163c42.667 56 55.667 115 39 177c16 30.667 44.667 44.334 86 41.001c49.333 -4.66699 77 -28.334 83 -71.001
c2.66699 -20.667 1.66699 -41.334 -3 -62.001c-6.66699 -28.667 -20.334 -57 -41.001 -85c0 -19.333 24.667 -29 74 -29c48.667 0 73 25.333 73 76v305c-64.667 0.666992 -97 32.334 -97 95.001c0 47.333 32.333 71.333 97 72v215c0 50.667 -24.333 76 -73 76
c-49.333 0 -74 -9.66699 -74 -29c20.667 -28 34.334 -56.333 41.001 -85c4.66699 -20.667 5.66699 -41.334 3 -62.001c-6 -42.667 -33.667 -66.334 -83 -71.001c-41.333 -3.33301 -70 10.334 -86 41.001c16.667 62 3.66699 121 -39 177c16 80.667 56.667 135 122 163
c28.667 15.333 67.334 23 116.001 23c160 0 239.667 -77.333 239 -232c-12 -44.667 -21 -97.667 -27 -159c-6.66699 -64.667 -28 -111.667 -64 -141c36 -30 55.667 -84 59 -162s14 -153.667 32 -227z" />
    <glyph glyph-name="acute" unicode="&#xb4;" horiz-adv-x="756" 
d="M387 1961c-199.333 -30.667 -282.668 -30.668 -250.001 -0.000976562c167.333 72.667 245.333 148.334 234 227.001c17.333 8.66699 62.333 -3.66602 135 -37c94.667 -43.333 133.334 -69 116.001 -77z" />
    <glyph glyph-name="mu" unicode="&#xb5;" horiz-adv-x="1051" 
d="M412 -20v-137c0 -113.333 -46.333 -170 -139 -170c-93.333 0 -141 53.667 -143 161c19.333 99.333 36.666 205.666 51.999 318.999c-26 56 -39 125 -39 207c50.667 94 76 217.667 76 371c0 71.333 -8.16699 178.5 -24.5 321.5s-37.833 282.5 -64.5 418.5
c2 107.333 49.667 161 143 161c92.667 0 139 -56.667 139 -170v-1102c0 -84 41 -126 123 -126c82.667 0 127.334 42 134.001 126c46 93.333 69 215 69 365c0 75.333 -8.16699 184.333 -24.5 327s-37.833 282.334 -64.5 419.001c2 107.333 49.667 161 143 161
c92.667 0 139 -56.667 139 -170v-1482c0 -113.333 -46.333 -170 -139 -170c-93.333 0 -141 53.667 -143 161c0.666992 2.66699 1 5 1 7c-34.667 -6.66699 -73 -10 -115 -10c-44.667 0 -85.667 4 -123 12z" />
    <glyph glyph-name="paragraph" unicode="&#xb6;" horiz-adv-x="1660" 
d="M1128 1596l-265 0.000976562c-38 -221.333 -57 -443 -57 -665c0 -253.333 25 -507 75 -761c0 -113.333 -40.667 -170 -122 -170c-106.667 0 -160 56.667 -160 170v628h-41c-272.667 0 -424 105.333 -454 316c50 76 75 150 75 222c0 73.333 -26.333 144.333 -79 213v3
c24.667 206 149.667 309 375 309l264 1h549c24.667 0 45.667 -5.66699 63 -17c39.333 -5.33301 74.333 -15.333 105 -30c48 -22.667 72 -50.334 72 -83.001s-24 -60.667 -72 -84c-18 -8.66699 -37.667 -15.667 -59 -21c-41.333 -232 -62 -464 -62 -696
c0 -253.333 25 -507 75 -761v-9c-2 -107.333 -48.667 -161 -140 -161c-94.667 0 -142 56.667 -142 170v1426z" />
    <glyph glyph-name="periodcentered" unicode="&#xb7;" horiz-adv-x="508" 
d="M396 899c0 -37.333 -46 -55.999 -138 -55.999s-138 18.667 -138 56c32 56 32 110.667 0 164c0 37.333 46 56 138 56s138 -18.667 138 -56c-32 -50.667 -32 -105.334 0 -164.001z" />
    <glyph glyph-name="periodcentered" unicode="&#x2219;" horiz-adv-x="508" 
d="M396 899c0 -37.333 -46 -55.999 -138 -55.999s-138 18.667 -138 56c32 56 32 110.667 0 164c0 37.333 46 56 138 56s138 -18.667 138 -56c-32 -50.667 -32 -105.334 0 -164.001z" />
    <glyph glyph-name="cedilla" unicode="&#xb8;" horiz-adv-x="634" 
d="M329 -16l53.999 -49.999c26.667 -20.667 43.334 -45.334 50.001 -74.001l5 -28c4 -23.333 9 -45.333 15 -66c0 -77.333 -46.333 -116 -139 -116c-77.333 0 -123 30.667 -137 92c18 20 27 41 27 63c0 8 -1.33301 16.333 -4 25c8 14 22.333 21 43 21h6
c28.667 -2 44.667 -13.667 48 -35l1 -12c0 -21.333 -8.66699 -42 -26 -62c0 -9.33301 14 -14 42 -14c28.667 0 43 12.667 43 38l-16 64c-6.66699 17.333 -38 52 -94 104c-8 8.66699 -12 17.667 -12 27v5c3.33301 21.333 19.333 33 48 35h6c18.667 0 32 -5.66699 40 -17z" />
    <glyph glyph-name="onesuperior" unicode="&#xb9;" horiz-adv-x="699" 
d="M294 1750c-9.33301 1.33301 -19.666 2 -30.999 2c-12 0 -23.667 -1.33301 -35 -4c-65.333 0 -98 23.667 -98 71c0 62 32.667 93 98 93h124c61.333 0 92 -33 92 -99v-829h1l54 10c65.333 0 98 -23.667 98 -71c0 -62 -32.667 -93 -98 -93h-271c-65.333 0 -98 31 -98 93
c0 47.333 32.667 71 98 71c21.333 -4.66699 42.666 -8.66699 63.999 -12c22.667 130 34 259.667 34 389c0 126.667 -10.667 253 -32 379z" />
    <glyph glyph-name="ordmasculine" unicode="&#xba;" horiz-adv-x="777" 
d="M655 1100c0 -138.667 -89 -208 -267 -208c-178.667 0.666992 -268 70 -268 208c62 214.667 62 416 0 604c0 138.667 89.333 208 268 208c178 0 267 -69.333 267 -208c-62 -188 -62 -389.333 0 -604zM469 1704c0 45.333 -27 68 -81 68h-1c-54 0 -81 -22.667 -81 -68
c66.667 -188 66.667 -389.333 0 -604c0 -44.667 27 -67 81 -67c54.667 0 82 22.333 82 67c-66.667 214.667 -66.667 416 0 604zM252 465c-81.333 0 -122 12.333 -122 37c28 34.667 28 69 0 103c0 24.667 40.667 37 122 37h272c81.333 0 122 -12.333 122 -37
c-28 -32 -28 -66.333 0 -103c0 -24.667 -40.667 -37 -122 -37h-272z" />
    <glyph glyph-name="guillemotright" unicode="&#xbb;" horiz-adv-x="968" 
d="M790 1647v-213.999c0 -81.333 -12 -122 -36 -122c-36 28 -72 28 -108 0c-24 0 -36 40.667 -36 122v214c-38.667 10.667 -58 30 -58 58c34 65.333 34 129.666 0 192.999c0 44.667 49.333 67 148 67s148 -22.333 148 -67c-34 -60 -34 -124.333 0 -193
c0 -28 -19.333 -47.333 -58 -58zM358 1647v-213.999c0 -81.333 -12 -122 -36 -122c-36 28 -72 28 -108 0c-24 0 -36 40.667 -36 122v214c-38.667 10.667 -58 30 -58 58c34 65.333 34 129.666 0 192.999c0 44.667 49.333 67 148 67s148 -22.333 148 -67
c-34 -60 -34 -124.333 0 -193c0 -28 -19.333 -47.333 -58 -58z" />
    <glyph glyph-name="onequarter" unicode="&#xbc;" horiz-adv-x="1609" 
d="M665 0c-99.333 0 -148.999 45.999 -148.999 137.999c0 19.333 3.33301 42 10 68c221.333 480.667 344.666 985.334 369.999 1514c23.333 96 65 144 125 144c10.667 0 22 -1.66699 34 -5c82 -21.333 123 -69.333 123 -144c0 -20 -3 -41.667 -9 -65l-369 -1510
c-22.667 -93.333 -67.667 -140 -135 -140zM1361 68.999c0 -19.333 -13.667 -35.667 -41 -49c-25.333 -12.667 -56 -19.334 -92 -20.001h-15c-36 0.666992 -67 7.33398 -93 20.001c-27.333 13.333 -41 29.666 -41 48.999c0 18.667 13.667 34.667 41 48l20 8v140h-144
c-67.333 0 -101 31 -101 93c0 4.66699 12 57 36 157c19.333 87.333 43 188.333 71 303l45 183c13.333 52.667 39 79.667 77 81h107c46.667 0 70 -33 70 -99c-28.667 -147.333 -43 -294.666 -43 -441.999c0 -42 1 -83.667 3 -125c26 2.66699 54.333 7 85 13
c67.333 0 101 -23.667 101 -71c0 -62 -33.667 -93 -101 -93h-71c5.33301 -46.667 12 -93 20 -139c8.66699 -2.66699 17 -5.66699 25 -9c27.333 -13.333 41 -29.333 41 -48zM489.001 829.998h-271.001c-65.333 0 -98 31 -98 93c0 47.333 32.667 71 98 71l64 -12
c22.667 130 34 259.667 34 389c0 126.667 -10.667 253 -32 379c-9.33301 1.33301 -19.666 2 -30.999 2c-12 0 -23.667 -1.33301 -35 -4c-65.333 0 -98 23.667 -98 71c0 62 32.667 93 98 93h124c61.333 0 92 -33 92 -99v-829l55 10c65.333 0 98 -23.667 98 -71
c0 -62 -32.667 -93 -98 -93zM1062 416.998c24 -2 50.001 -3.33301 78.001 -4v389c-34.667 -90.667 -54.834 -156.5 -60.501 -197.5s-11.5 -103.5 -17.5 -187.5z" />
    <glyph glyph-name="onehalf" unicode="&#xbd;" horiz-adv-x="1758" 
d="M1169 1650l-369 -1510c-27.333 -112.667 -87 -157.334 -179 -134.001c-88.667 22.667 -121 87.667 -97 195l3 9c220.667 478 343.667 981.333 369 1510c27.333 112.667 80.333 159 159 139c103.333 -26.667 141.333 -96.334 114 -209.001zM1586 288.002
c19.333 0 35.665 -13.999 48.998 -41.999s20 -62 20 -102s-6.66699 -74 -20 -102s-29.666 -42 -48.999 -42c-12 0 -23.333 5.66699 -34 17c-16 -11.333 -37.667 -17 -65 -17h-138c-160 0 -239.667 70.333 -239 211c10.667 41.333 19.334 85.333 26.001 132
c4 31.333 7 49.666 9 54.999c10.667 56.667 39.334 105.667 86.001 147v1c20 19.333 49 50 87 92c38.667 42 63.334 80.333 74.001 115c11.333 42.667 21 85 29 127c0 49.333 -24.667 74.333 -74 75c-48.667 0 -73 -9.66699 -73 -29c20.667 -27.333 34 -55.333 40 -84
c5.33301 -20 6.66602 -40.333 3.99902 -61c-6 -42 -33.667 -65.333 -83 -70c-41.333 -2.66699 -70 11 -86 41c16.667 60.667 3.66699 118.667 -39 174c15.333 79.333 56 133 122 161c28.667 15.333 67 23 115 23c160 0 239.667 -76.333 239 -229
c-10 -41.333 -18.333 -85.333 -25 -132c-4.66699 -31.333 -7.66699 -49.666 -9 -54.999c-11.333 -56.667 -40 -106 -86 -148v-1c-97.333 -102.667 -151.333 -171.667 -162 -207c-10.667 -42.667 -20 -84.667 -28 -126c0 -38 24.333 -58.333 73 -61
c46 6.66699 92 14.667 138 24c11.333 0 21.666 -0.666992 30.999 -2c2.66699 27.333 9 51.666 19 72.999c14 28 30.333 42 49 42zM283.999 1750c-9.33301 1.33301 -19.666 2 -30.999 2c-12 0 -23.667 -1.33301 -35 -4c-65.333 0 -98 23.667 -98 71c0 62 32.667 93 98 93h124
c61.333 0 92 -33 92 -99v-829l55 10c65.333 0 98 -23.667 98 -71c0 -62 -32.667 -93 -98 -93h-271c-65.333 0 -98 31 -98 93c0 47.333 32.667 71 98 71c21.333 -4.66699 42.666 -8.66699 63.999 -12c22.667 130 34 259.667 34 389c0 126.667 -10.667 253 -32 379z" />
    <glyph glyph-name="threequarters" unicode="&#xbe;" horiz-adv-x="1549" 
d="M1169 1650l-369 -1510c-27.333 -112.667 -87 -157.334 -179 -134.001c-88.667 22.667 -121 87.667 -97 195l3 9c220.667 478 343.667 981.333 369 1510c27.333 112.667 80.333 159 159 139c103.333 -26.667 141.333 -96.334 114 -209.001zM577 1039
c0.666992 -154.667 -79 -231.999 -239 -231.999c-48.667 0 -87.334 7.66699 -116.001 23c-65.333 28 -106 82.333 -122 163c42.667 56 55.667 115 39 177c16 30.667 44.667 44.334 86 41.001c49.333 -4.66699 77 -28.334 83 -71.001
c2.66699 -20.667 1.66699 -41.334 -3 -62.001c-6.66699 -28.667 -20.334 -57 -41.001 -85c0 -19.333 24.667 -29 74 -29c48.667 0 73 25.333 73 76v305c-64.667 0.666992 -97 32.334 -97 95.001c0 47.333 32.333 71.333 97 72v215c0 50.667 -24.333 76 -73 76
c-49.333 0 -74 -9.66699 -74 -29c20.667 -28 34.334 -56.333 41.001 -85c4.66699 -20.667 5.66699 -41.334 3 -62.001c-6 -42.667 -33.667 -66.334 -83 -71.001c-41.333 -3.33301 -70 10.334 -86 41.001c16.667 62 3.66699 121 -39 177c16 80.667 56.667 135 122 163
c28.667 15.333 67.334 23 116.001 23c160 0 239.667 -77.333 239 -232c-12 -44.667 -21 -97.667 -27 -159c-6.66699 -64.667 -28 -111.667 -64 -141c36 -30 55.667 -84 59 -162s14 -153.667 32 -227zM1361 69.0029c0 -19.333 -13.666 -35.667 -40.999 -49
s-60.333 -20 -99 -20h-1c-38.667 0 -71.834 6.66699 -99.501 20s-41.5 29.666 -41.5 48.999c0 18.667 13.667 34.667 41 48l20 8v140h-144c-67.333 0 -101 31 -101 93c0 4.66699 12 57 36 157c19.333 87.333 43 188.333 71 303l45 183c13.333 52.667 39 79.667 77 81h107
c46.667 0 70 -33 70 -99c-28.667 -147.333 -43 -294.666 -43 -441.999c0 -42 1 -83.667 3 -125c26 2.66699 54.333 7 85 13c67.333 0 101 -23.667 101 -71c0 -62 -33.667 -93 -101 -93h-71c5.33301 -46.667 12 -93 20 -139c8.66699 -2.66699 17 -5.66699 25 -9
c27.333 -13.333 41 -29.333 41 -48zM1062 417.002c24 -2 50.001 -3.33301 78.001 -4v389c-34.667 -90.667 -54.834 -156.5 -60.501 -197.5s-11.5 -103.5 -17.5 -187.5z" />
    <glyph glyph-name="questiondown" unicode="&#xbf;" horiz-adv-x="1053" 
d="M726 698l-1.00293 -1c-33.333 -33.333 -82.833 -85.666 -148.5 -156.999s-107.834 -137 -126.501 -197c-18.667 -72.667 -34.667 -144.667 -48 -216c0 -84.667 41.667 -127.334 125 -128.001c83.333 0 125 16.333 125 49c-35.333 46.667 -58.333 94.667 -69 144
c-8 34 -10 68.667 -6 104c10.667 72 57.667 111.667 141 119c70.667 5.33301 119.334 -17.667 146.001 -69c-28 -104 -5.66699 -203.333 67 -298c-26.667 -135.333 -95.667 -226.666 -207 -273.999c-48.667 -26 -114.334 -39 -197.001 -39c-272 0 -407.667 130.333 -407 391
c18 70.667 32.667 145.667 44 225c7.33301 53.333 12.333 84.666 15 93.999c18.667 96.667 67.334 180.667 146.001 252v1c96.667 102.667 168.334 185.667 215.001 249v1c2.66699 107.333 57.334 161 164.001 161c110.667 0 165.667 -57 165 -171h-1
c-19.333 -92 -66.666 -172 -141.999 -240zM862.997 1372c0 -44 -53.667 -66.001 -161 -66.001c-108 0 -162 22 -162 66c37.333 62.667 37.333 126.334 0 191.001c0 44 54 66 162 66c107.333 0 161 -22 161 -66c-37.333 -68 -37.333 -131.667 0 -191z" />
    <glyph glyph-name="Agrave" unicode="&#xc0;" horiz-adv-x="1255" 
d="M721 118c0 32.667 23.999 60.334 71.999 83.001c11.333 6 23.333 11 36 15l-36 179h-332l-37 -179c12.667 -4.66699 24.667 -9.66699 36 -15c48 -22.667 72 -50.334 72 -83.001s-24 -60.667 -72 -84c-46 -22 -100.667 -33.333 -164 -34h-16
c-65.333 0.666992 -121.333 12 -168 34c-48 23.333 -72 51.333 -72 84s24 60.334 72 83.001c13.333 6.66699 27.333 12.334 42 17.001c160.667 466.667 261.334 947 302.001 1441c-1.33301 0 -2.33301 0.333008 -3 1c-48 23.333 -72 51.333 -72 84s24 60.334 72 83.001
c46 22 101 33.667 165 35h18c64 -1.33301 119 -13 165 -35c48 -22.667 72 -50.334 72 -83.001s-24 -60.667 -72 -84c-1.33301 -0.666992 -2.66602 -1 -3.99902 -1c40.667 -494 141 -974.333 301 -1441c15.333 -4.66699 29.666 -10.334 42.999 -17.001
c48 -22.667 72 -50.334 72 -83.001s-24 -60.5 -72 -83.5s-106 -34.5 -174 -34.5s-126 11.5 -174 34.5s-72 50.833 -72 83.5zM507.999 661h238.002c-66.667 180 -106.334 438 -119.001 774c-12.667 -336 -52.334 -594 -119.001 -774zM300.001 2074
c-17.333 8 21.333 33.6689 116 77.002c72.667 33.333 117.667 45.666 135 36.999c-11.333 -78.667 66.667 -154.334 234 -227.001c32 -30.667 -51.667 -30.667 -251 0z" />
    <glyph glyph-name="Aacute" unicode="&#xc1;" horiz-adv-x="1255" 
d="M721 118c0 32.667 24 60.666 72 83.999c11.333 5.33301 23.333 10 36 14l-36 179h-332l-37 -179c12.667 -4 24.667 -8.66699 36 -14c48 -23.333 72 -51.333 72 -84s-24 -60.334 -72 -83.001c-46 -22.667 -100.667 -34.334 -164 -35.001h-16
c-65.333 0.666992 -121.333 12.334 -168 35.001c-48 22.667 -72 50.334 -72 83.001s24 60.667 72 84c13.333 6 27.333 11.333 42 16c160.667 466.667 261.334 947 302.001 1441c-1.33301 0.666992 -2.33301 1.33398 -3 2.00098c-48 22.667 -72 50.334 -72 83.001
s24 60.667 72 84c46 21.333 101 32.666 165 33.999h18c64 -1.33301 119 -12.666 165 -33.999c48 -23.333 72 -51.333 72 -84s-24 -60.334 -72 -83.001l-4 -2c40.667 -494 141 -974.333 301 -1441c15.333 -4.66699 29.666 -10 42.999 -16c48 -23.333 72 -51.333 72 -84
s-24 -60.334 -72 -83.001c-48 -23.333 -106 -35 -174 -35s-126 11.667 -174 35c-48 22.667 -72 50.334 -72 83.001zM746 660.999c-66.667 180 -106.332 438 -118.999 774c-12.667 -336 -52.334 -594 -119.001 -774h238zM720.002 1961
c-199.333 -30.667 -282.668 -30.6689 -250.001 -0.00195312c167.333 72.667 245.333 148.334 234 227.001c17.333 8.66699 62.333 -3.66602 135 -36.999c94.667 -43.333 133.334 -69 116.001 -77z" />
    <glyph glyph-name="Acircumflex" unicode="&#xc2;" horiz-adv-x="1255" 
d="M721 118c0 32.667 24 60.666 72 83.999c11.333 5.33301 23.333 10 36 14l-36 179h-332l-37 -179c12.667 -4 24.667 -8.66699 36 -14c48 -23.333 72 -51.333 72 -84s-24 -60.334 -72 -83.001c-46 -22.667 -100.667 -34.334 -164 -35.001h-16
c-65.333 0.666992 -121.333 12.334 -168 35.001c-48 22.667 -72 50.334 -72 83.001s24 60.667 72 84c13.333 6 27.333 11.333 42 16c160.667 466.667 261.334 947 302.001 1441c-1.33301 0.666992 -2.33301 1.33398 -3 2.00098c-48 22.667 -72 50.334 -72 83.001
s24 60.667 72 84c48 22.667 106 34 174 34s126 -11.333 174 -34c48 -23.333 72 -51.333 72 -84s-24 -60.334 -72 -83.001l-4 -2c40.667 -494 141 -974.333 301 -1441c15.333 -4.66699 29.666 -10 42.999 -16c48 -23.333 72 -51.333 72 -84s-24 -60.334 -72 -83.001
c-46.667 -22.667 -102.667 -34.334 -168 -35.001h-16c-64 0.666992 -118.667 12.334 -164 35.001c-48 22.667 -72 50.334 -72 83.001zM627 2026l-132.001 -64c-199.333 -30.667 -282.666 -30.667 -249.999 0c167.333 73.333 245.333 149.666 234 228.999h296
c-11.333 -79.333 66.667 -155.666 234 -228.999c32 -30.667 -51.667 -30.667 -251 0zM745.999 660.999c-66.667 180 -106.332 438 -118.999 774c-12.667 -336 -52.334 -594 -119.001 -774h238z" />
    <glyph glyph-name="Atilde" unicode="&#xc3;" horiz-adv-x="1255" 
d="M721 118c0 32.667 24 60.667 72 84c11.333 5.33301 23.333 10 36 14l-36 179h-332l-37 -179c12.667 -4 24.667 -8.66699 36 -14c48 -23.333 72 -51.333 72 -84s-24 -60.334 -72 -83.001c-48 -23.333 -106 -35 -174 -35s-126 11.667 -174 35
c-48 22.667 -72 50.334 -72 83.001s24 60.667 72 84c13.333 6 27.333 11.333 42 16c160.667 466.667 261.334 947 302.001 1441c-1.33301 0.666992 -2.33301 1.33398 -3 2.00098c-48 22.667 -72 50.334 -72 83.001s24 60.667 72 84c46 21.333 101 32.666 165 33.999h9
c68 0 126 -11.333 174 -34c48 -23.333 72 -51.333 72 -84s-24 -60.334 -72 -83.001l-4 -2c40.667 -494 141 -974.333 301 -1441c15.333 -4.66699 29.666 -10 42.999 -16c48 -23.333 72 -51.333 72 -84s-24 -60.334 -72 -83.001
c-46.667 -22.667 -102.667 -34.334 -168 -35.001h-16c-64 0.666992 -118.667 12.334 -164 35.001c-48 22.667 -72 50.334 -72 83.001zM589 2005c-43.333 26.667 -69.3311 40.333 -77.998 41c-20.667 0 -51.334 -32 -92.001 -96c-42.667 -48.667 -80.334 -57 -113.001 -25
c-38 38.667 -28.667 95 28 169c41.333 67.333 95.333 102.666 162 106c43.333 0 99.666 -20.667 168.999 -62c43.333 -26.667 69.333 -40.334 78 -41.001c20.667 0 51.334 32 92.001 96c42.667 48.667 80 57 112 25c38.667 -38.667 29.667 -95 -27 -169
c-41.333 -67.333 -95.333 -102.666 -162 -105.999c-44 0 -100.333 20.667 -169 62zM746.002 660.999c-66.667 180 -106.332 438 -118.999 774c-12.667 -336 -52.334 -594 -119.001 -774h238z" />
    <glyph glyph-name="Adieresis" unicode="&#xc4;" horiz-adv-x="1255" 
d="M721 118c0 32.667 24 60.667 72 84c11.333 5.33301 23.333 10 36 14l-36 179h-332l-37 -179c12.667 -4 24.667 -8.66699 36 -14c48 -23.333 72 -51.333 72 -84s-24 -60.334 -72 -83.001c-46 -22.667 -100.667 -34.334 -164 -35.001h-10c-68 0 -126 11.667 -174 35
c-48 22.667 -72 50.334 -72 83.001s24 60.667 72 84c13.333 6 27.333 11.333 42 16c160.667 466.667 261.334 947 302.001 1441c-1.33301 0.666992 -2.33301 1.33398 -3 2.00098c-48 22.667 -72 50.334 -72 83.001s24 60.667 72 84c47.333 22.667 105 34 173 34h10
c64 -1.33301 119 -12.666 165 -33.999c48 -23.333 72 -51.333 72 -84s-24 -60.334 -72 -83.001l-4 -2c40.667 -494 141 -974.333 301 -1441c15.333 -4.66699 29.666 -10 42.999 -16c48 -23.333 72 -51.333 72 -84s-24 -60.334 -72 -83.001
c-46.667 -22.667 -102.667 -34.334 -168 -35.001h-6c-68 0 -126 11.667 -174 35c-48 22.667 -72 50.334 -72 83.001zM746 661c-66.667 180 -106.332 438 -118.999 774c-12.667 -336 -52.334 -594 -119.001 -774h238zM551.002 1989c0 -33.333 -40.667 -50.001 -122 -50.001
s-122 16.667 -122 50c28 48.667 28 96.667 0 144.001c0 33.333 40.667 50 122 50s122 -16.667 122 -50c-28 -44.667 -28 -92.667 0 -144zM947.002 1989c0 -33.333 -40.667 -50 -122 -50s-122 16.667 -122 50c28 48.667 28 96.667 0 144c0 33.333 40.667 50 122 50
s122 -16.667 122 -50c-28 -44.667 -28 -92.667 0 -144z" />
    <glyph glyph-name="Aring" unicode="&#xc5;" horiz-adv-x="1255" 
d="M721 118c0 32.667 24.001 60.335 72.001 83.002c11.333 5.33301 23.333 10 36 14l-37 180h-332l-37 -179c12.667 -4.66699 25 -9.66699 37 -15c48 -22.667 72 -50.334 72 -83.001s-24 -60.667 -72 -84c-46 -22 -101 -33.333 -165 -34h-9c-68 0 -126 11.333 -174 34
c-48 23.333 -72 51.333 -72 84s24 60.334 72 83.001c13.333 6 27.333 11.333 42 16c160 466.667 260.333 947.334 301 1442c-0.666992 0 -1.33398 0.333008 -2.00098 1c-48 23.333 -72 51.333 -72 84s24 60.334 72 83.001h1c-18 33.333 -27 88.666 -27 165.999
c0 132.667 27 199 81 199c73.333 -46 152.333 -46 237 0c54 0 81 -66.333 81 -199c0 -78 -9.33301 -133 -28 -165c1.33301 -0.666992 2.33301 -1 3 -1c48 -22.667 72 -50.334 72 -83.001s-24 -60.667 -72 -84c-1.33301 -0.666992 -3 -1.33398 -5 -2.00098
c40.667 -494 141.334 -974.333 302.001 -1441c15.333 -4.66699 29.666 -10 42.999 -16c48 -22.667 72 -50.334 72 -83.001s-24 -60.667 -72 -84c-48 -22.667 -106 -34 -174 -34s-126 11.333 -174 34c-48 23.333 -72 51.333 -72 84zM626.001 1435
c-12.667 -336 -52.332 -594 -118.999 -774h238c-66.667 180 -106.334 438 -119.001 774zM508.003 2053c-17.333 0 -26 -20 -26 -60v-1c0 -40 8.66699 -60 26 -60c73.333 49.333 152.333 49.333 237 0c17.333 0 26 20 26 60c0 40.667 -8.66699 61 -26 61
c-84.667 -49.333 -163.667 -49.333 -237 0z" />
    <glyph glyph-name="AE" unicode="&#xc6;" horiz-adv-x="1561" 
d="M460 35c-48 -23.333 -106.001 -34.9971 -174.001 -34.9971s-126 11.667 -174 35c-48 22.667 -72 50.334 -72 83.001s24 60.667 72 84c13.333 6 27.333 11.333 42 16c160 466.667 260.333 947 301 1441l-2 2c-48 22.667 -72 50.334 -72 83.001s24 60.667 72 84
c45.333 21.333 100 32.666 164 33.999h574c48 0 85.667 -9.66699 113 -29l13 13c7.33301 5.33301 14.666 9.33301 21.999 12s14.666 4 21.999 4h5c1.33301 -0.666992 2.66602 -1 3.99902 -1l5 -1c2.66699 -0.666992 5 -1.33398 7 -2.00098
c8.66699 -2.66699 16.667 -7.33398 24 -14.001c7.33301 -6 14 -13.667 20 -23c2.66699 -3.33301 5.33398 -7 8.00098 -11c2.66699 -5.33301 5.66699 -11 9 -17c0 -0.666992 0.333008 -1.66699 1 -3c6.66699 -13.333 12.334 -27.333 17.001 -42l4 -16
c3.33301 -11.333 6 -23 8 -35l2 -14c1.33301 -10 2.33301 -20.667 3 -32l1 -20v-30c-0.666992 -3.33301 -1 -6.66602 -1 -9.99902v-10c-1.33301 -16 -3 -31.667 -5 -47l-6 -26l-6 -24c-0.666992 -2.66699 -1.66699 -5.33398 -3 -8.00098l-10 -27
c-1.33301 -2.66699 -2.66602 -5 -3.99902 -7c-2 -4.66699 -4.33301 -9.33398 -7 -14.001c-3.33301 -6.66699 -7 -12.667 -11 -18c-3.33301 -4.66699 -6.66602 -8.66699 -9.99902 -12c-3.33301 -4 -6.66602 -7.33301 -9.99902 -10l-2 -2
c-4 -3.33301 -8.33301 -6.33301 -13 -9l-4 -2c-5.33301 -2 -11 -3.66699 -17 -5h-19c-4 0.666992 -8 1.66699 -12 3c-1.33301 0.666992 -2.83301 1.33398 -4.5 2.00098s-3.16699 1.33398 -4.5 2.00098c-3.33301 2 -7 4.33301 -11 7l-2 2c-8 6.66699 -16 15.667 -24 27l-9 15
c-2 3.33301 -3.66699 6.66602 -5 9.99902l-2 4c-0.666992 2 -1.66699 4.33301 -3 7c-1.33301 2 -2.33301 4.33301 -3 7c-4.66699 11.333 -9 23.333 -13 36l-4 16c-0.666992 2.66699 -1.33398 5.66699 -2.00098 9c0 1.33301 -0.333008 2.66602 -1 3.99902
c-0.666992 4.66699 -1.33398 9 -2.00098 13l-2 14c-1.33301 10.667 -2.33301 21.667 -3 33v2c-16 -2 -33.667 -3 -53 -3c-93.333 18.667 -186.666 33.667 -279.999 45v-592c76.667 10.667 153.334 23.667 230.001 39c113.333 0 170 -40.667 170 -122
c0 -106.667 -56.667 -160 -170 -160h-230v-553c93.333 11.333 186.666 26.333 279.999 45c19.333 0 37 -1.33301 53 -4c2.66699 54 13.667 101.333 33 142c23.333 48 51.333 72 84 72s60.5 -24 83.5 -72s34.5 -106 34.5 -174s-11.5 -126 -34.5 -174s-50.833 -72 -83.5 -72
c-20.667 0 -39.667 9.66699 -57 29c-27.333 -19.333 -65 -29 -113 -29h-422c-91.333 0 -138 53.667 -140 161c15.333 78 28.333 156 39 234h-208l-37 -179c12.667 -4 25 -8.66699 37 -14c48 -23.333 72 -51.333 72 -84s-24 -60.334 -72 -83.001zM625.999 1435
c-12.667 -336 -52.333 -594.001 -119 -774.001h188c3.33301 46.667 5.66602 93.334 6.99902 140.001c-41.333 166 -66.666 377.333 -75.999 634z" />
    <glyph glyph-name="Ccedilla" unicode="&#xc7;" horiz-adv-x="1023" 
d="M392 360c0 -84.667 41.6641 -127 124.997 -127c83.333 -0.666992 125 15.333 125 48c-35.333 46.667 -58.333 94.667 -69 144c-8 34 -10 68.667 -6 104c10.667 72 57.667 111.667 141 119c70.667 5.33301 119.334 -17.667 146.001 -69
c-28 -104 -5.66699 -203.333 67 -298c-26.667 -135.333 -95.667 -226.666 -207 -273.999c-35.333 -18.667 -79.666 -30.667 -132.999 -36l40 -37c26.667 -20.667 43.334 -45.334 50.001 -74.001l5 -28c4 -23.333 9 -45.333 15 -66c0 -77.333 -46.333 -116 -139 -116
c-77.333 0 -123 30.667 -137 92c18 20 27 41 27 63c0 8 -1.33301 16.333 -4 25c8 14 22.333 21 43 21h6c28.667 -2 44.667 -13.667 48 -35l1 -12c0 -21.333 -8.66699 -42 -26 -62c0 -9.33301 14 -14 42 -14c28.667 0 43 12.667 43 38l-16 64c-6.66699 17.333 -38 52 -94 104
c-8 8.66699 -12 17.667 -12 27v8c-242.667 14 -363.667 144 -363 390c42.667 163.333 65.667 348.333 69 555v33c-3.33301 206.667 -26.333 391.667 -69 555c-0.666992 260.667 135 391 407 391c82.667 0 148.334 -13 197.001 -39
c111.333 -47.333 180.333 -138.666 207 -273.999c-72.667 -94.667 -95 -194 -67 -298c-26.667 -51.333 -75.334 -74.333 -146.001 -69c-83.333 7.33301 -130.333 47 -141 119c-4 35.333 -2 70 6 104c10.667 49.333 33.667 97.333 69 144c0 32.667 -41.667 49 -125 49
c-83.333 -0.666992 -125 -43.334 -125 -128.001v-1141z" />
    <glyph glyph-name="Egrave" unicode="&#xc8;" horiz-adv-x="1062" 
d="M692 1862c48 0 85.667 -9.66016 113 -28.9932l1 1c4 4.66699 8 8.66699 12 12c1.33301 0 2 0.333008 2 1c2.66699 2 5 3.66699 7 5l4 2c2 0.666992 3.66699 1.33398 5 2.00098c3.33301 1.33301 6.33301 2.66602 9 3.99902c5.33301 1.33301 11 2 17 2h5
c1.33301 -0.666992 2.66602 -1 3.99902 -1l5 -1c2.66699 -0.666992 5 -1.33398 7 -2.00098c3.33301 -0.666992 6.33301 -2 9 -4c4.66699 -2 9 -4.66699 13 -8l2 -2c7.33301 -6 14 -13.667 20 -23c2.66699 -3.33301 5.33398 -7 8.00098 -11
c2.66699 -5.33301 5.66699 -11 9 -17c0 -0.666992 0.333008 -1.66699 1 -3c2.66699 -4.66699 5 -9.66699 7 -15c8 -18.667 14 -38.667 18 -60c0.666992 -2 1 -3.66699 1 -5c1.33301 -4 2.33301 -8.33301 3 -13c2.66699 -18 4.33398 -36.667 5.00098 -56
c0.666992 -3.33301 1 -6.66602 1 -9.99902v-15c0 -12 -0.333008 -23.667 -1 -35c-0.666992 -6.66699 -1.33398 -13 -2.00098 -19c0 -4.66699 -0.333008 -9.33398 -1 -14.001c-1.33301 -9.33301 -3 -18.333 -5 -27c-2 -10 -4.33301 -19.667 -7 -29l-5 -16l-3 -8l-4 -12l-3 -7
c-1.33301 -2.66699 -2.66602 -5 -3.99902 -7c-2 -4.66699 -4.33301 -9.33398 -7 -14.001c-0.666992 -2 -1.66699 -4 -3 -6c-11.333 -18.667 -23.333 -32.334 -36 -41.001c-1.33301 -0.666992 -2.33301 -1 -3 -1c-2.66699 -2 -5.33398 -3.66699 -8.00098 -5
c-1.33301 -0.666992 -3 -1.33398 -5 -2.00098s-4.33301 -1.33398 -7 -2.00098l-5 -1h-19c-2 0.666992 -4.33301 1.33398 -7 2.00098c-1.33301 0 -3 0.333008 -5 1l-5 2l-4 2c-1.33301 0.666992 -2.66602 1.66699 -3.99902 3c-3.33301 1.33301 -6.33301 3.33301 -9 6
c-8 6.66699 -16 15.667 -24 27c-1.33301 2.66699 -3 5.66699 -5 9l-4 6c-2 3.33301 -3.66699 6.66602 -5 9.99902l-2 4c-0.666992 2 -1.66699 4.33301 -3 7c-2.66699 6 -5.33398 12.333 -8.00098 19c-2 5.33301 -3.66699 10.666 -5 15.999c-3.33301 10 -6.33301 21 -9 33
c-1.33301 5.33301 -2.33301 11 -3 17c-2.66699 16 -4.33398 32.333 -5.00098 49c-16 -2 -33.667 -3 -53 -3c-93.333 18.667 -186.666 33.667 -279.999 45v-592c76.667 10.667 153.334 23.667 230.001 39c113.333 0 170 -40.667 170 -122c0 -106.667 -56.667 -160 -170 -160
h-230v-553c93.333 11.333 186.666 26.333 279.999 45c19.333 0 37 -1.33301 53 -4c2.66699 54 13.667 101.333 33 142c23.333 48 51.333 72 84 72s60.5 -24 83.5 -72s34.5 -106 34.5 -174s-11.5 -126 -34.5 -174s-50.833 -72 -83.5 -72c-20.667 0 -39.667 9.66699 -57 29
c-27.333 -19.333 -65 -29 -113 -29h-422c-91.333 0 -138 53.667 -140 161c100.667 513.333 100.667 1023.67 0 1531c0 113.333 40.667 170 122 170h440zM198 2074.01c-17.333 8 21.333 33.668 116 77.001c72.667 33.333 117.667 45.666 135 37
c-11.333 -78.667 66.667 -154.334 234 -227.001c32 -30.667 -51.667 -30.667 -251 0z" />
    <glyph glyph-name="Eacute" unicode="&#xc9;" horiz-adv-x="1062" 
d="M692 1862c48 0 85.6689 -9.66016 113.002 -28.9932l1 1c4 4.66699 8 8.66699 12 12c8.66699 6.66699 17.667 11.334 27 14.001c2.66699 0.666992 5 1 7 1c1.33301 0.666992 3 1 5 1h10c3.33301 -0.666992 6.33301 -1.33398 9 -2.00098s5 -1.33398 7 -2.00098
c3.33301 -0.666992 6.33301 -2 9 -4l4 -2c1.33301 -0.666992 2.33301 -1.33398 3 -2.00098l6 -4l12 -12c3.33301 -4 6.66602 -8.33301 9.99902 -13c2.66699 -3.33301 5.33398 -7 8.00098 -11c3.33301 -6 6.66602 -12.667 9.99902 -20l4 -8l3 -7c2.66699 -6 5 -12.333 7 -19
c0.666992 -2.66699 1.66699 -5.33398 3 -8.00098l4 -16l4 -17c2.66699 -10.667 4.66699 -21.334 6 -32.001c0.666992 -4 1 -8.33301 1 -13c0.666992 -6.66699 1.33398 -13 2.00098 -19l1 -20v-30c-0.666992 -18.667 -2 -36.334 -4 -53.001
c-2.66699 -20 -6.66699 -38.667 -12 -56l-5 -16l-3 -8c-3.33301 -9.33301 -7 -18 -11 -26c-12 -25.333 -25.333 -44 -40 -56c-2 -2 -4 -3.66699 -6 -5c-1.33301 -0.666992 -2.33301 -1 -3 -1c-2.66699 -2 -5.33398 -3.66699 -8.00098 -5c-5.33301 -2 -11 -3.66699 -17 -5
h-19c-4 0.666992 -8 1.66699 -12 3c-4 2 -8.33301 4.33301 -13 7c-2 1.33301 -4.33301 2.66602 -7 3.99902c-4.66699 4 -9.33398 8.66699 -14.001 14c-6 6.66699 -11.667 14.667 -17 24c-4 6 -7.66699 12.667 -11 20l-6 14c-2 4 -3.66699 8 -5 12l-3 8l-5 16l-4 16
c-0.666992 2.66699 -1.33398 5.66699 -2.00098 9c-1.33301 5.33301 -2.33301 11 -3 17l-4 28c0 3.33301 -0.166992 6.5 -0.5 9.5s-0.5 6.16699 -0.5 9.5v2c-16 -2 -33.667 -3 -53 -3c-93.333 18.667 -186.666 33.667 -279.999 45v-592
c76.667 10.667 153.334 23.667 230.001 39c113.333 0 170 -40.667 170 -122c0 -106.667 -56.667 -160 -170 -160h-230v-553c93.333 11.333 186.666 26.333 279.999 45c19.333 0 37 -1.33301 53 -4c2.66699 54 13.667 101.333 33 142c23.333 48 51.333 72 84 72
s60.5 -24 83.5 -72s34.5 -106 34.5 -174s-11.5 -126 -34.5 -174s-50.833 -72 -83.5 -72c-20.667 0 -39.667 9.66699 -57 29c-27.333 -19.333 -65 -29 -113 -29h-422c-91.333 0 -138 53.667 -140 161c100.667 513.333 100.667 1023.67 0 1531c0 113.333 40.667 170 122 170
h440zM587.002 1961.01c-199.333 -30.667 -282.668 -30.6689 -250.001 -0.00195312c167.333 72.667 245.333 148.334 234 227.001c17.333 8.66699 62.333 -3.66602 135 -36.999c94.667 -43.333 133.334 -69 116.001 -77z" />
    <glyph glyph-name="Ecircumflex" unicode="&#xca;" horiz-adv-x="1062" 
d="M412 1033c76.667 10.667 153.336 23.6689 230.003 39.002c113.333 0 170 -40.667 170 -122c0 -106.667 -56.667 -160 -170 -160h-230v-553c93.333 11.333 186.666 26.333 279.999 45c19.333 0 37 -1.33301 53 -4c2.66699 54 13.667 101.333 33 142
c23.333 48 51.333 72 84 72s60.5 -24 83.5 -72s34.5 -106 34.5 -174s-11.5 -126 -34.5 -174s-50.833 -72 -83.5 -72c-20.667 0 -39.667 9.66699 -57 29c-27.333 -19.333 -65 -29 -113 -29h-422c-91.333 0 -138 53.667 -140 161c100.667 513.333 100.667 1023.67 0 1531
c0 113.333 40.667 170 122 170h440c48 0 85.667 -9.66699 113 -29c14.667 16 30.334 25.333 47.001 28c3.33301 0.666992 6.66602 1 9.99902 1s6.33301 -0.333008 9 -1c2.66699 0 5 -0.333008 7 -1l10 -4l8 -4c1.33301 -0.666992 2.33301 -1.33398 3 -2.00098
c10 -6.66699 19.333 -16.334 28 -29.001c6 -8 11.667 -17.333 17 -28c0 -0.666992 0.333008 -1.66699 1 -3c6.66699 -13.333 12.334 -27.333 17.001 -42l4 -16c0.666992 -3.33301 1.33398 -6.33301 2.00098 -9l2 -8c3.33301 -14.667 5.66602 -29.667 6.99902 -45
c1.33301 -10 2 -19.667 2 -29c0.666992 -8.66699 1 -17 1 -25v-15c-0.666992 -7.33301 -1 -14 -1 -20c0 -3.33301 -0.333008 -6.66602 -1 -9.99902c-2 -28.667 -6.66699 -55 -14 -79c-3.33301 -12.667 -7.33301 -24.667 -12 -36c-2 -4.66699 -4.16699 -9.33398 -6.5 -14.001
s-4.83301 -9.33398 -7.5 -14.001c-9.33301 -17.333 -19.666 -30.666 -30.999 -39.999c-3.33301 -3.33301 -7 -6 -11 -8c-2.66699 -2 -5.33398 -3.66699 -8.00098 -5c-8.66699 -3.33301 -17.334 -5 -26.001 -5h-5c-7.33301 0.666992 -14.333 2.33398 -21 5.00098
c-2 0.666992 -3.66699 1.33398 -5 2.00098c-3.33301 2 -7 4.33301 -11 7c-4.66699 4 -9.33398 8.66699 -14.001 14c-4 4 -8 9 -12 15c-1.33301 2.66699 -3 5.66699 -5 9l-4 6c-2 3.33301 -3.66699 6.66602 -5 9.99902l-2 4c-4 8 -7.66699 16.667 -11 26l-3 8l-2 8
c-2 4.66699 -3.66699 10 -5 16c-2 6.66699 -3.66699 13.667 -5 21c-0.666992 4.66699 -1.33398 9 -2.00098 13c-2.66699 16 -4.33398 32.333 -5.00098 49c-16 -2 -33.667 -3 -53 -3c-93.333 18.667 -186.666 33.667 -279.999 45v-592zM519.002 2026l-132.001 -64
c-199.333 -30.667 -282.666 -30.667 -249.999 0c167.333 73.333 245.333 149.666 234 228.999h296c-11.333 -79.333 66.667 -155.666 234 -228.999c32 -30.667 -51.667 -30.667 -251 0z" />
    <glyph glyph-name="Edieresis" unicode="&#xcb;" horiz-adv-x="1062" 
d="M692 1862c48 0 85.668 -9.66699 113.001 -29c5.33301 5.33301 10.333 10 15 14c4 2.66699 7.66699 5 11 7c2 0.666992 3.66699 1.33398 5 2.00098c8 4 16.667 6 26 6h5c4 -0.666992 7.66699 -1.33398 11 -2.00098c2 -0.666992 3.66699 -1.33398 5 -2.00098
c4.66699 -1.33301 9 -3.33301 13 -6c1.33301 -0.666992 2.33301 -1.33398 3 -2.00098l8 -6l10 -10c6 -6.66699 12 -14.667 18 -24c0.666992 -2.66699 1.66699 -5 3 -7c2.66699 -4 5 -8.33301 7 -13c7.33301 -16 13.666 -32.667 18.999 -50l2 -8l4 -17
c0.666992 -2 1 -3.66699 1 -5c1.33301 -4 2.33301 -8.33301 3 -13c2 -12 3.33301 -24.333 4 -37l2 -29v-30c-0.666992 -7.33301 -1 -14 -1 -20c0 -3.33301 -0.166992 -6.66602 -0.5 -9.99902s-0.833008 -6.33301 -1.5 -9c0 -4.66699 -0.333008 -9.33398 -1 -14.001l-2 -13.5
c-0.666992 -4.33301 -1.66699 -8.83301 -3 -13.5c0 -1.33301 -0.333008 -2.66602 -1 -3.99902c-0.666992 -2.66699 -1.33398 -5.5 -2.00098 -8.5s-1.33398 -5.83301 -2.00098 -8.5l-2 -8c-2 -8.66699 -4.66699 -16.667 -8 -24l-4 -12l-3 -7
c-1.33301 -2.66699 -2.66602 -5 -3.99902 -7c-0.666992 -1.33301 -1 -2.66602 -1 -3.99902c-11.333 -22 -23.666 -38.667 -36.999 -50l-2 -2c-2.66699 -2.66699 -5.66699 -4.66699 -9 -6c-4 -2.66699 -8.33301 -5 -13 -7c-1.33301 -0.666992 -3 -1 -5 -1
c-0.666992 0 -1.33398 -0.333008 -2.00098 -1l-5 -1h-9c-6 0 -11.667 0.666992 -17 2c-9.33301 2.66699 -18.333 7.33398 -27 14.001c-4 3.33301 -8 7.33301 -12 12c-7.33301 8 -14.333 18 -21 30c-2 4.66699 -4.33301 9.33398 -7 14.001c-0.666992 2 -1.66699 4.33301 -3 7
c-1.33301 2 -2.33301 4.33301 -3 7c-2 4 -3.66699 8 -5 12c-5.33301 15.333 -10 31.666 -14 48.999c-4 20.667 -6.66699 42.667 -8 66c-16 -2 -33.667 -3 -53 -3c-93.333 18.667 -186.666 33.667 -279.999 45v-592c76.667 10.667 153.334 23.667 230.001 39
c113.333 0 170 -40.667 170 -122c0 -106.667 -56.667 -160 -170 -160h-230v-553c93.333 11.333 186.666 26.333 279.999 45c19.333 0 37 -1.33301 53 -4c2.66699 54 13.667 101.333 33 142c23.333 48 51.333 72 84 72s60.5 -24 83.5 -72s34.5 -106 34.5 -174
s-11.5 -126 -34.5 -174s-50.833 -72 -83.5 -72c-20.667 0 -39.667 9.66699 -57 29c-27.333 -19.333 -65 -29 -113 -29h-422c-91.333 0 -138 53.667 -140 161c100.667 513.333 100.667 1023.67 0 1531c0 113.333 40.667 170 122 170h440zM819.001 1989
c0 -33.333 -40.667 -50.001 -122 -50.001s-122 16.667 -122 50c28 48.667 28 96.667 0 144.001c0 33.333 40.667 50 122 50s122 -16.667 122 -50c-28 -44.667 -28 -92.667 0 -144zM423.001 1989c0 -33.333 -40.667 -50 -122 -50s-122 16.667 -122 50
c28 48.667 28 96.667 0 144c0 33.333 40.667 50 122 50s122 -16.667 122 -50c-28 -44.667 -28 -92.667 0 -144z" />
    <glyph glyph-name="Igrave" unicode="&#xcc;" horiz-adv-x="706" 
d="M143 118c0 32.667 24 60.333 72 83c13.333 6.66699 27.333 12.334 42 17.001c88 475.333 88 950.666 0 1426c-14.667 4.66699 -28.667 10 -42 16c-48 23.333 -72 51.333 -72 84s24 60.334 72 83.001c38.667 18.667 83.667 30 135 34c6 0.666992 12.667 1 20 1h19
c68 0 126 -11.5 174 -34.5s72 -50.833 72 -83.5s-24 -60.667 -72 -84c-10.667 -4.66699 -21.667 -9 -33 -13v-1432c11.333 -4 22.333 -8.66699 33 -14c48 -22.667 72 -50.334 72 -83.001s-24 -60.667 -72 -84c-46.667 -22 -102.667 -33.333 -168 -34h-7
c-68 -0 -125.667 11.333 -173 34c-48 23.333 -72 51.333 -72 84zM60 2074c-17.333 8 21.333 33.668 116 77.001c72.667 33.333 117.667 45.666 135 37c-11.333 -78.667 66.667 -154.334 234 -227.001c32 -30.667 -51.667 -30.667 -251 0z" />
    <glyph glyph-name="Iacute" unicode="&#xcd;" horiz-adv-x="713" 
d="M138 118c0 32.667 24 60.333 72 83c13.333 6.66699 27.333 12.334 42 17.001c88 475.333 88 950.666 0 1426c-14.667 4.66699 -28.667 10 -42 16c-48 23.333 -72 51.333 -72 84s24 60.334 72 83.001c38.667 18.667 83.667 30 135 34c6 0.666992 12.667 1 20 1h19
c68 0 126 -11.5 174 -34.5s72 -50.833 72 -83.5s-24 -60.667 -72 -84c-10.667 -4.66699 -21.667 -9 -33 -13v-1432c11.333 -4 22.333 -8.66699 33 -14c48 -22.667 72 -50.334 72 -83.001s-24 -60.5 -72 -83.5s-106 -34.5 -174 -34.5h-8c-64.667 0.666992 -120 12 -166 34
c-48 23.333 -72 51.333 -72 84zM474 1961c-199.333 -30.667 -282.668 -30.6689 -250.001 -0.00195312c167.333 72.667 245.333 148.334 234 227.001c17.333 8.66699 62.333 -3.66602 135 -36.999c94.667 -43.333 133.334 -69 116.001 -77z" />
    <glyph glyph-name="Icircumflex" unicode="&#xce;" horiz-adv-x="778" 
d="M143 1744c0 32.667 24 60.333 72 83c38.667 18.667 83.667 30 135 34c6 0.666992 12.667 1 20 1h19c68 0 126 -11.5 174 -34.5s72 -50.833 72 -83.5s-24 -60.667 -72 -84c-10.667 -4.66699 -21.667 -9 -33 -13v-1432c11.333 -4 22.333 -8.66699 33 -14
c48 -22.667 72 -50.334 72 -83.001s-24 -60.5 -72 -83.5s-106 -34.5 -174 -34.5s-126 11.5 -174 34.5s-72 50.833 -72 83.5s24 60.334 72 83.001c13.333 6.66699 27.333 12.334 42 17.001c88 475.333 88 950.666 0 1426c-14.667 4.66699 -28.667 10 -42 16
c-48 23.333 -72 51.333 -72 84zM389 2026l-132.001 -64c-199.333 -30.667 -282.666 -30.667 -249.999 0c167.333 73.333 245.333 149.666 234 228.999h296c-11.333 -79.333 66.667 -155.666 234 -228.999c32 -30.667 -51.667 -30.667 -251 0z" />
    <glyph glyph-name="Idieresis" unicode="&#xcf;" horiz-adv-x="640" 
d="M74 1744c0 32.667 24 60.333 72 83c38.667 18.667 83.667 30 135 34c6 0.666992 12.667 1 20 1h19c68 0 126 -11.5 174 -34.5s72 -50.833 72 -83.5s-24 -60.667 -72 -84c-10.667 -4.66699 -21.667 -9 -33 -13v-1432c11.333 -4 22.333 -8.66699 33 -14
c48 -22.667 72 -50.334 72 -83.001s-24 -60.5 -72 -83.5s-106 -34.5 -174 -34.5s-126 11.5 -174 34.5s-72 50.833 -72 83.5s24 60.334 72 83.001c13.333 6.66699 27.333 12.334 42 17.001c88 475.333 88 950.666 0 1426c-14.667 4.66699 -28.667 10 -42 16
c-48 23.333 -72 51.333 -72 84zM244 1989c0 -33.333 -40.667 -50 -122 -50s-122 16.667 -122 50c28 48.667 28 96.667 0 144c0 33.333 40.667 50 122 50s122 -16.667 122 -50c-28 -44.667 -28 -92.667 0 -144zM640 1989c0 -33.333 -40.667 -50 -122 -50s-122 16.667 -122 50
c28 48.667 28 96.667 0 144c0 33.333 40.667 50 122 50s122 -16.667 122 -50c-28 -44.667 -28 -92.667 0 -144z" />
    <glyph glyph-name="Eth" unicode="&#xd0;" horiz-adv-x="1115" 
d="M80 118c0 32.667 23.999 60.332 71.999 82.999c12 6 25 11.333 39 16c41.333 222 63.333 444.667 66 668c-51.333 -7.33301 -102.333 -25.333 -153 -54h-2c-29.333 1.33301 -44 37 -44 107c0 62.667 15.333 94 46 94c50.667 -28.667 101.667 -47 153 -55
c-2.66699 222.667 -24.667 445.334 -66 668.001c-14 4 -27 9 -39 15c-48 23.333 -72 51.333 -72 84s24 60.334 72 83.001c36.667 18 79.334 29 128.001 33c7.33301 1.33301 15.333 2 24 2h39l275 -1c251.333 0 377 -130.333 377 -391
c-100.667 -358.667 -100.667 -718.334 0 -1079c0 -260 -125.667 -390 -377 -390l-18 -1h-295c-8.66699 -0 -16.667 0.333008 -24 1c-48.667 4.66699 -91.667 15.667 -129 33c-48 23.333 -72 51.333 -72 84zM561.999 924.998c0 -62.667 -15.333 -94 -46 -94
c-17.333 9.33301 -34.333 17.666 -51 24.999v-591h124c82 0 123 42 123 126c-100.667 360.667 -100.667 720.334 0 1079c0 84.667 -41 127 -123 127h-124v-591c16.667 7.33301 33.667 16 51 26h2c29.333 -1.33301 44 -37 44 -107z" />
    <glyph glyph-name="Ntilde" unicode="&#xd1;" horiz-adv-x="1283" 
d="M661 118c0 32.667 24.001 60.3301 72.001 82.9971c13.333 6.66699 27.333 12.334 42 17.001c5.33301 26 10 52 14 78l-272 583v-664c11.333 -4 22.333 -8.66699 33 -14c48 -22.667 72 -50.334 72 -83.001s-24 -60.667 -72 -84c-46.667 -22 -102.667 -33.333 -168 -34h-6
c-68 0 -126 11.5 -174 34.5s-72 50.833 -72 83.5s24 60.334 72 83.001c13.333 6.66699 27.333 12.334 42 17.001c44.667 238 67 475.667 67 713c0 148.667 -8.66699 297 -26 445l-1 2l1 1c-10.667 88 -24.334 176.333 -41.001 265c-14.667 4.66699 -28.667 10 -42 16
c-48 23.333 -72 51.333 -72 84s24 60.334 72 83.001c46 22 101.333 33.667 166 35h8c68 0 126 -11.5 174 -34.5s72 -50.833 72 -83.5s-24 -60.667 -72 -84c-10.667 -4.66699 -21.667 -9 -33 -13v-188c80 -262 186.333 -512 319 -750c4 74 6 148 6 222
c0 238 -22.333 475.667 -67 713c-14.667 4.66699 -28.667 10 -42 16c-48 23.333 -72 51.333 -72 84s24 60.334 72 83.001c46 22 101.333 33.667 166 35h8c68 0 126 -11.5 174 -34.5s72 -50.833 72 -83.5s-24 -60.667 -72 -84c-10.667 -4.66699 -21.667 -9 -33 -13v-1432
c11.333 -4 22.333 -8.66699 33 -14c48 -22.667 72 -50.334 72 -83.001s-24 -60.5 -72 -83.5s-106 -34.5 -174 -34.5h-8c-64.667 0.666992 -120 12 -166 34c-48 23.333 -72 51.333 -72 84zM603.001 2005c-43.333 26.667 -69.3311 40.333 -77.998 41
c-20.667 0 -51.334 -32 -92.001 -96c-42.667 -48.667 -80.334 -57 -113.001 -25c-38 38.667 -28.667 95 28 169c41.333 67.333 95.333 102.666 162 106c43.333 0 99.666 -20.667 168.999 -62c43.333 -26.667 69.333 -40.334 78 -41.001c20.667 0 51.334 32 92.001 96
c42.667 48.667 80 57 112 25c38.667 -38.667 29.667 -95 -27 -169c-41.333 -67.333 -95.333 -102.666 -162 -105.999c-44 0 -100.333 20.667 -169 62z" />
    <glyph glyph-name="Ograve" unicode="&#xd2;" 
d="M921 361c0 -262 -135 -393 -405 -393c-270.667 0.666992 -406 131.667 -406 393c94 380 94 760 0 1140c0 261.333 135.333 392 406 392c270 0 405 -130.667 405 -392c-94 -380 -94 -760 0 -1140zM639 1501c0 84.667 -41 127 -123 127h-2
c-81.333 0 -122 -42.333 -122 -127c100.667 -380 100.667 -760 0 -1140c0 -84.667 41 -127 123 -127c82.667 0 124 42.333 124 127c-100.667 380 -100.667 760 0 1140zM200 2074c-17.333 8 21.333 33.6689 116 77.002c72.667 33.333 117.667 45.666 135 36.999
c-11.333 -78.667 66.667 -154.334 234 -227.001c32 -30.667 -51.667 -30.667 -251 0z" />
    <glyph glyph-name="Oacute" unicode="&#xd3;" 
d="M921 361c0 -262 -135 -393 -405 -393c-270.667 0.666992 -406 131.667 -406 393c94 380 94 760 0 1140c0 261.333 135.333 392 406 392c270 0 405 -130.667 405 -392c-94 -380 -94 -760 0 -1140zM639 1501c0 84.667 -41 127 -123 127h-2
c-81.333 0 -122 -42.333 -122 -127c100.667 -380 100.667 -760 0 -1140c0 -84.667 41 -127 123 -127c82.667 0 124 42.333 124 127c-100.667 380 -100.667 760 0 1140zM616 1961c-199.333 -30.667 -282.668 -30.668 -250.001 -0.000976562
c167.333 72.667 245.333 148.334 234 227.001c17.333 8.66699 62.333 -3.66602 135 -37c94.667 -43.333 133.334 -69 116.001 -77z" />
    <glyph glyph-name="Ocircumflex" unicode="&#xd4;" 
d="M639 1501c0 84.667 -41 127 -123 127h-2c-81.333 0 -122 -42.333 -122 -127c100.667 -380 100.667 -760 0 -1140c0 -84.667 41 -127 123 -127c82.667 0 124 42.333 124 127c-100.667 380 -100.667 760 0 1140zM921 361c0 -262 -135 -393 -405 -393
c-270.667 0.666992 -406 131.667 -406 393c94 380 94 760 0 1140c0 261.333 135.333 392 406 392c270 0 405 -130.667 405 -392c-94 -380 -94 -760 0 -1140zM525 2026l-132.001 -64c-199.333 -30.667 -282.666 -30.667 -249.999 0
c167.333 73.333 245.333 149.666 234 228.999h296c-11.333 -79.333 66.667 -155.666 234 -228.999c32 -30.667 -51.667 -30.667 -251 0z" />
    <glyph glyph-name="Otilde" unicode="&#xd5;" 
d="M921 361c0 -262 -135 -393 -405 -393c-270.667 0.666992 -406 131.667 -406 393c94 380 94 760 0 1140c0 261.333 135.333 392 406 392c270 0 405 -130.667 405 -392c-94 -380 -94 -760 0 -1140zM639 1501c0 84.667 -41 127 -123 127h-2
c-81.333 0 -122 -42.333 -122 -127c100.667 -380 100.667 -760 0 -1140c0 -84.667 41 -127 123 -127c82.667 0 124 42.333 124 127c-100.667 380 -100.667 760 0 1140zM487 2005c-43.333 26.667 -69.3311 40.333 -77.998 41c-20.667 0 -51.334 -32 -92.001 -96
c-42.667 -48.667 -80.334 -57 -113.001 -25c-38 38.667 -28.667 95 28 169c41.333 67.333 95.333 102.666 162 106c43.333 0 99.666 -20.667 168.999 -62c43.333 -26.667 69.333 -40.334 78 -41.001c20.667 0 51.334 32 92.001 96c42.667 48.667 80 57 112 25
c38.667 -38.667 29.667 -95 -27 -169c-41.333 -67.333 -95.333 -102.666 -162 -105.999c-44 0 -100.333 20.667 -169 62z" />
    <glyph glyph-name="Odieresis" unicode="&#xd6;" 
d="M921 361c0 -262 -135 -393 -405 -393c-270.667 0.666992 -406 131.667 -406 393c94 380 94 760 0 1140c0 261.333 135.333 392 406 392c270 0 405 -130.667 405 -392c-94 -380 -94 -760 0 -1140zM639 1501c0 84.667 -41 127 -123 127h-2
c-81.333 0 -122 -42.333 -122 -127c100.667 -380 100.667 -760 0 -1140c0 -84.667 41 -127 123 -127c82.667 0 124 42.333 124 127c-100.667 380 -100.667 760 0 1140zM449 1989c0 -33.333 -40.667 -50.001 -122 -50.001s-122 16.667 -122 50c28 48.667 28 96.667 0 144.001
c0 33.333 40.667 50 122 50s122 -16.667 122 -50c-28 -44.667 -28 -92.667 0 -144zM845 1989c0 -33.333 -40.667 -50 -122 -50s-122 16.667 -122 50c28 48.667 28 96.667 0 144c0 33.333 40.667 50 122 50s122 -16.667 122 -50c-28 -44.667 -28 -92.667 0 -144z" />
    <glyph glyph-name="multiply" unicode="&#xd7;" horiz-adv-x="1047" 
d="M383 676c-58 -57.333 -98.332 -74.668 -120.999 -52.001c-12.667 52 -44.667 84 -96 96c-22.667 22.667 -5.33398 63 51.999 121l118 118l-117 117c-58 57.333 -75.667 97.333 -53 120c52.667 12.667 85 45 97 97c22.667 22.667 62.667 5.33398 120 -51.999l117 -118
l117 117c58 57.333 98.333 75 121 53c10 -50 42 -82.333 96 -97c22.667 -22.667 5.33398 -63 -51.999 -121l-117 -117l118 -117c57.333 -57.333 74.666 -97.333 51.999 -120c-50 -10 -82.333 -42.333 -97 -97c-22.667 -22.667 -62.667 -5 -120 53l-117 117z" />
    <glyph glyph-name="Oslash" unicode="&#xd8;" horiz-adv-x="1053" 
d="M921 361c0 -262 -134.999 -393 -404.999 -393c-66 0 -124 8 -174 24c-41.333 -119.333 -98 -167.666 -170 -144.999c-73.333 22.667 -91 96.667 -53 222l3 11l31 67c-28.667 57.333 -43 128.666 -43 213.999c94 380 94 760 0 1140c0 261.333 135.333 392 406 392
c66 0 124 -8 174 -24c41.333 117.333 92.666 166.333 153.999 147c85.333 -26.667 107.333 -106 66 -238l-25 -79c24 -54.667 36 -120.667 36 -198c-94 -380 -94 -760 0 -1140zM628.001 1564c-16.667 42.667 -54.001 64 -112.001 64h-2c-81.333 0 -122 -42.333 -122 -127
c48 -181.333 73 -363 75 -545c62.667 200 116.334 402.667 161.001 608zM515 234c82.667 0 124 42.334 124 127.001c-32 119.333 -53.667 238.666 -65 357.999l-146 -459c20 -17.333 49 -26 87 -26z" />
    <glyph glyph-name="Ugrave" unicode="&#xd9;" horiz-adv-x="1253" 
d="M120 1744c0 32.667 23.9971 60.3291 71.9971 82.9961c46.667 22.667 103 34.334 169 35.001h14c64 -1.33301 119 -13 165 -35c48 -22.667 72 -50.334 72 -83.001s-24 -60.667 -72 -84c-10.667 -4.66699 -21.667 -9 -33 -13v-1287c0 -84 41 -126 123 -126
c82.667 0 127.334 42 134.001 126c60 275.333 80.667 523.333 62 744c-18 197.333 -42 377 -72 539c-15.333 4.66699 -29.666 10.334 -42.999 17.001c-48 23.333 -72 51.333 -72 84s24 60.334 72 83.001c46.667 22.667 103 34.334 169 35.001h14
c64 -1.33301 119 -13 165 -35c48 -22.667 72 -50.334 72 -83.001s-24 -60.667 -72 -84c-10.667 -4.66699 -21.667 -9 -33 -13v-1287c0 -261.333 -132 -392 -396 -392c-261.333 0.666992 -392 131.334 -392 392.001c65.333 275.333 88.333 523.333 69 744
c-18 197.333 -42 377 -72 539c-15.333 4.66699 -29.666 10.334 -42.999 17.001c-48 23.333 -72 51.333 -72 84zM275.997 2074c-17.333 8 21.333 33.668 116 77.001c72.667 33.333 117.667 45.666 135 37c-11.333 -78.667 66.667 -154.334 234 -227.001
c32 -30.667 -51.667 -30.667 -251 0z" />
    <glyph glyph-name="Uacute" unicode="&#xda;" horiz-adv-x="1253" 
d="M639 1776c0 32.667 23.9971 60.665 71.9971 83.998c48 22.667 106 34 174 34h2c66.667 -0.666992 124 -12 172 -34c48 -23.333 72 -51.333 72 -84s-24 -60.334 -72 -83.001c-10.667 -5.33301 -21.667 -10 -33 -14v-1287c0 -261.333 -132 -392 -396 -392
c-261.333 0.666992 -392 131.334 -392 392.001c65.333 275.333 88.333 523.333 69 744c-18 197.333 -42 377 -72 539c-15.333 5.33301 -29.666 11.333 -42.999 18c-48 22.667 -72 50.334 -72 83.001s24 60.667 72 84c48 22.667 106 34 174 34h9
c64 -1.33301 119 -12.666 165 -33.999c48 -23.333 72 -51.333 72 -84s-24 -60.334 -72 -83.001c-10.667 -5.33301 -21.667 -10 -33 -14v-1287c0 -84 41 -126 123 -126c82.667 0 127.334 42 134.001 126c60 275.333 80.667 523.333 62 744c-18 197.333 -42 377 -72 539
c-15.333 5.33301 -29.666 11.333 -42.999 18c-48 22.667 -72 50.334 -72 83.001zM653.997 1961c-199.333 -30.667 -282.668 -30.668 -250.001 -0.000976562c167.333 72.667 245.333 148.334 234 227.001c17.333 8.66699 62.333 -3.66602 135 -37
c94.667 -43.333 133.334 -69 116.001 -77z" />
    <glyph glyph-name="Ucircumflex" unicode="&#xdb;" horiz-adv-x="1253" 
d="M639 1776c0 32.667 23.9971 60.6641 71.9971 83.9971c46.667 22 103 33.333 169 34h14c64 -1.33301 119 -12.666 165 -33.999c48 -23.333 72 -51.333 72 -84s-24 -60.334 -72 -83.001c-10.667 -5.33301 -21.667 -10 -33 -14v-1287c0 -261.333 -132 -392 -396 -392
c-261.333 0.666992 -392 131.334 -392 392.001c65.333 275.333 88.333 523.333 69 744c-18 197.333 -42 377 -72 539c-15.333 5.33301 -29.666 11.333 -42.999 18c-48 22.667 -72 50.334 -72 83.001s24 60.667 72 84c46.667 22 103 33.333 169 34h14
c64 -1.33301 119 -12.666 165 -33.999c48 -23.333 72 -51.333 72 -84s-24 -60.334 -72 -83.001c-10.667 -5.33301 -21.667 -10 -33 -14v-1287c0 -84 41 -126 123 -126c82.667 0 127.334 42 134.001 126c60 275.333 80.667 523.333 62 744c-18 197.333 -42 377 -72 539
c-15.333 5.33301 -29.666 11.333 -42.999 18c-48 22.667 -72 50.334 -72 83.001zM624.997 2026l-132.001 -64c-199.333 -30.667 -282.666 -30.667 -249.999 0c167.333 73.333 245.333 149.666 234 228.999h296c-11.333 -79.333 66.667 -155.666 234 -228.999
c32 -30.667 -51.667 -30.667 -251 0z" />
    <glyph glyph-name="Udieresis" unicode="&#xdc;" horiz-adv-x="1253" 
d="M639 1776c0 32.667 23.9971 60.665 71.9971 83.998c46.667 22 103 33.333 169 34h14c64 -1.33301 119 -12.666 165 -33.999c48 -23.333 72 -51.333 72 -84s-24 -60.334 -72 -83.001c-10.667 -5.33301 -21.667 -10 -33 -14v-1287c0 -261.333 -132 -392 -396 -392
c-261.333 0.666992 -392 131.334 -392 392.001c65.333 275.333 88.333 523.333 69 744c-18 197.333 -42 377 -72 539c-15.333 5.33301 -29.666 11.333 -42.999 18c-48 22.667 -72 50.334 -72 83.001s24 60.667 72 84c48 22.667 106 34 174 34s126 -11.333 174 -34
c48 -23.333 72 -51.333 72 -84s-24 -60.334 -72 -83.001c-10.667 -5.33301 -21.667 -10 -33 -14v-1287c0 -84 41 -126 123 -126c82.667 0 127.334 42 134.001 126c60 275.333 80.667 523.333 62 744c-18 197.333 -42 377 -72 539c-15.333 5.33301 -29.666 11.333 -42.999 18
c-48 22.667 -72 50.334 -72 83.001zM944.997 1989c0 -33.333 -40.667 -50.001 -122 -50.001s-122 16.667 -122 50c28 48.667 28 96.667 0 144.001c0 33.333 40.667 50 122 50s122 -16.667 122 -50c-28 -44.667 -28 -92.667 0 -144zM548.997 1989
c0 -33.333 -40.667 -50 -122 -50s-122 16.667 -122 50c28 48.667 28 96.667 0 144c0 33.333 40.667 50 122 50s122 -16.667 122 -50c-28 -44.667 -28 -92.667 0 -144z" />
    <glyph glyph-name="Yacute" unicode="&#xdd;" horiz-adv-x="1257" 
d="M1187 1744c0 -32.667 -23.998 -60.666 -71.998 -83.999c-18.667 -8.66699 -38.334 -15.667 -59.001 -21c-114 -182.667 -211 -371.334 -291 -566.001v-858c10.667 -4 21.334 -8.66699 32.001 -14c48 -22.667 72 -50.334 72 -83.001s-24 -60.5 -72 -83.5
s-106 -34.5 -174 -34.5s-126 11.5 -174 34.5s-72 50.833 -72 83.5s24 60.334 72 83.001c13.333 6.66699 27.666 12.334 42.999 17.001c36 194 57.333 388 64 582l-38 130c-90.667 245.333 -206.334 481.666 -347.001 708.999c-21.333 5.33301 -41 12.333 -59 21
c-48 23.333 -72 51.333 -72 84s24 60.5 72 83.5s105.667 34.5 173 34.5h13c62.667 -1.33301 116.667 -13 162 -35c48 -22.667 72 -50.334 72 -83.001c0 -32 -23.333 -59.667 -70 -83l152 -398l150 398c-46 23.333 -69 51 -69 83c0 32.667 24 60.334 72 83.001
c46 22 101.333 33.667 166 35h8c68 0 126 -11.5 174 -34.5s72 -50.833 72 -83.5zM726.002 1961c-199.333 -30.667 -282.668 -30.6689 -250.001 -0.00195312c167.333 72.667 245.333 148.334 234 227.001c17.333 8.66699 62.333 -3.66602 135 -36.999
c94.667 -43.333 133.334 -69 116.001 -77z" />
    <glyph glyph-name="Thorn" unicode="&#xde;" horiz-adv-x="1092" 
d="M130 118c0 32.667 23.998 60.3359 71.998 83.0029c9.33301 4.66699 19 9 29 13c89.333 478 89.333 956 0 1434c-10 3.33301 -19.667 7.33301 -29 12c-48 23.333 -72 51.333 -72 84s24 60.334 72 83.001c32 15.333 68.333 25.666 109 30.999c10.667 2.66699 22 4 34 4h31
c68 0 126 -11.5 174 -34.5s72 -50.833 72 -83.5s-24 -60.667 -72 -84c-14 -6.66699 -29 -12.334 -45 -17.001v-181h124c157.333 0 265.333 -51.333 324 -154c26.667 -41.333 43.667 -93 51 -155v-3c-103.333 -135.333 -104.666 -280.333 -3.99902 -435
c-21.333 -149.333 -109.666 -248 -264.999 -296c-43.333 -13.333 -106.333 -20 -189 -20h-41v-180c16 -5.33301 31 -11.333 45 -18c48 -22.667 72 -50.334 72 -83.001s-24 -60.5 -72 -83.5s-106 -34.5 -174 -34.5h-30c-55.333 3.33301 -103.333 14.666 -144 33.999
c-48 23.333 -72 51.333 -72 84zM746.998 1150c0 32.667 -41.001 49 -123.001 49h-2c-64.667 0 -103.667 -10.333 -117 -31v-471c12.667 -20.667 52 -31 118 -31c82.667 0 124 16.333 124 49c-66 100.667 -88.667 197.667 -68 291c10.667 49.333 33.334 97.333 68.001 144z
" />
    <glyph glyph-name="germandbls" unicode="&#xdf;" horiz-adv-x="1141" 
d="M130 118c0 32.667 24.001 60.3359 72.001 83.0029c9.33301 4.66699 19 9 29 13c44.667 238 67.334 477 68.001 717c-0.666992 254 -26 507.667 -76 761c0 114 41 170.667 123 170h311c223.333 0 347.333 -103.667 372 -311v-3
c-103.333 -135.333 -104.666 -280.333 -3.99902 -435c-18 -82 -67 -142.667 -147 -182c80 -40 129 -101 147 -183c-100.667 -321.333 -99.334 -549.666 3.99902 -684.999v-3c-24.667 -206.667 -137 -295.667 -337 -267c-42 22 -63 64 -63 126c0 47.333 22 79.666 66 96.999
c5.33301 2.66699 10.666 5 15.999 7c26.667 8 40 21.333 40 40c-34.667 46.667 -57.334 94.667 -68.001 144c-20.667 93.333 2 273.666 68 540.999c0 32.667 -41.333 49 -124 49c-82 0 -123 -16.333 -123 -49v-529c16 -4.66699 31.333 -10.667 46 -18
c48 -22.667 72 -50.334 72 -83.001s-24 -60.5 -72 -83.5s-106 -34.5 -174 -34.5h-31c-12 0 -23.333 1 -34 3c-40.667 5.33301 -77 15.666 -109 30.999c-48 23.333 -72 51.333 -72 84zM751.001 1548c0 32.667 -41.001 49 -123.001 49h-2c-81.333 0 -122 -16.333 -122 -49
v-435c0 -32.667 41 -49 123 -49c82.667 0 124 16.333 124 49c-66 100.667 -88.667 197.667 -68 291c10.667 49.333 33.334 97.333 68.001 144z" />
    <glyph glyph-name="agrave" unicode="&#xe0;" horiz-adv-x="1255" 
d="M721 118c0 32.667 23.999 60.334 71.999 83.001c11.333 6 23.333 11 36 15l-36 179h-332l-37 -179c12.667 -4.66699 24.667 -9.66699 36 -15c48 -22.667 72 -50.334 72 -83.001s-24 -60.667 -72 -84c-46 -22 -100.667 -33.333 -164 -34h-16
c-65.333 0.666992 -121.333 12 -168 34c-48 23.333 -72 51.333 -72 84s24 60.334 72 83.001c13.333 6.66699 27.333 12.334 42 17.001c160.667 466.667 261.334 947 302.001 1441c-1.33301 0 -2.33301 0.333008 -3 1c-48 23.333 -72 51.333 -72 84s24 60.334 72 83.001
c46 22 101 33.667 165 35h18c64 -1.33301 119 -13 165 -35c48 -22.667 72 -50.334 72 -83.001s-24 -60.667 -72 -84c-1.33301 -0.666992 -2.66602 -1 -3.99902 -1c40.667 -494 141 -974.333 301 -1441c15.333 -4.66699 29.666 -10.334 42.999 -17.001
c48 -22.667 72 -50.334 72 -83.001s-24 -60.5 -72 -83.5s-106 -34.5 -174 -34.5s-126 11.5 -174 34.5s-72 50.833 -72 83.5zM507.999 661h238.002c-66.667 180 -106.334 438 -119.001 774c-12.667 -336 -52.334 -594 -119.001 -774zM300.001 2074
c-17.333 8 21.333 33.6689 116 77.002c72.667 33.333 117.667 45.666 135 36.999c-11.333 -78.667 66.667 -154.334 234 -227.001c32 -30.667 -51.667 -30.667 -251 0z" />
    <glyph glyph-name="aacute" unicode="&#xe1;" horiz-adv-x="1255" 
d="M721 118c0 32.667 24 60.666 72 83.999c11.333 5.33301 23.333 10 36 14l-36 179h-332l-37 -179c12.667 -4 24.667 -8.66699 36 -14c48 -23.333 72 -51.333 72 -84s-24 -60.334 -72 -83.001c-46 -22.667 -100.667 -34.334 -164 -35.001h-16
c-65.333 0.666992 -121.333 12.334 -168 35.001c-48 22.667 -72 50.334 -72 83.001s24 60.667 72 84c13.333 6 27.333 11.333 42 16c160.667 466.667 261.334 947 302.001 1441c-1.33301 0.666992 -2.33301 1.33398 -3 2.00098c-48 22.667 -72 50.334 -72 83.001
s24 60.667 72 84c46 21.333 101 32.666 165 33.999h18c64 -1.33301 119 -12.666 165 -33.999c48 -23.333 72 -51.333 72 -84s-24 -60.334 -72 -83.001l-4 -2c40.667 -494 141 -974.333 301 -1441c15.333 -4.66699 29.666 -10 42.999 -16c48 -23.333 72 -51.333 72 -84
s-24 -60.334 -72 -83.001c-48 -23.333 -106 -35 -174 -35s-126 11.667 -174 35c-48 22.667 -72 50.334 -72 83.001zM746 660.999c-66.667 180 -106.332 438 -118.999 774c-12.667 -336 -52.334 -594 -119.001 -774h238zM720.002 1961
c-199.333 -30.667 -282.668 -30.6689 -250.001 -0.00195312c167.333 72.667 245.333 148.334 234 227.001c17.333 8.66699 62.333 -3.66602 135 -36.999c94.667 -43.333 133.334 -69 116.001 -77z" />
    <glyph glyph-name="acircumflex" unicode="&#xe2;" horiz-adv-x="1255" 
d="M721 118c0 32.667 24 60.666 72 83.999c11.333 5.33301 23.333 10 36 14l-36 179h-332l-37 -179c12.667 -4 24.667 -8.66699 36 -14c48 -23.333 72 -51.333 72 -84s-24 -60.334 -72 -83.001c-46 -22.667 -100.667 -34.334 -164 -35.001h-16
c-65.333 0.666992 -121.333 12.334 -168 35.001c-48 22.667 -72 50.334 -72 83.001s24 60.667 72 84c13.333 6 27.333 11.333 42 16c160.667 466.667 261.334 947 302.001 1441c-1.33301 0.666992 -2.33301 1.33398 -3 2.00098c-48 22.667 -72 50.334 -72 83.001
s24 60.667 72 84c48 22.667 106 34 174 34s126 -11.333 174 -34c48 -23.333 72 -51.333 72 -84s-24 -60.334 -72 -83.001l-4 -2c40.667 -494 141 -974.333 301 -1441c15.333 -4.66699 29.666 -10 42.999 -16c48 -23.333 72 -51.333 72 -84s-24 -60.334 -72 -83.001
c-46.667 -22.667 -102.667 -34.334 -168 -35.001h-16c-64 0.666992 -118.667 12.334 -164 35.001c-48 22.667 -72 50.334 -72 83.001zM627 2026l-132.001 -64c-199.333 -30.667 -282.666 -30.667 -249.999 0c167.333 73.333 245.333 149.666 234 228.999h296
c-11.333 -79.333 66.667 -155.666 234 -228.999c32 -30.667 -51.667 -30.667 -251 0zM745.999 660.999c-66.667 180 -106.332 438 -118.999 774c-12.667 -336 -52.334 -594 -119.001 -774h238z" />
    <glyph glyph-name="atilde" unicode="&#xe3;" horiz-adv-x="1255" 
d="M721 118c0 32.667 24 60.667 72 84c11.333 5.33301 23.333 10 36 14l-36 179h-332l-37 -179c12.667 -4 24.667 -8.66699 36 -14c48 -23.333 72 -51.333 72 -84s-24 -60.334 -72 -83.001c-48 -23.333 -106 -35 -174 -35s-126 11.667 -174 35
c-48 22.667 -72 50.334 -72 83.001s24 60.667 72 84c13.333 6 27.333 11.333 42 16c160.667 466.667 261.334 947 302.001 1441c-1.33301 0.666992 -2.33301 1.33398 -3 2.00098c-48 22.667 -72 50.334 -72 83.001s24 60.667 72 84c46 21.333 101 32.666 165 33.999h9
c68 0 126 -11.333 174 -34c48 -23.333 72 -51.333 72 -84s-24 -60.334 -72 -83.001l-4 -2c40.667 -494 141 -974.333 301 -1441c15.333 -4.66699 29.666 -10 42.999 -16c48 -23.333 72 -51.333 72 -84s-24 -60.334 -72 -83.001
c-46.667 -22.667 -102.667 -34.334 -168 -35.001h-16c-64 0.666992 -118.667 12.334 -164 35.001c-48 22.667 -72 50.334 -72 83.001zM589 2005c-43.333 26.667 -69.3311 40.333 -77.998 41c-20.667 0 -51.334 -32 -92.001 -96c-42.667 -48.667 -80.334 -57 -113.001 -25
c-38 38.667 -28.667 95 28 169c41.333 67.333 95.333 102.666 162 106c43.333 0 99.666 -20.667 168.999 -62c43.333 -26.667 69.333 -40.334 78 -41.001c20.667 0 51.334 32 92.001 96c42.667 48.667 80 57 112 25c38.667 -38.667 29.667 -95 -27 -169
c-41.333 -67.333 -95.333 -102.666 -162 -105.999c-44 0 -100.333 20.667 -169 62zM746.002 660.999c-66.667 180 -106.332 438 -118.999 774c-12.667 -336 -52.334 -594 -119.001 -774h238z" />
    <glyph glyph-name="adieresis" unicode="&#xe4;" horiz-adv-x="1255" 
d="M721 118c0 32.667 24 60.667 72 84c11.333 5.33301 23.333 10 36 14l-36 179h-332l-37 -179c12.667 -4 24.667 -8.66699 36 -14c48 -23.333 72 -51.333 72 -84s-24 -60.334 -72 -83.001c-46 -22.667 -100.667 -34.334 -164 -35.001h-10c-68 0 -126 11.667 -174 35
c-48 22.667 -72 50.334 -72 83.001s24 60.667 72 84c13.333 6 27.333 11.333 42 16c160.667 466.667 261.334 947 302.001 1441c-1.33301 0.666992 -2.33301 1.33398 -3 2.00098c-48 22.667 -72 50.334 -72 83.001s24 60.667 72 84c47.333 22.667 105 34 173 34h10
c64 -1.33301 119 -12.666 165 -33.999c48 -23.333 72 -51.333 72 -84s-24 -60.334 -72 -83.001l-4 -2c40.667 -494 141 -974.333 301 -1441c15.333 -4.66699 29.666 -10 42.999 -16c48 -23.333 72 -51.333 72 -84s-24 -60.334 -72 -83.001
c-46.667 -22.667 -102.667 -34.334 -168 -35.001h-6c-68 0 -126 11.667 -174 35c-48 22.667 -72 50.334 -72 83.001zM746 661c-66.667 180 -106.332 438 -118.999 774c-12.667 -336 -52.334 -594 -119.001 -774h238zM551.002 1989c0 -33.333 -40.667 -50.001 -122 -50.001
s-122 16.667 -122 50c28 48.667 28 96.667 0 144.001c0 33.333 40.667 50 122 50s122 -16.667 122 -50c-28 -44.667 -28 -92.667 0 -144zM947.002 1989c0 -33.333 -40.667 -50 -122 -50s-122 16.667 -122 50c28 48.667 28 96.667 0 144c0 33.333 40.667 50 122 50
s122 -16.667 122 -50c-28 -44.667 -28 -92.667 0 -144z" />
    <glyph glyph-name="aring" unicode="&#xe5;" horiz-adv-x="1255" 
d="M721 118c0 32.667 24.001 60.335 72.001 83.002c11.333 5.33301 23.333 10 36 14l-37 180h-332l-37 -179c12.667 -4.66699 25 -9.66699 37 -15c48 -22.667 72 -50.334 72 -83.001s-24 -60.667 -72 -84c-46 -22 -101 -33.333 -165 -34h-9c-68 0 -126 11.333 -174 34
c-48 23.333 -72 51.333 -72 84s24 60.334 72 83.001c13.333 6 27.333 11.333 42 16c160 466.667 260.333 947.334 301 1442c-0.666992 0 -1.33398 0.333008 -2.00098 1c-48 23.333 -72 51.333 -72 84s24 60.334 72 83.001h1c-18 33.333 -27 88.666 -27 165.999
c0 132.667 27 199 81 199c73.333 -46 152.333 -46 237 0c54 0 81 -66.333 81 -199c0 -78 -9.33301 -133 -28 -165c1.33301 -0.666992 2.33301 -1 3 -1c48 -22.667 72 -50.334 72 -83.001s-24 -60.667 -72 -84c-1.33301 -0.666992 -3 -1.33398 -5 -2.00098
c40.667 -494 141.334 -974.333 302.001 -1441c15.333 -4.66699 29.666 -10 42.999 -16c48 -22.667 72 -50.334 72 -83.001s-24 -60.667 -72 -84c-48 -22.667 -106 -34 -174 -34s-126 11.333 -174 34c-48 23.333 -72 51.333 -72 84zM626.001 1435
c-12.667 -336 -52.332 -594 -118.999 -774h238c-66.667 180 -106.334 438 -119.001 774zM508.003 2053c-17.333 0 -26 -20 -26 -60v-1c0 -40 8.66699 -60 26 -60c73.333 49.333 152.333 49.333 237 0c17.333 0 26 20 26 60c0 40.667 -8.66699 61 -26 61
c-84.667 -49.333 -163.667 -49.333 -237 0z" />
    <glyph glyph-name="ae" unicode="&#xe6;" horiz-adv-x="1561" 
d="M460 35c-48 -23.333 -106.001 -34.9971 -174.001 -34.9971s-126 11.667 -174 35c-48 22.667 -72 50.334 -72 83.001s24 60.667 72 84c13.333 6 27.333 11.333 42 16c160 466.667 260.333 947 301 1441l-2 2c-48 22.667 -72 50.334 -72 83.001s24 60.667 72 84
c45.333 21.333 100 32.666 164 33.999h574c48 0 85.667 -9.66699 113 -29l13 13c7.33301 5.33301 14.666 9.33301 21.999 12s14.666 4 21.999 4h5c1.33301 -0.666992 2.66602 -1 3.99902 -1l5 -1c2.66699 -0.666992 5 -1.33398 7 -2.00098
c8.66699 -2.66699 16.667 -7.33398 24 -14.001c7.33301 -6 14 -13.667 20 -23c2.66699 -3.33301 5.33398 -7 8.00098 -11c2.66699 -5.33301 5.66699 -11 9 -17c0 -0.666992 0.333008 -1.66699 1 -3c6.66699 -13.333 12.334 -27.333 17.001 -42l4 -16
c3.33301 -11.333 6 -23 8 -35l2 -14c1.33301 -10 2.33301 -20.667 3 -32l1 -20v-30c-0.666992 -3.33301 -1 -6.66602 -1 -9.99902v-10c-1.33301 -16 -3 -31.667 -5 -47l-6 -26l-6 -24c-0.666992 -2.66699 -1.66699 -5.33398 -3 -8.00098l-10 -27
c-1.33301 -2.66699 -2.66602 -5 -3.99902 -7c-2 -4.66699 -4.33301 -9.33398 -7 -14.001c-3.33301 -6.66699 -7 -12.667 -11 -18c-3.33301 -4.66699 -6.66602 -8.66699 -9.99902 -12c-3.33301 -4 -6.66602 -7.33301 -9.99902 -10l-2 -2
c-4 -3.33301 -8.33301 -6.33301 -13 -9l-4 -2c-5.33301 -2 -11 -3.66699 -17 -5h-19c-4 0.666992 -8 1.66699 -12 3c-1.33301 0.666992 -2.83301 1.33398 -4.5 2.00098s-3.16699 1.33398 -4.5 2.00098c-3.33301 2 -7 4.33301 -11 7l-2 2c-8 6.66699 -16 15.667 -24 27l-9 15
c-2 3.33301 -3.66699 6.66602 -5 9.99902l-2 4c-0.666992 2 -1.66699 4.33301 -3 7c-1.33301 2 -2.33301 4.33301 -3 7c-4.66699 11.333 -9 23.333 -13 36l-4 16c-0.666992 2.66699 -1.33398 5.66699 -2.00098 9c0 1.33301 -0.333008 2.66602 -1 3.99902
c-0.666992 4.66699 -1.33398 9 -2.00098 13l-2 14c-1.33301 10.667 -2.33301 21.667 -3 33v2c-16 -2 -33.667 -3 -53 -3c-93.333 18.667 -186.666 33.667 -279.999 45v-592c76.667 10.667 153.334 23.667 230.001 39c113.333 0 170 -40.667 170 -122
c0 -106.667 -56.667 -160 -170 -160h-230v-553c93.333 11.333 186.666 26.333 279.999 45c19.333 0 37 -1.33301 53 -4c2.66699 54 13.667 101.333 33 142c23.333 48 51.333 72 84 72s60.5 -24 83.5 -72s34.5 -106 34.5 -174s-11.5 -126 -34.5 -174s-50.833 -72 -83.5 -72
c-20.667 0 -39.667 9.66699 -57 29c-27.333 -19.333 -65 -29 -113 -29h-422c-91.333 0 -138 53.667 -140 161c15.333 78 28.333 156 39 234h-208l-37 -179c12.667 -4 25 -8.66699 37 -14c48 -23.333 72 -51.333 72 -84s-24 -60.334 -72 -83.001zM625.999 1435
c-12.667 -336 -52.333 -594.001 -119 -774.001h188c3.33301 46.667 5.66602 93.334 6.99902 140.001c-41.333 166 -66.666 377.333 -75.999 634z" />
    <glyph glyph-name="ccedilla" unicode="&#xe7;" horiz-adv-x="1023" 
d="M392 360c0 -84.667 41.6641 -127 124.997 -127c83.333 -0.666992 125 15.333 125 48c-35.333 46.667 -58.333 94.667 -69 144c-8 34 -10 68.667 -6 104c10.667 72 57.667 111.667 141 119c70.667 5.33301 119.334 -17.667 146.001 -69
c-28 -104 -5.66699 -203.333 67 -298c-26.667 -135.333 -95.667 -226.666 -207 -273.999c-35.333 -18.667 -79.666 -30.667 -132.999 -36l40 -37c26.667 -20.667 43.334 -45.334 50.001 -74.001l5 -28c4 -23.333 9 -45.333 15 -66c0 -77.333 -46.333 -116 -139 -116
c-77.333 0 -123 30.667 -137 92c18 20 27 41 27 63c0 8 -1.33301 16.333 -4 25c8 14 22.333 21 43 21h6c28.667 -2 44.667 -13.667 48 -35l1 -12c0 -21.333 -8.66699 -42 -26 -62c0 -9.33301 14 -14 42 -14c28.667 0 43 12.667 43 38l-16 64c-6.66699 17.333 -38 52 -94 104
c-8 8.66699 -12 17.667 -12 27v8c-242.667 14 -363.667 144 -363 390c42.667 163.333 65.667 348.333 69 555v33c-3.33301 206.667 -26.333 391.667 -69 555c-0.666992 260.667 135 391 407 391c82.667 0 148.334 -13 197.001 -39
c111.333 -47.333 180.333 -138.666 207 -273.999c-72.667 -94.667 -95 -194 -67 -298c-26.667 -51.333 -75.334 -74.333 -146.001 -69c-83.333 7.33301 -130.333 47 -141 119c-4 35.333 -2 70 6 104c10.667 49.333 33.667 97.333 69 144c0 32.667 -41.667 49 -125 49
c-83.333 -0.666992 -125 -43.334 -125 -128.001v-1141z" />
    <glyph glyph-name="egrave" unicode="&#xe8;" horiz-adv-x="1062" 
d="M692 1862c48 0 85.667 -9.66016 113 -28.9932l1 1c4 4.66699 8 8.66699 12 12c1.33301 0 2 0.333008 2 1c2.66699 2 5 3.66699 7 5l4 2c2 0.666992 3.66699 1.33398 5 2.00098c3.33301 1.33301 6.33301 2.66602 9 3.99902c5.33301 1.33301 11 2 17 2h5
c1.33301 -0.666992 2.66602 -1 3.99902 -1l5 -1c2.66699 -0.666992 5 -1.33398 7 -2.00098c3.33301 -0.666992 6.33301 -2 9 -4c4.66699 -2 9 -4.66699 13 -8l2 -2c7.33301 -6 14 -13.667 20 -23c2.66699 -3.33301 5.33398 -7 8.00098 -11
c2.66699 -5.33301 5.66699 -11 9 -17c0 -0.666992 0.333008 -1.66699 1 -3c2.66699 -4.66699 5 -9.66699 7 -15c8 -18.667 14 -38.667 18 -60c0.666992 -2 1 -3.66699 1 -5c1.33301 -4 2.33301 -8.33301 3 -13c2.66699 -18 4.33398 -36.667 5.00098 -56
c0.666992 -3.33301 1 -6.66602 1 -9.99902v-15c0 -12 -0.333008 -23.667 -1 -35c-0.666992 -6.66699 -1.33398 -13 -2.00098 -19c0 -4.66699 -0.333008 -9.33398 -1 -14.001c-1.33301 -9.33301 -3 -18.333 -5 -27c-2 -10 -4.33301 -19.667 -7 -29l-5 -16l-3 -8l-4 -12l-3 -7
c-1.33301 -2.66699 -2.66602 -5 -3.99902 -7c-2 -4.66699 -4.33301 -9.33398 -7 -14.001c-0.666992 -2 -1.66699 -4 -3 -6c-11.333 -18.667 -23.333 -32.334 -36 -41.001c-1.33301 -0.666992 -2.33301 -1 -3 -1c-2.66699 -2 -5.33398 -3.66699 -8.00098 -5
c-1.33301 -0.666992 -3 -1.33398 -5 -2.00098s-4.33301 -1.33398 -7 -2.00098l-5 -1h-19c-2 0.666992 -4.33301 1.33398 -7 2.00098c-1.33301 0 -3 0.333008 -5 1l-5 2l-4 2c-1.33301 0.666992 -2.66602 1.66699 -3.99902 3c-3.33301 1.33301 -6.33301 3.33301 -9 6
c-8 6.66699 -16 15.667 -24 27c-1.33301 2.66699 -3 5.66699 -5 9l-4 6c-2 3.33301 -3.66699 6.66602 -5 9.99902l-2 4c-0.666992 2 -1.66699 4.33301 -3 7c-2.66699 6 -5.33398 12.333 -8.00098 19c-2 5.33301 -3.66699 10.666 -5 15.999c-3.33301 10 -6.33301 21 -9 33
c-1.33301 5.33301 -2.33301 11 -3 17c-2.66699 16 -4.33398 32.333 -5.00098 49c-16 -2 -33.667 -3 -53 -3c-93.333 18.667 -186.666 33.667 -279.999 45v-592c76.667 10.667 153.334 23.667 230.001 39c113.333 0 170 -40.667 170 -122c0 -106.667 -56.667 -160 -170 -160
h-230v-553c93.333 11.333 186.666 26.333 279.999 45c19.333 0 37 -1.33301 53 -4c2.66699 54 13.667 101.333 33 142c23.333 48 51.333 72 84 72s60.5 -24 83.5 -72s34.5 -106 34.5 -174s-11.5 -126 -34.5 -174s-50.833 -72 -83.5 -72c-20.667 0 -39.667 9.66699 -57 29
c-27.333 -19.333 -65 -29 -113 -29h-422c-91.333 0 -138 53.667 -140 161c100.667 513.333 100.667 1023.67 0 1531c0 113.333 40.667 170 122 170h440zM198 2074.01c-17.333 8 21.333 33.668 116 77.001c72.667 33.333 117.667 45.666 135 37
c-11.333 -78.667 66.667 -154.334 234 -227.001c32 -30.667 -51.667 -30.667 -251 0z" />
    <glyph glyph-name="eacute" unicode="&#xe9;" horiz-adv-x="1062" 
d="M692 1862c48 0 85.6689 -9.66016 113.002 -28.9932l1 1c4 4.66699 8 8.66699 12 12c8.66699 6.66699 17.667 11.334 27 14.001c2.66699 0.666992 5 1 7 1c1.33301 0.666992 3 1 5 1h10c3.33301 -0.666992 6.33301 -1.33398 9 -2.00098s5 -1.33398 7 -2.00098
c3.33301 -0.666992 6.33301 -2 9 -4l4 -2c1.33301 -0.666992 2.33301 -1.33398 3 -2.00098l6 -4l12 -12c3.33301 -4 6.66602 -8.33301 9.99902 -13c2.66699 -3.33301 5.33398 -7 8.00098 -11c3.33301 -6 6.66602 -12.667 9.99902 -20l4 -8l3 -7c2.66699 -6 5 -12.333 7 -19
c0.666992 -2.66699 1.66699 -5.33398 3 -8.00098l4 -16l4 -17c2.66699 -10.667 4.66699 -21.334 6 -32.001c0.666992 -4 1 -8.33301 1 -13c0.666992 -6.66699 1.33398 -13 2.00098 -19l1 -20v-30c-0.666992 -18.667 -2 -36.334 -4 -53.001
c-2.66699 -20 -6.66699 -38.667 -12 -56l-5 -16l-3 -8c-3.33301 -9.33301 -7 -18 -11 -26c-12 -25.333 -25.333 -44 -40 -56c-2 -2 -4 -3.66699 -6 -5c-1.33301 -0.666992 -2.33301 -1 -3 -1c-2.66699 -2 -5.33398 -3.66699 -8.00098 -5c-5.33301 -2 -11 -3.66699 -17 -5
h-19c-4 0.666992 -8 1.66699 -12 3c-4 2 -8.33301 4.33301 -13 7c-2 1.33301 -4.33301 2.66602 -7 3.99902c-4.66699 4 -9.33398 8.66699 -14.001 14c-6 6.66699 -11.667 14.667 -17 24c-4 6 -7.66699 12.667 -11 20l-6 14c-2 4 -3.66699 8 -5 12l-3 8l-5 16l-4 16
c-0.666992 2.66699 -1.33398 5.66699 -2.00098 9c-1.33301 5.33301 -2.33301 11 -3 17l-4 28c0 3.33301 -0.166992 6.5 -0.5 9.5s-0.5 6.16699 -0.5 9.5v2c-16 -2 -33.667 -3 -53 -3c-93.333 18.667 -186.666 33.667 -279.999 45v-592
c76.667 10.667 153.334 23.667 230.001 39c113.333 0 170 -40.667 170 -122c0 -106.667 -56.667 -160 -170 -160h-230v-553c93.333 11.333 186.666 26.333 279.999 45c19.333 0 37 -1.33301 53 -4c2.66699 54 13.667 101.333 33 142c23.333 48 51.333 72 84 72
s60.5 -24 83.5 -72s34.5 -106 34.5 -174s-11.5 -126 -34.5 -174s-50.833 -72 -83.5 -72c-20.667 0 -39.667 9.66699 -57 29c-27.333 -19.333 -65 -29 -113 -29h-422c-91.333 0 -138 53.667 -140 161c100.667 513.333 100.667 1023.67 0 1531c0 113.333 40.667 170 122 170
h440zM587.002 1961.01c-199.333 -30.667 -282.668 -30.6689 -250.001 -0.00195312c167.333 72.667 245.333 148.334 234 227.001c17.333 8.66699 62.333 -3.66602 135 -36.999c94.667 -43.333 133.334 -69 116.001 -77z" />
    <glyph glyph-name="ecircumflex" unicode="&#xea;" horiz-adv-x="1062" 
d="M412 1033c76.667 10.667 153.336 23.6689 230.003 39.002c113.333 0 170 -40.667 170 -122c0 -106.667 -56.667 -160 -170 -160h-230v-553c93.333 11.333 186.666 26.333 279.999 45c19.333 0 37 -1.33301 53 -4c2.66699 54 13.667 101.333 33 142
c23.333 48 51.333 72 84 72s60.5 -24 83.5 -72s34.5 -106 34.5 -174s-11.5 -126 -34.5 -174s-50.833 -72 -83.5 -72c-20.667 0 -39.667 9.66699 -57 29c-27.333 -19.333 -65 -29 -113 -29h-422c-91.333 0 -138 53.667 -140 161c100.667 513.333 100.667 1023.67 0 1531
c0 113.333 40.667 170 122 170h440c48 0 85.667 -9.66699 113 -29c14.667 16 30.334 25.333 47.001 28c3.33301 0.666992 6.66602 1 9.99902 1s6.33301 -0.333008 9 -1c2.66699 0 5 -0.333008 7 -1l10 -4l8 -4c1.33301 -0.666992 2.33301 -1.33398 3 -2.00098
c10 -6.66699 19.333 -16.334 28 -29.001c6 -8 11.667 -17.333 17 -28c0 -0.666992 0.333008 -1.66699 1 -3c6.66699 -13.333 12.334 -27.333 17.001 -42l4 -16c0.666992 -3.33301 1.33398 -6.33301 2.00098 -9l2 -8c3.33301 -14.667 5.66602 -29.667 6.99902 -45
c1.33301 -10 2 -19.667 2 -29c0.666992 -8.66699 1 -17 1 -25v-15c-0.666992 -7.33301 -1 -14 -1 -20c0 -3.33301 -0.333008 -6.66602 -1 -9.99902c-2 -28.667 -6.66699 -55 -14 -79c-3.33301 -12.667 -7.33301 -24.667 -12 -36c-2 -4.66699 -4.16699 -9.33398 -6.5 -14.001
s-4.83301 -9.33398 -7.5 -14.001c-9.33301 -17.333 -19.666 -30.666 -30.999 -39.999c-3.33301 -3.33301 -7 -6 -11 -8c-2.66699 -2 -5.33398 -3.66699 -8.00098 -5c-8.66699 -3.33301 -17.334 -5 -26.001 -5h-5c-7.33301 0.666992 -14.333 2.33398 -21 5.00098
c-2 0.666992 -3.66699 1.33398 -5 2.00098c-3.33301 2 -7 4.33301 -11 7c-4.66699 4 -9.33398 8.66699 -14.001 14c-4 4 -8 9 -12 15c-1.33301 2.66699 -3 5.66699 -5 9l-4 6c-2 3.33301 -3.66699 6.66602 -5 9.99902l-2 4c-4 8 -7.66699 16.667 -11 26l-3 8l-2 8
c-2 4.66699 -3.66699 10 -5 16c-2 6.66699 -3.66699 13.667 -5 21c-0.666992 4.66699 -1.33398 9 -2.00098 13c-2.66699 16 -4.33398 32.333 -5.00098 49c-16 -2 -33.667 -3 -53 -3c-93.333 18.667 -186.666 33.667 -279.999 45v-592zM519.002 2026l-132.001 -64
c-199.333 -30.667 -282.666 -30.667 -249.999 0c167.333 73.333 245.333 149.666 234 228.999h296c-11.333 -79.333 66.667 -155.666 234 -228.999c32 -30.667 -51.667 -30.667 -251 0z" />
    <glyph glyph-name="edieresis" unicode="&#xeb;" horiz-adv-x="1062" 
d="M692 1862c48 0 85.668 -9.66699 113.001 -29c5.33301 5.33301 10.333 10 15 14c4 2.66699 7.66699 5 11 7c2 0.666992 3.66699 1.33398 5 2.00098c8 4 16.667 6 26 6h5c4 -0.666992 7.66699 -1.33398 11 -2.00098c2 -0.666992 3.66699 -1.33398 5 -2.00098
c4.66699 -1.33301 9 -3.33301 13 -6c1.33301 -0.666992 2.33301 -1.33398 3 -2.00098l8 -6l10 -10c6 -6.66699 12 -14.667 18 -24c0.666992 -2.66699 1.66699 -5 3 -7c2.66699 -4 5 -8.33301 7 -13c7.33301 -16 13.666 -32.667 18.999 -50l2 -8l4 -17
c0.666992 -2 1 -3.66699 1 -5c1.33301 -4 2.33301 -8.33301 3 -13c2 -12 3.33301 -24.333 4 -37l2 -29v-30c-0.666992 -7.33301 -1 -14 -1 -20c0 -3.33301 -0.166992 -6.66602 -0.5 -9.99902s-0.833008 -6.33301 -1.5 -9c0 -4.66699 -0.333008 -9.33398 -1 -14.001l-2 -13.5
c-0.666992 -4.33301 -1.66699 -8.83301 -3 -13.5c0 -1.33301 -0.333008 -2.66602 -1 -3.99902c-0.666992 -2.66699 -1.33398 -5.5 -2.00098 -8.5s-1.33398 -5.83301 -2.00098 -8.5l-2 -8c-2 -8.66699 -4.66699 -16.667 -8 -24l-4 -12l-3 -7
c-1.33301 -2.66699 -2.66602 -5 -3.99902 -7c-0.666992 -1.33301 -1 -2.66602 -1 -3.99902c-11.333 -22 -23.666 -38.667 -36.999 -50l-2 -2c-2.66699 -2.66699 -5.66699 -4.66699 -9 -6c-4 -2.66699 -8.33301 -5 -13 -7c-1.33301 -0.666992 -3 -1 -5 -1
c-0.666992 0 -1.33398 -0.333008 -2.00098 -1l-5 -1h-9c-6 0 -11.667 0.666992 -17 2c-9.33301 2.66699 -18.333 7.33398 -27 14.001c-4 3.33301 -8 7.33301 -12 12c-7.33301 8 -14.333 18 -21 30c-2 4.66699 -4.33301 9.33398 -7 14.001c-0.666992 2 -1.66699 4.33301 -3 7
c-1.33301 2 -2.33301 4.33301 -3 7c-2 4 -3.66699 8 -5 12c-5.33301 15.333 -10 31.666 -14 48.999c-4 20.667 -6.66699 42.667 -8 66c-16 -2 -33.667 -3 -53 -3c-93.333 18.667 -186.666 33.667 -279.999 45v-592c76.667 10.667 153.334 23.667 230.001 39
c113.333 0 170 -40.667 170 -122c0 -106.667 -56.667 -160 -170 -160h-230v-553c93.333 11.333 186.666 26.333 279.999 45c19.333 0 37 -1.33301 53 -4c2.66699 54 13.667 101.333 33 142c23.333 48 51.333 72 84 72s60.5 -24 83.5 -72s34.5 -106 34.5 -174
s-11.5 -126 -34.5 -174s-50.833 -72 -83.5 -72c-20.667 0 -39.667 9.66699 -57 29c-27.333 -19.333 -65 -29 -113 -29h-422c-91.333 0 -138 53.667 -140 161c100.667 513.333 100.667 1023.67 0 1531c0 113.333 40.667 170 122 170h440zM819.001 1989
c0 -33.333 -40.667 -50.001 -122 -50.001s-122 16.667 -122 50c28 48.667 28 96.667 0 144.001c0 33.333 40.667 50 122 50s122 -16.667 122 -50c-28 -44.667 -28 -92.667 0 -144zM423.001 1989c0 -33.333 -40.667 -50 -122 -50s-122 16.667 -122 50
c28 48.667 28 96.667 0 144c0 33.333 40.667 50 122 50s122 -16.667 122 -50c-28 -44.667 -28 -92.667 0 -144z" />
    <glyph glyph-name="igrave" unicode="&#xec;" horiz-adv-x="706" 
d="M143 118c0 32.667 24 60.333 72 83c13.333 6.66699 27.333 12.334 42 17.001c88 475.333 88 950.666 0 1426c-14.667 4.66699 -28.667 10 -42 16c-48 23.333 -72 51.333 -72 84s24 60.334 72 83.001c38.667 18.667 83.667 30 135 34c6 0.666992 12.667 1 20 1h19
c68 0 126 -11.5 174 -34.5s72 -50.833 72 -83.5s-24 -60.667 -72 -84c-10.667 -4.66699 -21.667 -9 -33 -13v-1432c11.333 -4 22.333 -8.66699 33 -14c48 -22.667 72 -50.334 72 -83.001s-24 -60.667 -72 -84c-46.667 -22 -102.667 -33.333 -168 -34h-7
c-68 -0 -125.667 11.333 -173 34c-48 23.333 -72 51.333 -72 84zM60 2074c-17.333 8 21.333 33.668 116 77.001c72.667 33.333 117.667 45.666 135 37c-11.333 -78.667 66.667 -154.334 234 -227.001c32 -30.667 -51.667 -30.667 -251 0z" />
    <glyph glyph-name="iacute" unicode="&#xed;" horiz-adv-x="713" 
d="M138 118c0 32.667 24 60.333 72 83c13.333 6.66699 27.333 12.334 42 17.001c88 475.333 88 950.666 0 1426c-14.667 4.66699 -28.667 10 -42 16c-48 23.333 -72 51.333 -72 84s24 60.334 72 83.001c38.667 18.667 83.667 30 135 34c6 0.666992 12.667 1 20 1h19
c68 0 126 -11.5 174 -34.5s72 -50.833 72 -83.5s-24 -60.667 -72 -84c-10.667 -4.66699 -21.667 -9 -33 -13v-1432c11.333 -4 22.333 -8.66699 33 -14c48 -22.667 72 -50.334 72 -83.001s-24 -60.5 -72 -83.5s-106 -34.5 -174 -34.5h-8c-64.667 0.666992 -120 12 -166 34
c-48 23.333 -72 51.333 -72 84zM474 1961c-199.333 -30.667 -282.668 -30.6689 -250.001 -0.00195312c167.333 72.667 245.333 148.334 234 227.001c17.333 8.66699 62.333 -3.66602 135 -36.999c94.667 -43.333 133.334 -69 116.001 -77z" />
    <glyph glyph-name="icircumflex" unicode="&#xee;" horiz-adv-x="778" 
d="M143 1744c0 32.667 24 60.333 72 83c38.667 18.667 83.667 30 135 34c6 0.666992 12.667 1 20 1h19c68 0 126 -11.5 174 -34.5s72 -50.833 72 -83.5s-24 -60.667 -72 -84c-10.667 -4.66699 -21.667 -9 -33 -13v-1432c11.333 -4 22.333 -8.66699 33 -14
c48 -22.667 72 -50.334 72 -83.001s-24 -60.5 -72 -83.5s-106 -34.5 -174 -34.5s-126 11.5 -174 34.5s-72 50.833 -72 83.5s24 60.334 72 83.001c13.333 6.66699 27.333 12.334 42 17.001c88 475.333 88 950.666 0 1426c-14.667 4.66699 -28.667 10 -42 16
c-48 23.333 -72 51.333 -72 84zM389 2026l-132.001 -64c-199.333 -30.667 -282.666 -30.667 -249.999 0c167.333 73.333 245.333 149.666 234 228.999h296c-11.333 -79.333 66.667 -155.666 234 -228.999c32 -30.667 -51.667 -30.667 -251 0z" />
    <glyph glyph-name="idieresis" unicode="&#xef;" horiz-adv-x="640" 
d="M74 1744c0 32.667 24 60.333 72 83c38.667 18.667 83.667 30 135 34c6 0.666992 12.667 1 20 1h19c68 0 126 -11.5 174 -34.5s72 -50.833 72 -83.5s-24 -60.667 -72 -84c-10.667 -4.66699 -21.667 -9 -33 -13v-1432c11.333 -4 22.333 -8.66699 33 -14
c48 -22.667 72 -50.334 72 -83.001s-24 -60.5 -72 -83.5s-106 -34.5 -174 -34.5s-126 11.5 -174 34.5s-72 50.833 -72 83.5s24 60.334 72 83.001c13.333 6.66699 27.333 12.334 42 17.001c88 475.333 88 950.666 0 1426c-14.667 4.66699 -28.667 10 -42 16
c-48 23.333 -72 51.333 -72 84zM244 1989c0 -33.333 -40.667 -50 -122 -50s-122 16.667 -122 50c28 48.667 28 96.667 0 144c0 33.333 40.667 50 122 50s122 -16.667 122 -50c-28 -44.667 -28 -92.667 0 -144zM640 1989c0 -33.333 -40.667 -50 -122 -50s-122 16.667 -122 50
c28 48.667 28 96.667 0 144c0 33.333 40.667 50 122 50s122 -16.667 122 -50c-28 -44.667 -28 -92.667 0 -144z" />
    <glyph glyph-name="eth" unicode="&#xf0;" horiz-adv-x="1115" 
d="M80 118c0 32.667 23.999 60.332 71.999 82.999c12 6 25 11.333 39 16c41.333 222 63.333 444.667 66 668c-51.333 -7.33301 -102.333 -25.333 -153 -54h-2c-29.333 1.33301 -44 37 -44 107c0 62.667 15.333 94 46 94c50.667 -28.667 101.667 -47 153 -55
c-2.66699 222.667 -24.667 445.334 -66 668.001c-14 4 -27 9 -39 15c-48 23.333 -72 51.333 -72 84s24 60.334 72 83.001c36.667 18 79.334 29 128.001 33c7.33301 1.33301 15.333 2 24 2h39l275 -1c251.333 0 377 -130.333 377 -391
c-100.667 -358.667 -100.667 -718.334 0 -1079c0 -260 -125.667 -390 -377 -390l-18 -1h-295c-8.66699 -0 -16.667 0.333008 -24 1c-48.667 4.66699 -91.667 15.667 -129 33c-48 23.333 -72 51.333 -72 84zM561.999 924.998c0 -62.667 -15.333 -94 -46 -94
c-17.333 9.33301 -34.333 17.666 -51 24.999v-591h124c82 0 123 42 123 126c-100.667 360.667 -100.667 720.334 0 1079c0 84.667 -41 127 -123 127h-124v-591c16.667 7.33301 33.667 16 51 26h2c29.333 -1.33301 44 -37 44 -107z" />
    <glyph glyph-name="ntilde" unicode="&#xf1;" horiz-adv-x="1283" 
d="M661 118c0 32.667 24.001 60.3301 72.001 82.9971c13.333 6.66699 27.333 12.334 42 17.001c5.33301 26 10 52 14 78l-272 583v-664c11.333 -4 22.333 -8.66699 33 -14c48 -22.667 72 -50.334 72 -83.001s-24 -60.667 -72 -84c-46.667 -22 -102.667 -33.333 -168 -34h-6
c-68 0 -126 11.5 -174 34.5s-72 50.833 -72 83.5s24 60.334 72 83.001c13.333 6.66699 27.333 12.334 42 17.001c44.667 238 67 475.667 67 713c0 148.667 -8.66699 297 -26 445l-1 2l1 1c-10.667 88 -24.334 176.333 -41.001 265c-14.667 4.66699 -28.667 10 -42 16
c-48 23.333 -72 51.333 -72 84s24 60.334 72 83.001c46 22 101.333 33.667 166 35h8c68 0 126 -11.5 174 -34.5s72 -50.833 72 -83.5s-24 -60.667 -72 -84c-10.667 -4.66699 -21.667 -9 -33 -13v-188c80 -262 186.333 -512 319 -750c4 74 6 148 6 222
c0 238 -22.333 475.667 -67 713c-14.667 4.66699 -28.667 10 -42 16c-48 23.333 -72 51.333 -72 84s24 60.334 72 83.001c46 22 101.333 33.667 166 35h8c68 0 126 -11.5 174 -34.5s72 -50.833 72 -83.5s-24 -60.667 -72 -84c-10.667 -4.66699 -21.667 -9 -33 -13v-1432
c11.333 -4 22.333 -8.66699 33 -14c48 -22.667 72 -50.334 72 -83.001s-24 -60.5 -72 -83.5s-106 -34.5 -174 -34.5h-8c-64.667 0.666992 -120 12 -166 34c-48 23.333 -72 51.333 -72 84zM603.001 2005c-43.333 26.667 -69.3311 40.333 -77.998 41
c-20.667 0 -51.334 -32 -92.001 -96c-42.667 -48.667 -80.334 -57 -113.001 -25c-38 38.667 -28.667 95 28 169c41.333 67.333 95.333 102.666 162 106c43.333 0 99.666 -20.667 168.999 -62c43.333 -26.667 69.333 -40.334 78 -41.001c20.667 0 51.334 32 92.001 96
c42.667 48.667 80 57 112 25c38.667 -38.667 29.667 -95 -27 -169c-41.333 -67.333 -95.333 -102.666 -162 -105.999c-44 0 -100.333 20.667 -169 62z" />
    <glyph glyph-name="ograve" unicode="&#xf2;" 
d="M921 361c0 -262 -135 -393 -405 -393c-270.667 0.666992 -406 131.667 -406 393c94 380 94 760 0 1140c0 261.333 135.333 392 406 392c270 0 405 -130.667 405 -392c-94 -380 -94 -760 0 -1140zM639 1501c0 84.667 -41 127 -123 127h-2
c-81.333 0 -122 -42.333 -122 -127c100.667 -380 100.667 -760 0 -1140c0 -84.667 41 -127 123 -127c82.667 0 124 42.333 124 127c-100.667 380 -100.667 760 0 1140zM200 2074c-17.333 8 21.333 33.6689 116 77.002c72.667 33.333 117.667 45.666 135 36.999
c-11.333 -78.667 66.667 -154.334 234 -227.001c32 -30.667 -51.667 -30.667 -251 0z" />
    <glyph glyph-name="oacute" unicode="&#xf3;" 
d="M921 361c0 -262 -135 -393 -405 -393c-270.667 0.666992 -406 131.667 -406 393c94 380 94 760 0 1140c0 261.333 135.333 392 406 392c270 0 405 -130.667 405 -392c-94 -380 -94 -760 0 -1140zM639 1501c0 84.667 -41 127 -123 127h-2
c-81.333 0 -122 -42.333 -122 -127c100.667 -380 100.667 -760 0 -1140c0 -84.667 41 -127 123 -127c82.667 0 124 42.333 124 127c-100.667 380 -100.667 760 0 1140zM616 1961c-199.333 -30.667 -282.668 -30.668 -250.001 -0.000976562
c167.333 72.667 245.333 148.334 234 227.001c17.333 8.66699 62.333 -3.66602 135 -37c94.667 -43.333 133.334 -69 116.001 -77z" />
    <glyph glyph-name="ocircumflex" unicode="&#xf4;" 
d="M639 1501c0 84.667 -41 127 -123 127h-2c-81.333 0 -122 -42.333 -122 -127c100.667 -380 100.667 -760 0 -1140c0 -84.667 41 -127 123 -127c82.667 0 124 42.333 124 127c-100.667 380 -100.667 760 0 1140zM921 361c0 -262 -135 -393 -405 -393
c-270.667 0.666992 -406 131.667 -406 393c94 380 94 760 0 1140c0 261.333 135.333 392 406 392c270 0 405 -130.667 405 -392c-94 -380 -94 -760 0 -1140zM525 2026l-132.001 -64c-199.333 -30.667 -282.666 -30.667 -249.999 0
c167.333 73.333 245.333 149.666 234 228.999h296c-11.333 -79.333 66.667 -155.666 234 -228.999c32 -30.667 -51.667 -30.667 -251 0z" />
    <glyph glyph-name="otilde" unicode="&#xf5;" 
d="M921 361c0 -262 -135 -393 -405 -393c-270.667 0.666992 -406 131.667 -406 393c94 380 94 760 0 1140c0 261.333 135.333 392 406 392c270 0 405 -130.667 405 -392c-94 -380 -94 -760 0 -1140zM639 1501c0 84.667 -41 127 -123 127h-2
c-81.333 0 -122 -42.333 -122 -127c100.667 -380 100.667 -760 0 -1140c0 -84.667 41 -127 123 -127c82.667 0 124 42.333 124 127c-100.667 380 -100.667 760 0 1140zM487 2005c-43.333 26.667 -69.3311 40.333 -77.998 41c-20.667 0 -51.334 -32 -92.001 -96
c-42.667 -48.667 -80.334 -57 -113.001 -25c-38 38.667 -28.667 95 28 169c41.333 67.333 95.333 102.666 162 106c43.333 0 99.666 -20.667 168.999 -62c43.333 -26.667 69.333 -40.334 78 -41.001c20.667 0 51.334 32 92.001 96c42.667 48.667 80 57 112 25
c38.667 -38.667 29.667 -95 -27 -169c-41.333 -67.333 -95.333 -102.666 -162 -105.999c-44 0 -100.333 20.667 -169 62z" />
    <glyph glyph-name="odieresis" unicode="&#xf6;" 
d="M921 361c0 -262 -135 -393 -405 -393c-270.667 0.666992 -406 131.667 -406 393c94 380 94 760 0 1140c0 261.333 135.333 392 406 392c270 0 405 -130.667 405 -392c-94 -380 -94 -760 0 -1140zM639 1501c0 84.667 -41 127 -123 127h-2
c-81.333 0 -122 -42.333 -122 -127c100.667 -380 100.667 -760 0 -1140c0 -84.667 41 -127 123 -127c82.667 0 124 42.333 124 127c-100.667 380 -100.667 760 0 1140zM449 1989c0 -33.333 -40.667 -50.001 -122 -50.001s-122 16.667 -122 50c28 48.667 28 96.667 0 144.001
c0 33.333 40.667 50 122 50s122 -16.667 122 -50c-28 -44.667 -28 -92.667 0 -144zM845 1989c0 -33.333 -40.667 -50 -122 -50s-122 16.667 -122 50c28 48.667 28 96.667 0 144c0 33.333 40.667 50 122 50s122 -16.667 122 -50c-28 -44.667 -28 -92.667 0 -144z" />
    <glyph glyph-name="divide" unicode="&#xf7;" horiz-adv-x="1045" 
d="M686 1390c0 -44 -54.333 -66 -163 -66s-163 22 -163 66c38 66 38 130.667 0 194c0 44 54.333 66 163 66s163 -22 163 -66c-38 -60 -38 -124.667 0 -194zM686 383c0 -44 -54.333 -66 -163 -66s-163 22 -163 66c38 66 38 130.667 0 194c0 44 54.333 66 163 66
s163 -22 163 -66c-38 -60 -38 -124.667 0 -194zM242 866c-81.333 0 -122 15.999 -122 47.999c28 46.667 28 93 0 139c0 32 40.667 48 122 48h561c81.333 0 122 -16 122 -48c-28 -43.333 -28 -89.666 0 -138.999c0 -32 -40.667 -48 -122 -48h-561z" />
    <glyph glyph-name="oslash" unicode="&#xf8;" horiz-adv-x="1053" 
d="M921 361c0 -262 -134.999 -393 -404.999 -393c-66 0 -124 8 -174 24c-41.333 -119.333 -98 -167.666 -170 -144.999c-73.333 22.667 -91 96.667 -53 222l3 11l31 67c-28.667 57.333 -43 128.666 -43 213.999c94 380 94 760 0 1140c0 261.333 135.333 392 406 392
c66 0 124 -8 174 -24c41.333 117.333 92.666 166.333 153.999 147c85.333 -26.667 107.333 -106 66 -238l-25 -79c24 -54.667 36 -120.667 36 -198c-94 -380 -94 -760 0 -1140zM628.001 1564c-16.667 42.667 -54.001 64 -112.001 64h-2c-81.333 0 -122 -42.333 -122 -127
c48 -181.333 73 -363 75 -545c62.667 200 116.334 402.667 161.001 608zM515 234c82.667 0 124 42.334 124 127.001c-32 119.333 -53.667 238.666 -65 357.999l-146 -459c20 -17.333 49 -26 87 -26z" />
    <glyph glyph-name="ugrave" unicode="&#xf9;" horiz-adv-x="1253" 
d="M120 1744c0 32.667 23.9971 60.3291 71.9971 82.9961c46.667 22.667 103 34.334 169 35.001h14c64 -1.33301 119 -13 165 -35c48 -22.667 72 -50.334 72 -83.001s-24 -60.667 -72 -84c-10.667 -4.66699 -21.667 -9 -33 -13v-1287c0 -84 41 -126 123 -126
c82.667 0 127.334 42 134.001 126c60 275.333 80.667 523.333 62 744c-18 197.333 -42 377 -72 539c-15.333 4.66699 -29.666 10.334 -42.999 17.001c-48 23.333 -72 51.333 -72 84s24 60.334 72 83.001c46.667 22.667 103 34.334 169 35.001h14
c64 -1.33301 119 -13 165 -35c48 -22.667 72 -50.334 72 -83.001s-24 -60.667 -72 -84c-10.667 -4.66699 -21.667 -9 -33 -13v-1287c0 -261.333 -132 -392 -396 -392c-261.333 0.666992 -392 131.334 -392 392.001c65.333 275.333 88.333 523.333 69 744
c-18 197.333 -42 377 -72 539c-15.333 4.66699 -29.666 10.334 -42.999 17.001c-48 23.333 -72 51.333 -72 84zM275.997 2074c-17.333 8 21.333 33.668 116 77.001c72.667 33.333 117.667 45.666 135 37c-11.333 -78.667 66.667 -154.334 234 -227.001
c32 -30.667 -51.667 -30.667 -251 0z" />
    <glyph glyph-name="uacute" unicode="&#xfa;" horiz-adv-x="1253" 
d="M639 1776c0 32.667 23.9971 60.665 71.9971 83.998c48 22.667 106 34 174 34h2c66.667 -0.666992 124 -12 172 -34c48 -23.333 72 -51.333 72 -84s-24 -60.334 -72 -83.001c-10.667 -5.33301 -21.667 -10 -33 -14v-1287c0 -261.333 -132 -392 -396 -392
c-261.333 0.666992 -392 131.334 -392 392.001c65.333 275.333 88.333 523.333 69 744c-18 197.333 -42 377 -72 539c-15.333 5.33301 -29.666 11.333 -42.999 18c-48 22.667 -72 50.334 -72 83.001s24 60.667 72 84c48 22.667 106 34 174 34h9
c64 -1.33301 119 -12.666 165 -33.999c48 -23.333 72 -51.333 72 -84s-24 -60.334 -72 -83.001c-10.667 -5.33301 -21.667 -10 -33 -14v-1287c0 -84 41 -126 123 -126c82.667 0 127.334 42 134.001 126c60 275.333 80.667 523.333 62 744c-18 197.333 -42 377 -72 539
c-15.333 5.33301 -29.666 11.333 -42.999 18c-48 22.667 -72 50.334 -72 83.001zM653.997 1961c-199.333 -30.667 -282.668 -30.668 -250.001 -0.000976562c167.333 72.667 245.333 148.334 234 227.001c17.333 8.66699 62.333 -3.66602 135 -37
c94.667 -43.333 133.334 -69 116.001 -77z" />
    <glyph glyph-name="ucircumflex" unicode="&#xfb;" horiz-adv-x="1253" 
d="M639 1776c0 32.667 23.9971 60.6641 71.9971 83.9971c46.667 22 103 33.333 169 34h14c64 -1.33301 119 -12.666 165 -33.999c48 -23.333 72 -51.333 72 -84s-24 -60.334 -72 -83.001c-10.667 -5.33301 -21.667 -10 -33 -14v-1287c0 -261.333 -132 -392 -396 -392
c-261.333 0.666992 -392 131.334 -392 392.001c65.333 275.333 88.333 523.333 69 744c-18 197.333 -42 377 -72 539c-15.333 5.33301 -29.666 11.333 -42.999 18c-48 22.667 -72 50.334 -72 83.001s24 60.667 72 84c46.667 22 103 33.333 169 34h14
c64 -1.33301 119 -12.666 165 -33.999c48 -23.333 72 -51.333 72 -84s-24 -60.334 -72 -83.001c-10.667 -5.33301 -21.667 -10 -33 -14v-1287c0 -84 41 -126 123 -126c82.667 0 127.334 42 134.001 126c60 275.333 80.667 523.333 62 744c-18 197.333 -42 377 -72 539
c-15.333 5.33301 -29.666 11.333 -42.999 18c-48 22.667 -72 50.334 -72 83.001zM624.997 2026l-132.001 -64c-199.333 -30.667 -282.666 -30.667 -249.999 0c167.333 73.333 245.333 149.666 234 228.999h296c-11.333 -79.333 66.667 -155.666 234 -228.999
c32 -30.667 -51.667 -30.667 -251 0z" />
    <glyph glyph-name="udieresis" unicode="&#xfc;" horiz-adv-x="1253" 
d="M639 1776c0 32.667 23.9971 60.665 71.9971 83.998c46.667 22 103 33.333 169 34h14c64 -1.33301 119 -12.666 165 -33.999c48 -23.333 72 -51.333 72 -84s-24 -60.334 -72 -83.001c-10.667 -5.33301 -21.667 -10 -33 -14v-1287c0 -261.333 -132 -392 -396 -392
c-261.333 0.666992 -392 131.334 -392 392.001c65.333 275.333 88.333 523.333 69 744c-18 197.333 -42 377 -72 539c-15.333 5.33301 -29.666 11.333 -42.999 18c-48 22.667 -72 50.334 -72 83.001s24 60.667 72 84c48 22.667 106 34 174 34s126 -11.333 174 -34
c48 -23.333 72 -51.333 72 -84s-24 -60.334 -72 -83.001c-10.667 -5.33301 -21.667 -10 -33 -14v-1287c0 -84 41 -126 123 -126c82.667 0 127.334 42 134.001 126c60 275.333 80.667 523.333 62 744c-18 197.333 -42 377 -72 539c-15.333 5.33301 -29.666 11.333 -42.999 18
c-48 22.667 -72 50.334 -72 83.001zM944.997 1989c0 -33.333 -40.667 -50.001 -122 -50.001s-122 16.667 -122 50c28 48.667 28 96.667 0 144.001c0 33.333 40.667 50 122 50s122 -16.667 122 -50c-28 -44.667 -28 -92.667 0 -144zM548.997 1989
c0 -33.333 -40.667 -50 -122 -50s-122 16.667 -122 50c28 48.667 28 96.667 0 144c0 33.333 40.667 50 122 50s122 -16.667 122 -50c-28 -44.667 -28 -92.667 0 -144z" />
    <glyph glyph-name="yacute" unicode="&#xfd;" horiz-adv-x="1257" 
d="M1187 1744c0 -32.667 -23.998 -60.666 -71.998 -83.999c-18.667 -8.66699 -38.334 -15.667 -59.001 -21c-114 -182.667 -211 -371.334 -291 -566.001v-858c10.667 -4 21.334 -8.66699 32.001 -14c48 -22.667 72 -50.334 72 -83.001s-24 -60.5 -72 -83.5
s-106 -34.5 -174 -34.5s-126 11.5 -174 34.5s-72 50.833 -72 83.5s24 60.334 72 83.001c13.333 6.66699 27.666 12.334 42.999 17.001c36 194 57.333 388 64 582l-38 130c-90.667 245.333 -206.334 481.666 -347.001 708.999c-21.333 5.33301 -41 12.333 -59 21
c-48 23.333 -72 51.333 -72 84s24 60.5 72 83.5s105.667 34.5 173 34.5h13c62.667 -1.33301 116.667 -13 162 -35c48 -22.667 72 -50.334 72 -83.001c0 -32 -23.333 -59.667 -70 -83l152 -398l150 398c-46 23.333 -69 51 -69 83c0 32.667 24 60.334 72 83.001
c46 22 101.333 33.667 166 35h8c68 0 126 -11.5 174 -34.5s72 -50.833 72 -83.5zM726.002 1961c-199.333 -30.667 -282.668 -30.6689 -250.001 -0.00195312c167.333 72.667 245.333 148.334 234 227.001c17.333 8.66699 62.333 -3.66602 135 -36.999
c94.667 -43.333 133.334 -69 116.001 -77z" />
    <glyph glyph-name="thorn" unicode="&#xfe;" horiz-adv-x="1092" 
d="M130 118c0 32.667 23.998 60.3359 71.998 83.0029c9.33301 4.66699 19 9 29 13c89.333 478 89.333 956 0 1434c-10 3.33301 -19.667 7.33301 -29 12c-48 23.333 -72 51.333 -72 84s24 60.334 72 83.001c32 15.333 68.333 25.666 109 30.999c10.667 2.66699 22 4 34 4h31
c68 0 126 -11.5 174 -34.5s72 -50.833 72 -83.5s-24 -60.667 -72 -84c-14 -6.66699 -29 -12.334 -45 -17.001v-181h124c157.333 0 265.333 -51.333 324 -154c26.667 -41.333 43.667 -93 51 -155v-3c-103.333 -135.333 -104.666 -280.333 -3.99902 -435
c-21.333 -149.333 -109.666 -248 -264.999 -296c-43.333 -13.333 -106.333 -20 -189 -20h-41v-180c16 -5.33301 31 -11.333 45 -18c48 -22.667 72 -50.334 72 -83.001s-24 -60.5 -72 -83.5s-106 -34.5 -174 -34.5h-30c-55.333 3.33301 -103.333 14.666 -144 33.999
c-48 23.333 -72 51.333 -72 84zM746.998 1150c0 32.667 -41.001 49 -123.001 49h-2c-64.667 0 -103.667 -10.333 -117 -31v-471c12.667 -20.667 52 -31 118 -31c82.667 0 124 16.333 124 49c-66 100.667 -88.667 197.667 -68 291c10.667 49.333 33.334 97.333 68.001 144z
" />
    <glyph glyph-name="ydieresis" unicode="&#xff;" horiz-adv-x="1257" 
d="M1187 1744c0 -32.667 -23.998 -60.665 -71.998 -83.998c-18.667 -8.66699 -38.334 -15.667 -59.001 -21c-114 -182.667 -211 -371.334 -291 -566.001v-858c10.667 -4 21.334 -8.66699 32.001 -14c48 -22.667 72 -50.334 72 -83.001s-24 -60.5 -72 -83.5
s-106 -34.5 -174 -34.5s-126 11.5 -174 34.5s-72 50.833 -72 83.5s24 60.334 72 83.001c13.333 6.66699 27.666 12.334 42.999 17.001c36 194 57.333 388 64 582l-38 130c-90.667 245.333 -206.334 481.666 -347.001 708.999c-21.333 5.33301 -41 12.333 -59 21
c-48 23.333 -72 51.333 -72 84s24 60.5 72 83.5s105.667 34.5 173 34.5h13c62.667 -1.33301 116.667 -13 162 -35c48 -22.667 72 -50.334 72 -83.001c0 -32 -23.333 -59.667 -70 -83l152 -398l150 398c-46 23.333 -69 51 -69 83c0 32.667 24 60.5 72 83.5s106 34.5 174 34.5
s126 -11.5 174 -34.5s72 -50.833 72 -83.5zM538.002 1989c0 -33.333 -40.667 -50.001 -122 -50.001s-122 16.667 -122 50c28 48.667 28 96.667 0 144.001c0 33.333 40.667 50 122 50s122 -16.667 122 -50c-28 -44.667 -28 -92.667 0 -144zM934.002 1989
c0 -33.333 -40.667 -50 -122 -50s-122 16.667 -122 50c28 48.667 28 96.667 0 144c0 33.333 40.667 50 122 50s122 -16.667 122 -50c-28 -44.667 -28 -92.667 0 -144z" />
    <glyph glyph-name="Abreve" unicode="&#x102;" horiz-adv-x="1255" 
d="M721 118c0 32.667 24 60.667 72 84c11.333 5.33301 23.333 10 36 14l-36 179h-332l-37 -179c12.667 -4 24.667 -8.66699 36 -14c48 -23.333 72 -51.333 72 -84s-24 -60.334 -72 -83.001c-46 -22.667 -100.667 -34.334 -164 -35.001h-10c-68 0 -126 11.667 -174 35
c-48 22.667 -72 50.334 -72 83.001s24 60.667 72 84c13.333 6 27.333 11.333 42 16c160.667 466.667 261.334 947 302.001 1441c-1.33301 0.666992 -2.33301 1.33398 -3 2.00098c-48 22.667 -72 50.334 -72 83.001s24 60.667 72 84c46 21.333 101 32.666 165 33.999h18
c64 -1.33301 119 -12.666 165 -33.999c48 -23.333 72 -51.333 72 -84s-24 -60.334 -72 -83.001l-4 -2c40.667 -494 141 -974.333 301 -1441c15.333 -4.66699 29.666 -10 42.999 -16c48 -23.333 72 -51.333 72 -84s-24 -60.334 -72 -83.001c-48 -23.333 -106 -35 -174 -35
s-126 11.667 -174 35c-48 22.667 -72 50.334 -72 83.001zM627 1939c-84.667 0.666992 -159.167 9.5 -223.5 26.5s-96.5 57.5 -96.5 121.5s19.333 96 58 96c90 -34.667 177.333 -52 262 -52s172 17.333 262 52c38.667 0 58 -32 58 -96s-32.167 -104.5 -96.5 -121.5
s-138.833 -25.833 -223.5 -26.5zM746 661c-66.667 180 -106.332 438 -118.999 774c-12.667 -336 -52.334 -594 -119.001 -774h238z" />
    <glyph glyph-name="abreve" unicode="&#x103;" horiz-adv-x="1255" 
d="M721 118c0 32.667 24 60.667 72 84c11.333 5.33301 23.333 10 36 14l-36 179h-332l-37 -179c12.667 -4 24.667 -8.66699 36 -14c48 -23.333 72 -51.333 72 -84s-24 -60.334 -72 -83.001c-46 -22.667 -100.667 -34.334 -164 -35.001h-10c-68 0 -126 11.667 -174 35
c-48 22.667 -72 50.334 -72 83.001s24 60.667 72 84c13.333 6 27.333 11.333 42 16c160.667 466.667 261.334 947 302.001 1441c-1.33301 0.666992 -2.33301 1.33398 -3 2.00098c-48 22.667 -72 50.334 -72 83.001s24 60.667 72 84c46 21.333 101 32.666 165 33.999h18
c64 -1.33301 119 -12.666 165 -33.999c48 -23.333 72 -51.333 72 -84s-24 -60.334 -72 -83.001l-4 -2c40.667 -494 141 -974.333 301 -1441c15.333 -4.66699 29.666 -10 42.999 -16c48 -23.333 72 -51.333 72 -84s-24 -60.334 -72 -83.001c-48 -23.333 -106 -35 -174 -35
s-126 11.667 -174 35c-48 22.667 -72 50.334 -72 83.001zM627 1939c-84.667 0.666992 -159.167 9.5 -223.5 26.5s-96.5 57.5 -96.5 121.5s19.333 96 58 96c90 -34.667 177.333 -52 262 -52s172 17.333 262 52c38.667 0 58 -32 58 -96s-32.167 -104.5 -96.5 -121.5
s-138.833 -25.833 -223.5 -26.5zM746 661c-66.667 180 -106.332 438 -118.999 774c-12.667 -336 -52.334 -594 -119.001 -774h238z" />
    <glyph glyph-name="Aogonek" unicode="&#x104;" horiz-adv-x="1255" 
d="M721 118c0 32.667 24.001 60.6689 72.001 84.002c11.333 5.33301 23.333 10 36 14l-36 179h-332l-37 -179c12.667 -4 24.667 -8.66699 36 -14c48 -23.333 72 -51.333 72 -84s-24 -60.334 -72 -83.001c-46 -22.667 -100.667 -34.334 -164 -35.001h-10
c-68 0 -126 11.667 -174 35c-48 22.667 -72 50.334 -72 83.001s24 60.667 72 84c13.333 6 27.333 11.333 42 16c160.667 466.667 261.334 947 302.001 1441c-1.33301 0.666992 -2.33301 1.33398 -3 2.00098c-48 22.667 -72 50.334 -72 83.001s24 60.667 72 84
c48 22.667 106 34 174 34h1c67.333 0 125 -11.333 173 -34c48 -23.333 72 -51.333 72 -84s-24 -60.334 -72 -83.001l-4 -2c40.667 -494 141 -974.333 301 -1441c15.333 -4.66699 29.666 -10 42.999 -16c48 -23.333 72 -51.333 72 -84s-24 -60.334 -72 -83.001
c-28 -14 -59.667 -23.667 -95 -29c20.667 -4.66699 31 -19.667 31 -45v-130c0 -23.333 14.333 -35 43 -35c28 0 42 4.33301 42 13c-12 12.667 -19.667 25.667 -23 39c-1.33301 2.66699 -2.33301 5.66699 -3 9c2.66699 17.333 16.667 28 42 32c25.333 3.33301 43 -3 53 -19
c0 -4 0.333008 -8.33301 1 -13c2.66699 -16.667 11.334 -32.667 26.001 -48v-1c-9.33301 -36 -33 -60.333 -71 -73c-16.667 -7.33301 -39.334 -11 -68.001 -11c-57.333 0 -97 13.333 -119 40c-4.66699 6.66699 -10.667 18 -18 34c34 65.333 34 119.666 0 162.999
c0 19.333 5.66699 32.666 17 39.999c-8.66699 -0.666992 -17.334 -1 -26.001 -1h-6c-68 0 -126 11.667 -174 35c-48 22.667 -72 50.334 -72 83.001zM746.001 661.002c-66.667 180 -106.332 438 -118.999 774c-12.667 -336 -52.334 -594 -119.001 -774h238z" />
    <glyph glyph-name="aogonek" unicode="&#x105;" horiz-adv-x="1255" 
d="M721 118c0 32.667 24.001 60.6689 72.001 84.002c11.333 5.33301 23.333 10 36 14l-36 179h-332l-37 -179c12.667 -4 24.667 -8.66699 36 -14c48 -23.333 72 -51.333 72 -84s-24 -60.334 -72 -83.001c-46 -22.667 -100.667 -34.334 -164 -35.001h-10
c-68 0 -126 11.667 -174 35c-48 22.667 -72 50.334 -72 83.001s24 60.667 72 84c13.333 6 27.333 11.333 42 16c160.667 466.667 261.334 947 302.001 1441c-1.33301 0.666992 -2.33301 1.33398 -3 2.00098c-48 22.667 -72 50.334 -72 83.001s24 60.667 72 84
c48 22.667 106 34 174 34h1c67.333 0 125 -11.333 173 -34c48 -23.333 72 -51.333 72 -84s-24 -60.334 -72 -83.001l-4 -2c40.667 -494 141 -974.333 301 -1441c15.333 -4.66699 29.666 -10 42.999 -16c48 -23.333 72 -51.333 72 -84s-24 -60.334 -72 -83.001
c-28 -14 -59.667 -23.667 -95 -29c20.667 -4.66699 31 -19.667 31 -45v-130c0 -23.333 14.333 -35 43 -35c28 0 42 4.33301 42 13c-12 12.667 -19.667 25.667 -23 39c-1.33301 2.66699 -2.33301 5.66699 -3 9c2.66699 17.333 16.667 28 42 32c25.333 3.33301 43 -3 53 -19
c0 -4 0.333008 -8.33301 1 -13c2.66699 -16.667 11.334 -32.667 26.001 -48v-1c-9.33301 -36 -33 -60.333 -71 -73c-16.667 -7.33301 -39.334 -11 -68.001 -11c-57.333 0 -97 13.333 -119 40c-4.66699 6.66699 -10.667 18 -18 34c34 65.333 34 119.666 0 162.999
c0 19.333 5.66699 32.666 17 39.999c-8.66699 -0.666992 -17.334 -1 -26.001 -1h-6c-68 0 -126 11.667 -174 35c-48 22.667 -72 50.334 -72 83.001zM746.001 661.002c-66.667 180 -106.332 438 -118.999 774c-12.667 -336 -52.334 -594 -119.001 -774h238z" />
    <glyph glyph-name="Cacute" unicode="&#x106;" horiz-adv-x="1023" 
d="M392 360c0 -84.667 41.667 -127.001 125 -127.001c83.333 -0.666992 125 15.333 125 48c-35.333 46.667 -58.333 94.667 -69 144c-8 34 -10 68.667 -6 104c10.667 72 57.667 111.667 141 119c70.667 5.33301 119.334 -17.667 146.001 -69
c-28 -104 -5.66699 -203.333 67 -298c-26.667 -135.333 -95.667 -226.666 -207 -273.999c-48.667 -26 -114.334 -39 -197.001 -39c-272 0 -407.667 130.333 -407 391c42.667 163.333 65.667 348.333 69 555v33c-3.33301 206.667 -26.333 391.667 -69 555
c-0.666992 260.667 135 391 407 391c82.667 0 148.334 -13 197.001 -39c111.333 -47.333 180.333 -138.666 207 -273.999c-72.667 -94.667 -95 -194 -67 -298c-26.667 -51.333 -75.334 -74.333 -146.001 -69c-83.333 7.33301 -130.333 47 -141 119c-4 35.333 -2 70 6 104
c10.667 49.333 33.667 97.333 69 144c0 32.667 -41.667 49 -125 49c-83.333 -0.666992 -125 -43.334 -125 -128.001v-1141zM607 1961c-199.333 -30.667 -282.668 -30.6689 -250.001 -0.00195312c167.333 72.667 245.333 148.334 234 227.001
c17.333 8.66699 62.333 -3.66602 135 -36.999c94.667 -43.333 133.334 -69 116.001 -77z" />
    <glyph glyph-name="cacute" unicode="&#x107;" horiz-adv-x="1023" 
d="M392 360c0 -84.667 41.667 -127.001 125 -127.001c83.333 -0.666992 125 15.333 125 48c-35.333 46.667 -58.333 94.667 -69 144c-8 34 -10 68.667 -6 104c10.667 72 57.667 111.667 141 119c70.667 5.33301 119.334 -17.667 146.001 -69
c-28 -104 -5.66699 -203.333 67 -298c-26.667 -135.333 -95.667 -226.666 -207 -273.999c-48.667 -26 -114.334 -39 -197.001 -39c-272 0 -407.667 130.333 -407 391c42.667 163.333 65.667 348.333 69 555v33c-3.33301 206.667 -26.333 391.667 -69 555
c-0.666992 260.667 135 391 407 391c82.667 0 148.334 -13 197.001 -39c111.333 -47.333 180.333 -138.666 207 -273.999c-72.667 -94.667 -95 -194 -67 -298c-26.667 -51.333 -75.334 -74.333 -146.001 -69c-83.333 7.33301 -130.333 47 -141 119c-4 35.333 -2 70 6 104
c10.667 49.333 33.667 97.333 69 144c0 32.667 -41.667 49 -125 49c-83.333 -0.666992 -125 -43.334 -125 -128.001v-1141zM607 1961c-199.333 -30.667 -282.668 -30.6689 -250.001 -0.00195312c167.333 72.667 245.333 148.334 234 227.001
c17.333 8.66699 62.333 -3.66602 135 -36.999c94.667 -43.333 133.334 -69 116.001 -77z" />
    <glyph glyph-name="Ccaron" unicode="&#x10c;" horiz-adv-x="1023" 
d="M392 360c0 -84.667 41.667 -127.001 125 -127.001c83.333 -0.666992 125 15.333 125 48c-35.333 46.667 -58.333 94.667 -69 144c-8 34 -10 68.667 -6 104c10.667 72 57.667 111.667 141 119c70.667 5.33301 119.334 -17.667 146.001 -69
c-28 -104 -5.66699 -203.333 67 -298c-26.667 -135.333 -95.667 -226.666 -207 -273.999c-48.667 -26 -114.334 -39 -197.001 -39c-272 0 -407.667 130.333 -407 391c42.667 163.333 65.667 348.333 69 555v33c-3.33301 206.667 -26.333 391.667 -69 555
c-0.666992 260.667 135 391 407 391c82.667 0 148.334 -13 197.001 -39c111.333 -47.333 180.333 -138.666 207 -273.999c-72.667 -94.667 -95 -194 -67 -298c-26.667 -51.333 -75.334 -74.333 -146.001 -69c-83.333 7.33301 -130.333 47 -141 119c-4 35.333 -2 70 6 104
c10.667 49.333 33.667 97.333 69 144c0 32.667 -41.667 49 -125 49c-83.333 -0.666992 -125 -43.334 -125 -128.001v-1141zM347 1939l1 15c0 73.333 -78.333 144.666 -235 213.999c-4.66699 4 -7 7.66699 -7 11c0 8 14.667 12 44 12c41.333 0 112.333 -8 213 -24l132 -63
l131 63c100.667 16 172 24 214 24c29.333 0 44 -4 44 -12c0 -3.33301 -2.33301 -7 -7 -11c-156.667 -69.333 -235 -140.666 -235 -213.999l1 -15h-296z" />
    </font>
</defs>
</svg>
